<svg width="20" height="20" xmlns="http://www.w3.org/2000/svg"><g fill="none"><circle fill="#D80027" cx="10" cy="10" r="10"/><path d="M5.473 6.086l.863 2.656h2.793L6.87 10.387l.863 2.656-2.261-1.64-2.262 1.64.867-2.656-2.262-1.645H4.61zm6.382 9.402l-.66-.812-.976.379.566-.88-.66-.816 1.012.27.57-.879.055 1.047 1.015.27-.98.374zm1.313-2.383l.312-1-.855-.605 1.047-.016.308-1 .34.993 1.047-.012-.84.625.336.992-.855-.605zm1.77-5.765l-.461.941.75.73-1.036-.148-.46.938-.18-1.031-1.04-.149.93-.488-.18-1.035.75.73zm-3.055-2.852l-.078 1.043.972.395-1.02.25-.073 1.047-.551-.891-1.02.25.676-.8-.555-.887.973.394z" fill="#FFDA44"/></g></svg>