<svg width="252" height="27" xmlns="http://www.w3.org/2000/svg"><g fill="none" fill-rule="evenodd"><path fill="#1D1C1B" d="M88.486 21.252h4.921V2.527h-4.92zm19.949-18.725H95.269v4.458h4.123v14.267h4.92V6.985h4.123zM23.85 17.819c1.728 0 3.102-1.249 3.102-2.987 0-1.605-1.33-2.943-3.058-2.943-1.773 0-3.015 1.026-3.015 2.987 0 1.739 1.02 2.943 2.97 2.943zm1.108-9.853c3.502 0 6.605 2.318 6.605 6.687 0 3.835-2.616 7.044-7.137 7.044-2.394 0-3.547-1.604-3.547-1.604v6.865h-4.92V8.456h4.92v1.694s1.242-2.184 4.079-2.184zm8.334 13.286h4.92V8.456h-4.92zM35.686.298a3.121 3.121 0 0 0-3.104 3.12c0 1.695 1.419 3.121 3.104 3.121 1.728 0 3.103-1.426 3.103-3.12A3.093 3.093 0 0 0 35.686.297m12.013 17.522c-1.818 0-3.059-1.026-3.059-2.943s1.33-2.898 3.059-2.898c1.02 0 2.083.49 2.66.937l2.083-3.121c-1.418-1.026-3.059-1.783-5.63-1.783-3.68 0-7.093 2.63-7.093 6.865 0 4.191 3.192 6.821 6.916 6.821 2.793 0 4.61-.936 5.985-2.184l-1.818-2.809c-.71.49-1.818 1.115-3.103 1.115"/><path d="M57.55 13.45c.219-1.326.826-1.962 1.985-1.962 1.197 0 1.818.847 1.818 1.962H57.55zm8.457 1.025c0-3.7-1.95-6.465-6.25-6.465-4.345 0-7.226 2.898-7.226 6.688 0 4.637 3.147 7 7.27 7 2.793 0 4.92-1.115 5.896-2.185l-1.685-2.675c-.62.446-1.773 1.114-3.28 1.114-1.62 0-2.7-.809-3.102-2.006h8.2c.089-.178.177-1.07.177-1.471zM9.22 10.24C6.618 8.837 5.587 8.233 5.587 7.475c0-.624.532-.936 1.374-.936 1.762 0 3.755 1.062 4.743 1.739l1.95-4.503c-1.108-.669-3.767-1.694-6.516-1.694-3.635 0-6.25 2.185-6.25 5.528 0 2.764 1.555 4.21 4.255 5.93 2.305 1.471 4.167 1.966 4.167 2.72 0 .668-.487.98-1.596.98-1.994 0-4.521-1.204-5.674-2.273L0 19.513c.763.587 3.48 2.184 7.004 2.184 4.526 0 7.137-2.407 7.137-5.884 0-2.854-2.778-4.43-4.92-5.573" fill="#1D1C1B"/><path d="M80.213 23.513L74.863 10.5" fill="#CB1517"/><path fill="#009640" d="M78.874 24.07l-5.35-13.014 2.679-1.113 5.35 13.013z"/><path d="M84.336 16.204l-7.112.038-5.19 5.083c-1.027.82-2.542.086-2.542-1.233V1.909c0-1.567 1.884-2.351 2.986-1.243l12.786 12.859c.927.932.374 2.528-.928 2.68" fill="#CB1517"/><path d="M127.293 4.327c-.699-.674-1.893-1.114-2.797-1.114-.145 0-1.02.059-1.34.205-.145.06-.35.528-.35.616-.087 1.055-.174 6.563-.087 7.149.059.205.292.41.438.41 1.66 0 3.175-.498 3.554-.733a4.353 4.353 0 0 0 1.864-3.574c0-.733-.408-2.08-1.282-2.96m1.806 6.857c-.145.117-.728.38-.96.527-.117.059-.176.352-.117.44.35.79 2.796 4.775 4.486 6.709.787.937 1.602 1.435 2.797 1.7.262.058.495.292.495.41 0 .146-.262.292-.437.35-.379.177-1.136.235-1.69.235-1.631 0-3.175-.879-3.962-1.904-.99-1.348-2.476-3.633-3.641-5.538-.408-.585-.932-1.318-1.107-1.406-.175-.146-1.136-.38-1.952-.38-.175 0-.32.234-.35.321-.029.528.03 4.278.117 5.89.058 1.26.35 1.64 1.748 1.992.495.117.699.351.699.469 0 .322-.554.41-.758.41-1.165 0-1.893-.176-3.758-.176-.611 0-2.126.117-2.447.117-.437 0-.786-.146-.786-.44 0-.204.262-.292.64-.439 1.312-.41 1.778-.615 1.865-1.699.087-1.172.175-4.131.175-6.065 0-4.219-.03-6.856-.175-7.94-.087-.967-.35-1.142-1.69-1.465-.437-.088-.699-.263-.699-.498 0-.205.204-.351.787-.351h1.748c1.078 0 3.204-.147 4.777-.147 1.865 0 3.613.234 4.836 1.26.933.762 1.632 2.227 1.632 3.604 0 1.582-.874 3.105-2.273 4.014m9.139 1.23c-.058.147.059.322.146.322.758.03 2.156.03 3.613 0 .64 0 .99-.175.99-.79 0-.82-.845-1.788-1.865-1.788-1.281 0-2.388.908-2.884 2.256m6.118-1.875a3.476 3.476 0 0 1 1.02 2.49c0 .176-.262.557-.583.557-.32 0-5.244 0-6.584-.03-.087 0-.233.118-.262.235-.087.235-.116.703-.116 1.026 0 1.025.436 2.373 1.048 3.193.67.88 1.894 1.582 3.292 1.582 1.253 0 2.127-.322 2.622-1.054.117-.147.262-.352.379-.352.175 0 .262.234.262.352 0 .234-.146.556-.233.732-.99 1.465-2.505 2.256-4.34 2.256-3.176 0-5.244-2.432-5.244-5.83 0-2.344 1.223-4.688 3.525-5.772.757-.352 1.718-.498 2.272-.498 1.049 0 2.185.38 2.942 1.113m11.807-.41c.292.234.437.703.437.937 0 .47-.874 1.202-.99 1.202-.204 0-.7-.205-1.166-.586-.932-.674-1.456-1.172-2.447-1.172-.408 0-1.223.351-1.69.908-.757.879-1.194 2.139-1.194 3.457 0 1.729.67 2.754.816 2.93.67 1.143 2.01 1.875 3.554 1.875 1.02 0 1.835-.351 2.622-.879.291-.205.524-.117.524.03 0 .322-.174.644-.408.878-.99 1.114-2.68 1.846-4.253 1.846a5.163 5.163 0 0 1-4.34-2.344c-.525-.85-.933-2.197-.933-3.428 0-2.168 1.136-3.925 2.855-5.068 1.107-.791 3-1.23 3.846-1.23.903 0 2.214.234 2.767.644m2.348.322c.99-.351 1.981-.79 2.33-.996.35-.234.525-.322.612-.322.146 0 .292.234.292.322 0 .527-.059 1.055-.059 1.611 0 .118.146.176.175.118 1.107-1.055 2.39-1.817 3.292-1.817 1.224 0 1.515.762 1.515 1.026 0 .087-.087.293-.175.44-.35.497-1.048 1.347-1.252 1.435-.059.029-.35-.03-.437-.088-.32-.293-1.078-.674-1.66-.674-.438 0-.875.058-1.137.351a.926.926 0 0 0-.291.645c0 .586.116 5.83.145 6.27.058.85.263 1.406.758 1.523.35.059.903.206 1.31.323.467.146.554.351.554.469 0 .175-.262.293-.728.293-.758 0-1.894-.147-3.583-.147-.816 0-1.224.117-1.923.117-.32 0-.612-.117-.612-.38 0-.176.379-.294.583-.381 1.107-.381 1.194-.674 1.223-2.432v-5.45c0-.352 0-.732-.291-.937-.64-.498-1.02-.733-1.02-.85 0-.059.088-.38.38-.469m17.711 8.614c.175-.117.408-.557.408-.674l.03-6.71c0-.175-.263-.556-.467-.644-.466-.117-1.02-.322-1.31-.38-.205-.06-.554-.235-.554-.47 0-.117.35-.292.612-.292 1.165 0 2.592-.147 3.292-.323.29-.088.495-.117.699-.117.145 0 .204.322.204.44-.059.878-.233 7.588-.233 9.668 0 .088.087.44.32.44s1.078-.176 1.457-.176c.116 0 .32.527.35.615 0 .088-.205.293-.35.293-.729.059-2.04.41-2.71.586-.495.146-1.048.293-1.107.293-.116 0-.32-.205-.32-.41 0-.176.087-.762.116-1.26 0-.117-.116-.205-.174-.176-.787.586-1.923 1.29-2.302 1.436a4.904 4.904 0 0 1-1.952.38c-1.107 0-2.039-.468-2.622-1.406-.203-.322-.407-.967-.407-1.435 0-2.08 0-5.303-.059-6.856-.029-.82-.553-.938-1.048-1.143-.263-.117-.525-.293-.525-.556 0-.118.146-.293.495-.293.816 0 3.176-.323 3.292-.323.117 0 .233.293.233.44 0 1.26-.087 6.562-.087 7.88 0 .646.32 1.26.7 1.583.698.498 1.223.586 1.893.586.64 0 1.398-.352 2.126-.996m10.526-14.151c0 .82-.845 1.494-1.457 1.494-.204 0-.699-.117-.99-.38-.233-.265-.466-.587-.466-1.114 0-.293.116-.791.378-1.084.32-.293.787-.44 1.224-.44.845 0 1.31.967 1.31 1.524m-3.844 16.436c-.437 0-.758-.146-.758-.351 0-.176.204-.323.7-.44.67-.205 1.077-.556 1.164-.85.088-.41.117-2.226.117-3.34 0-.879.03-3.808-.03-4.16-.028-.205-.349-.469-1.164-1.055-.175-.146-.263-.263-.263-.351 0-.205.292-.44.612-.528 1.136-.234 2.593-.879 3.03-.996.146 0 .291.264.291.323-.029.439-.175 4.306-.175 5.976 0 1.495.03 2.667.059 3.692.029.908.612.996 1.34 1.23.466.147.64.323.64.499 0 .205-.378.322-.728.322-.203 0-1.66-.088-2.272-.088-.961 0-2.04.117-2.563.117m13.33-11.689c.058 0 .32.146.35.263 0-.088.087.761.087 1.113 0 .293-.553.352-.757.352h-3.117c-.117 0-.234.146-.234.205-.058.762-.087 4.746-.087 6.211 0 .733.204 1.113.524 1.436.496.44 1.107.556 1.69.556.35 0 .961-.175 1.398-.44.263-.146.35-.175.466-.175 0 0 .146.059.146.322 0 .264-.204.557-.408.762-.786.791-1.835 1.319-3.146 1.319-1.194 0-2.214-.704-2.622-1.348-.32-.498-.379-1.084-.379-1.963 0-1.084.117-5.479.117-6.504 0-.206-.525-.41-1.136-.557-.233-.088-.379-.264-.379-.38 0-.118.058-.235.175-.323 1.107-.85 2.04-1.524 2.476-2.08.35-.381.554-.645.67-.645.146 0 .437.264.437.352v1.406c0 .088.146.234.262.234.641 0 3.35-.117 3.467-.117m2.689.821c.612-.235 2.01-.997 2.418-1.231.116-.088.174-.117.233-.088.116 0 .32.234.32.293 0 .41-.116 1.201-.116 1.494 0 .059.058.264.204.176.815-.674 2.505-1.729 3.874-1.729 1.049 0 1.748.206 2.273.586.495.41.786.85.932 1.026.029.117.116.205.233.117.524-.41 1.282-.879 2.01-1.26.67-.322 1.398-.469 1.894-.469 1.077 0 1.893.381 2.505.997.67.732.932 1.787.99 2.87.117 1.378.088 3.692.088 5.978 0 .527.204 1.055 1.194 1.318.379.117.554.264.554.44 0 .205-.262.322-.816.322-.583 0-1.398-.088-2.127-.088-.903 0-1.427.059-2.097.059-.554 0-.728-.176-.728-.381 0-.176.32-.323.64-.41.904-.264 1.02-.586 1.02-1.67 0-.704-.029-4.014-.058-4.981 0-.88-.117-1.348-.437-1.875-.35-.586-.99-1.026-2.127-1.026-1.253 0-1.777.528-2.156.85-.116.088-.29.644-.29.879 0 .205-.03 5.713.028 6.358.088.937.204 1.23 1.224 1.465.32.087.612.263.612.439 0 .205-.263.352-.729.352-.64 0-1.602-.059-2.272-.059-.612 0-1.544.059-2.156.059-.64 0-.757-.235-.757-.381 0-.088.116-.293.582-.41.933-.235 1.078-.528 1.078-1.583l.03-5.596c0-.908-.205-1.318-.38-1.552-.378-.499-1.106-.88-2.126-.88-.903 0-1.544.323-2.214.85-.175.147-.291.41-.291.733-.059.967-.088 4.453-.088 6.68 0 .556.146.996 1.078 1.289.554.176.758.293.758.527 0 .205-.408.323-.787.323-.116 0-1.34-.059-2.447-.059-.961 0-1.573.088-2.214.088-.437 0-.757-.117-.757-.322 0-.147.203-.352.728-.47.961-.233 1.078-.644 1.194-1.904.058-.85.117-3.633.117-5.771 0-.176.029-.528-.204-.762-.787-.733-1.02-.967-1.02-1.084 0-.176.262-.381.583-.528m22.985 1.934c-.058.147.058.322.146.322.757.03 2.156.03 3.612 0 .641 0 .99-.175.99-.79 0-.82-.844-1.788-1.864-1.788-1.282 0-2.389.908-2.884 2.256m6.118-1.875a3.476 3.476 0 0 1 1.02 2.49c0 .176-.263.557-.583.557-.32 0-5.244 0-6.584-.03-.087 0-.233.118-.262.235-.088.235-.117.703-.117 1.026 0 1.025.437 2.373 1.049 3.193.67.88 1.894 1.582 3.292 1.582 1.253 0 2.127-.322 2.622-1.054.117-.147.262-.352.379-.352.174 0 .262.234.262.352 0 .234-.146.556-.233.732-.99 1.465-2.506 2.256-4.341 2.256-3.175 0-5.244-2.432-5.244-5.83 0-2.344 1.224-4.688 3.525-5.772.758-.352 1.719-.498 2.273-.498 1.048 0 2.184.38 2.942 1.113m3.117-.293c.524-.176 1.631-.586 2.04-.85.32-.205.64-.351.786-.351.116 0 .262.322.262.44 0 .439-.088 1.171-.088 1.435 0 .146.146.088.175.088 1.166-.82 2.622-1.612 3.875-1.612 1.427 0 2.243.645 2.65 1.114.671.761 1.02 2.11 1.02 3.574 0 .586.059 4.922.088 5.332.058.44.35.82 1.078 1.026.553.146.728.322.728.498 0 .205-.408.352-.845.352-.699 0-1.456-.059-2.272-.059-.728 0-1.69.059-2.068.059-.32 0-.729-.088-.729-.352 0-.205.32-.38.7-.498.67-.264.844-.527.903-1.494.058-.967.058-4.512.058-5.362 0-.937-.466-1.816-.787-2.08-.32-.264-1.194-.557-1.835-.557-1.224 0-1.952.41-2.447.85-.117.088-.292.469-.292.703-.029.38 0 6.68.03 7.032.029.41.145.644 1.048.908.292.088.525.293.525.469 0 .205-.32.351-.758.351-.378 0-1.252-.029-1.864-.029-1.078 0-1.981.088-2.476.088-.437 0-.758-.147-.758-.41 0-.205.292-.352.612-.44.961-.293 1.107-.586 1.194-1.64.088-.88.175-3.4.175-6.358 0-.323-.116-.616-.728-1.143-.379-.293-.495-.41-.495-.498 0-.205.29-.498.495-.586m20.39-.585c.058 0 .32.146.35.263 0-.088.087.761.087 1.113 0 .293-.554.352-.758.352h-3.117c-.116 0-.233.146-.233.205-.058.762-.088 4.746-.088 6.211 0 .733.205 1.113.525 1.436.495.44 1.107.556 1.69.556.35 0 .961-.175 1.398-.44.262-.146.35-.175.466-.175 0 0 .146.059.146.322 0 .264-.204.557-.408.762-.787.791-1.835 1.319-3.146 1.319-1.195 0-2.214-.704-2.622-1.348-.32-.498-.379-1.084-.379-1.963 0-1.084.117-5.479.117-6.504 0-.206-.525-.41-1.137-.557-.233-.088-.378-.264-.378-.38 0-.118.058-.235.174-.323 1.107-.85 2.04-1.524 2.477-2.08.35-.381.553-.645.67-.645.145 0 .437.264.437.352v1.406c0 .088.145.234.262.234.64 0 3.35-.117 3.467-.117" fill="#1D1C1B"/></g></svg>