<svg width="280" height="31" xmlns="http://www.w3.org/2000/svg"><g fill="#FFF"><path d="M144.08 12.849c-.159.121-.798.404-1.077.607-.12.08-.2.404-.12.485.4.89 3.074 5.3 4.951 7.484.879 1.051 1.757 1.618 3.075 1.901.28.08.559.324.559.445 0 .162-.28.324-.48.404-.399.203-1.237.243-1.876.243-1.797 0-3.514-.97-4.392-2.103-1.078-1.497-2.755-4.045-4.033-6.149-.44-.647-1.038-1.456-1.238-1.578-.2-.161-1.238-.404-2.156-.404-.2 0-.36.243-.4.364-.04.607.04 4.773.12 6.553.08 1.416.4 1.82 1.917 2.225.559.121.759.404.759.526 0 .364-.6.445-.839.445-1.278 0-2.076-.202-4.153-.202-.678 0-2.355.12-2.715.12-.479 0-.878-.16-.878-.485 0-.242.28-.323.718-.485 1.438-.445 1.957-.688 2.077-1.901.08-1.295.2-4.612.2-6.756 0-4.692-.04-7.645-.2-8.859-.08-1.092-.4-1.254-1.877-1.618-.479-.08-.759-.283-.759-.566 0-.243.24-.404.879-.404h1.917c1.197 0 3.553-.162 5.27-.162 2.077 0 3.993.242 5.35 1.416 1.039.849 1.798 2.467 1.798 4.004.12 1.74-.839 3.439-2.396 4.45zm-1.996-7.605c-.758-.769-2.076-1.254-3.074-1.254-.16 0-1.118.08-1.478.243-.16.08-.399.607-.399.687-.08 1.174-.2 7.322-.08 7.97.08.242.32.444.48.444 1.836 0 3.513-.566 3.912-.809.879-.606 2.077-1.941 2.077-3.964-.04-.85-.48-2.346-1.438-3.317zm18.846 6.876c.68.689 1.119 1.619 1.119 2.792 0 .202-.28.607-.639.607-.36 0-5.79 0-7.267-.04-.08 0-.24.12-.28.242-.08.243-.12.769-.12 1.133 0 1.132.48 2.63 1.159 3.56.758.97 2.076 1.78 3.633 1.78 1.398 0 2.356-.365 2.915-1.174.12-.162.28-.404.4-.404.199 0 .279.242.279.404 0 .243-.16.607-.24.81-1.078 1.617-2.755 2.507-4.791 2.507-3.514 0-5.79-2.71-5.79-6.472 0-2.63 1.358-5.218 3.913-6.432.839-.404 1.917-.566 2.516-.566 1.118.04 2.355.445 3.194 1.254zm-6.747 2.104c-.08.162.08.364.16.364.838.04 2.395.04 3.993 0 .718 0 1.078-.202 1.078-.89 0-.93-.919-1.982-2.077-1.982-1.397 0-2.595 1.012-3.154 2.508zm19.805-2.548c.32.243.479.768.479 1.052 0 .525-.958 1.335-1.078 1.335-.24 0-.759-.243-1.278-.648-1.038-.768-1.597-1.294-2.715-1.294-.44 0-1.358.404-1.877 1.011-.838.971-1.317 2.387-1.317 3.843 0 1.942.758 3.074.918 3.277.759 1.254 2.236 2.103 3.913 2.103 1.118 0 2.036-.404 2.915-.97.32-.243.599-.122.599.04 0 .364-.2.728-.44.97-1.078 1.255-2.954 2.064-4.711 2.064a5.63 5.63 0 0 1-4.792-2.63c-.599-.93-1.038-2.427-1.038-3.802 0-2.427 1.238-4.369 3.155-5.663 1.237-.89 3.314-1.376 4.232-1.376.958-.04 2.436.243 3.035.688zm2.595.364c1.078-.405 2.196-.89 2.596-1.092.399-.243.599-.364.678-.364.16 0 .32.242.32.364 0 .607-.08 1.173-.08 1.78 0 .121.16.202.2.121 1.237-1.173 2.635-2.023 3.633-2.023 1.358 0 1.677.85 1.677 1.133 0 .08-.08.324-.2.485-.399.567-1.157 1.497-1.397 1.619-.08.04-.4-.04-.48-.081-.358-.324-1.197-.769-1.836-.769-.479 0-.958.08-1.238.405-.24.242-.32.485-.32.728 0 .647.12 6.472.16 6.998.08.93.28 1.577.84 1.699.398.08.997.243 1.437.364.519.162.599.404.599.526 0 .202-.28.323-.8.323-.838 0-2.075-.161-3.952-.161-.918 0-1.358.12-2.116.12-.36 0-.68-.12-.68-.404 0-.202.4-.323.64-.404 1.238-.405 1.317-.769 1.357-2.71v-6.068c0-.405 0-.81-.32-1.052-.718-.566-1.117-.809-1.117-.93 0-.162.08-.526.4-.607zm19.566 9.587c.2-.121.439-.607.439-.769l.04-7.483c0-.202-.28-.607-.52-.728-.518-.122-1.117-.364-1.437-.405-.24-.08-.599-.243-.599-.526 0-.121.4-.323.679-.323 1.278 0 2.875-.162 3.634-.364.319-.081.559-.122.758-.122.16 0 .24.364.24.486-.08.97-.24 8.454-.24 10.76 0 .08.08.485.36.485.24 0 1.197-.202 1.597-.202.12 0 .36.607.4.688 0 .08-.24.323-.4.323-.799.081-2.236.445-2.995.648-.559.161-1.158.323-1.238.323-.12 0-.36-.243-.36-.445s.08-.85.12-1.416c0-.121-.12-.242-.199-.202-.878.647-2.116 1.416-2.555 1.618-.56.243-1.238.405-2.157.405-1.237 0-2.236-.526-2.914-1.578-.24-.364-.44-1.092-.44-1.618 0-2.306 0-5.906-.08-7.645-.04-.93-.598-1.052-1.157-1.254-.28-.122-.6-.324-.6-.607 0-.121.16-.324.56-.324.918 0 3.513-.364 3.633-.364.12 0 .24.324.24.486 0 1.415-.08 7.321-.08 8.778 0 .728.36 1.415.759 1.78.758.566 1.357.647 2.076.647.798.08 1.637-.324 2.436-1.052zm7.386 2.548c-.479 0-.838-.161-.838-.404 0-.202.24-.364.759-.485.758-.243 1.197-.607 1.277-.93.08-.446.12-2.468.12-3.722 0-.971.04-4.248-.04-4.652-.04-.243-.4-.526-1.278-1.173-.2-.162-.28-.284-.28-.405 0-.243.32-.485.68-.607 1.238-.242 2.875-.97 3.354-1.092.16 0 .32.283.32.364-.04.486-.2 4.814-.2 6.675 0 1.658.04 2.953.08 4.126.04 1.011.678 1.092 1.477 1.375.519.162.719.364.719.566 0 .243-.4.364-.799.364-.24 0-1.837-.08-2.516-.08-1.038-.04-2.236.08-2.835.08zm4.273-18.284c0 .93-.918 1.659-1.597 1.659-.24 0-.759-.122-1.078-.405-.24-.283-.52-.647-.52-1.254 0-.323.12-.89.4-1.213.36-.324.878-.486 1.357-.486.919 0 1.438 1.052 1.438 1.7zm10.462 5.259c.08 0 .359.162.399.283 0-.08.08.85.08 1.254 0 .324-.6.405-.839.405h-3.434c-.12 0-.24.161-.24.242-.08.85-.08 5.3-.08 6.918 0 .809.24 1.254.6 1.618.559.485 1.237.606 1.876.606.4 0 1.078-.202 1.557-.485.28-.162.4-.202.52-.202 0 0 .16.08.16.364 0 .283-.24.607-.44.85-.878.89-2.036 1.456-3.474 1.456-1.317 0-2.435-.769-2.915-1.497-.359-.566-.399-1.214-.399-2.184 0-1.214.12-6.109.12-7.241 0-.243-.6-.445-1.238-.607-.24-.081-.4-.283-.4-.405 0-.121.08-.242.2-.364 1.238-.93 2.236-1.699 2.756-2.305.399-.405.598-.729.758-.729.16 0 .48.284.48.405v1.578c0 .08.16.242.279.242.559-.04 3.554-.202 3.673-.202zm2.994.93c.679-.242 2.236-1.092 2.675-1.375.12-.08.2-.121.24-.08.12 0 .36.242.36.323 0 .445-.12 1.335-.12 1.658 0 .081.08.283.239.203.918-.77 2.755-1.942 4.272-1.942 1.158 0 1.917.243 2.516.647.559.445.878.93 1.038 1.133.04.121.12.242.24.121.599-.445 1.397-.97 2.236-1.416.758-.364 1.557-.526 2.076-.526 1.198 0 2.076.405 2.755 1.093.759.809 1.038 1.982 1.078 3.195.12 1.537.08 4.126.08 6.675 0 .607.24 1.173 1.318 1.456.4.121.599.283.599.485 0 .243-.28.365-.919.365-.638 0-1.557-.081-2.355-.081-.999 0-1.598.08-2.316.08-.6 0-.799-.202-.799-.404s.36-.364.719-.445c.998-.283 1.118-.647 1.118-1.86 0-.77-.04-4.45-.08-5.543 0-.97-.12-1.496-.48-2.103-.398-.647-1.077-1.133-2.355-1.133-1.398 0-1.957.607-2.396.93-.12.082-.32.729-.32.971 0 .243-.04 6.351.04 7.08.08 1.051.24 1.375 1.358 1.618.36.08.68.283.68.485 0 .243-.28.405-.8.405-.718 0-1.756-.081-2.515-.081-.679 0-1.717.08-2.396.08-.718 0-.838-.242-.838-.404 0-.08.12-.324.639-.445 1.038-.243 1.197-.607 1.197-1.78l.04-6.23c0-1.01-.24-1.456-.399-1.739-.4-.566-1.238-.97-2.356-.97-.998 0-1.717.363-2.435.93-.2.162-.32.445-.32.809-.08 1.092-.08 4.975-.08 7.443 0 .607.16 1.092 1.198 1.416.6.202.839.323.839.606 0 .243-.44.365-.879.365-.12 0-1.477-.081-2.715-.081-1.078 0-1.757.08-2.436.08-.479 0-.838-.12-.838-.364 0-.161.24-.404.798-.525 1.079-.243 1.198-.729 1.318-2.104.08-.93.12-4.045.12-6.432 0-.202.04-.606-.24-.85-.878-.808-1.118-1.091-1.118-1.213.08-.121.36-.364.719-.526zm32.183.04c.679.689 1.118 1.619 1.118 2.792 0 .202-.28.607-.639.607-.36 0-5.79 0-7.267-.04-.08 0-.24.12-.28.242-.08.243-.12.769-.12 1.133 0 1.132.48 2.63 1.159 3.56.758.97 2.076 1.78 3.633 1.78 1.398 0 2.356-.365 2.915-1.174.12-.162.28-.404.4-.404.2 0 .279.242.279.404 0 .243-.16.607-.24.81-1.078 1.617-2.755 2.507-4.791 2.507-3.514 0-5.79-2.71-5.79-6.472 0-2.63 1.358-5.218 3.913-6.432.839-.404 1.917-.566 2.516-.566 1.078.04 2.356.445 3.194 1.254zm-6.788 2.104c-.08.162.08.364.16.364.838.04 2.396.04 3.993 0 .718 0 1.078-.202 1.078-.89 0-.93-.919-1.982-2.077-1.982-1.357 0-2.595 1.012-3.154 2.508zm10.222-2.427c.599-.202 1.797-.647 2.236-.93.36-.243.719-.405.878-.405.12 0 .28.364.28.486 0 .485-.08 1.294-.08 1.618 0 .162.16.08.2.08 1.277-.93 2.915-1.78 4.272-1.78 1.597 0 2.476.729 2.915 1.255.759.85 1.118 2.346 1.118 3.964 0 .647.08 5.461.08 5.947.08.485.4.93 1.198 1.132.599.162.798.364.798.566 0 .243-.439.405-.918.405-.759 0-1.597-.08-2.516-.08-.798 0-1.876.08-2.276.08-.359 0-.798-.08-.798-.405 0-.242.36-.404.759-.566.758-.283.918-.607.998-1.658.08-1.093.08-5.016.08-5.987 0-1.052-.52-2.023-.879-2.306-.36-.283-1.317-.607-2.036-.607-1.358 0-2.156.445-2.715.93-.12.082-.32.527-.32.77-.04.404 0 7.442.04 7.847.04.445.16.728 1.158 1.011.32.081.599.324.599.526 0 .243-.36.405-.839.405-.399 0-1.397-.04-2.076-.04-1.198 0-2.196.08-2.755.08-.48 0-.838-.162-.838-.445 0-.243.319-.404.678-.485 1.078-.324 1.238-.648 1.318-1.82.08-.972.2-3.803.2-7.08 0-.364-.12-.687-.799-1.254-.4-.323-.559-.445-.559-.566.04-.243.36-.566.599-.688zm22.52-.647c.08 0 .36.162.4.283 0-.08.08.85.08 1.254 0 .324-.6.405-.84.405h-3.433c-.12 0-.24.161-.24.242-.08.85-.08 5.3-.08 6.918 0 .809.24 1.254.6 1.618.558.485 1.237.606 1.876.606.4 0 1.078-.202 1.557-.485.28-.162.4-.202.52-.202 0 0 .159.08.159.364 0 .283-.24.607-.44.85-.878.89-2.036 1.456-3.473 1.456-1.318 0-2.436-.769-2.915-1.497-.36-.566-.4-1.214-.4-2.184 0-1.214.12-6.109.12-7.241 0-.243-.598-.445-1.237-.607-.24-.081-.4-.283-.4-.405 0-.121.08-.242.2-.364 1.238-.93 2.236-1.699 2.755-2.305.4-.405.6-.729.759-.729.16 0 .48.284.48.405v1.578c0 .08.159.242.279.242.559-.04 3.553-.202 3.673-.202zM28.177 8.936c-3.26 0-4.67 2.527-4.67 2.527V9.507h-5.635V30.78h5.636v-7.906s1.328 1.834 4.065 1.834c5.153 0 8.172-3.709 8.172-8.11 0-5.013-3.543-7.662-7.568-7.662zm-1.248 11.33c-2.214 0-3.381-1.386-3.381-3.383 0-2.241 1.409-3.423 3.462-3.423 1.972 0 3.502 1.548 3.502 3.382-.04 1.997-1.61 3.424-3.583 3.424zM37.73 9.929h5.957v14.894H37.73zm2.483-2.979a3.48 3.48 0 0 0 3.475-3.475A3.455 3.455 0 0 0 40.213 0a3.48 3.48 0 0 0-3.475 3.475c0 1.856 1.58 3.475 3.475 3.475zm20.151 4.039c-1.628-1.19-3.54-2.053-6.511-2.053-4.232 0-8.18 3.038-8.18 7.964 0 4.844 3.704 7.923 7.977 7.923 3.214 0 5.33-1.068 6.917-2.545l-2.116-3.243c-.814.574-2.116 1.272-3.58 1.272-2.117 0-3.54-1.19-3.54-3.407s1.545-3.366 3.54-3.366c1.18 0 2.4.575 3.092 1.067l2.4-3.612z"/><path d="M74.468 16.448c0-4.269-2.144-7.512-6.9-7.512-4.796 0-7.994 3.366-7.994 7.759 0 5.377 3.47 8.128 8.032 8.128 3.08 0 5.458-1.273 6.511-2.545l-1.871-3.12c-.702.533-1.95 1.272-3.626 1.272-1.794 0-3.002-.944-3.431-2.34h9.084c.078-.164.195-1.19.195-1.642zm-9.357-1.19c.234-1.519.897-2.258 2.183-2.258 1.326 0 2.028.985 2.028 2.258H65.11zM100.52 3.14h5.512v21.4h-5.512zm22.325 0h-14.726v5.097h4.607V24.54h5.512V8.237h4.607zm-107.551.738c-1.225-.749-4.229-1.892-7.311-1.892-4.07 0-6.995 2.444-6.995 6.15 0 3.076 1.739 4.693 4.782 6.586 2.568 1.656 4.663 2.208 4.663 3.036 0 .749-.553 1.104-1.778 1.104-2.253 0-5.059-1.34-6.363-2.524L0 21.385c.87.67 3.912 2.445 7.864 2.445 5.098 0 8.023-2.681 8.023-6.546 0-3.193-3.122-4.928-5.533-6.19-2.924-1.577-4.07-2.247-4.07-3.075 0-.71.592-1.026 1.54-1.026 1.977 0 4.23 1.183 5.336 1.932l2.134-5.047zm82.478 11.135L82.912.596A2.088 2.088 0 0 0 81.48 0c-1.064 0-2.046.794-2.046 1.986V22.36c0 1.033.9 1.788 1.842 1.788.368 0 .777-.12 1.105-.398l4.748-4.488 3.234 7.547 3.111-1.232-3.193-7.546 6.468-.04c1.433-.158 2.088-1.946 1.024-2.978zm-.492 1.509a.844.844 0 0 1-.655.556l-8.187.04h-.368l-.287.278-5.976 5.68a.803.803 0 0 1-.491.158c-.41 0-.86-.318-.86-.834V1.986c0-.636.532-1.033 1.105-1.033.205 0 .491.04.737.318l14.86 14.417c.286.318.163.715.122.834z"/></g></svg>