<svg width="90" height="64" xmlns="http://www.w3.org/2000/svg"><g fill="none" fill-rule="evenodd"><path d="M35.15 15.912S15.494 1.9 1.619 1.187v14.25l32.606.713" fill="#FFF"/><path d="M.462 15.437V1.187c0-.237.232-.712.463-.95C.925 0 1.388 0 1.619 0c14.106.712 33.3 14.487 34.225 14.962.462.475.693 1.188.231 1.663-.231.475-.925.712-1.387.475-.232 0-.232.237-.463.237l-32.606-.712c-.694 0-1.157-.475-1.157-1.188zM2.775 2.612V14.25l28.444.475c-6.013-3.8-18.5-11.163-28.444-12.113z" fill="#000" fill-rule="nonzero"/><path d="M31.912 45.633S15.494 61.967 1.62 62.667V46.333l32.606-.7" fill="#FFF"/><path d="M.231 46.333c0-.7.463-1.166 1.156-1.166l30.063-.7h2.544c.693 0 1.156.466 1.156 1.166s-.463 1.167-1.156 1.167h-1.619c-2.544 2.567-17.344 16.333-30.756 17.033-.232 0-.694 0-.925-.233-.232-.233-.463-.467-.463-.933V46.333zm28.444.7L2.544 47.5v14c10.175-1.167 21.506-10.267 26.131-14.467z" fill="#000" fill-rule="nonzero"/><path d="M88.846 31.194S63.231 13.387 1.616 15.469V47.15c-.231 0 51.23 3.469 87.23-15.956z" fill="#FFF"/><path d="M.23 47.15V15.469c0-.694.462-1.157 1.155-1.157 61.384-2.08 87 15.263 88.153 15.957.231.231.462.694.462 1.156 0 .463-.23.694-.692.925C53.538 51.775 1.846 48.537 1.385 48.537.692 48.307.23 47.844.23 47.15zm2.54-30.525v29.6c7.384.231 51.46 1.619 83.768-15.031-6.692-3.7-32.769-16.188-83.769-14.569z" fill="#000" fill-rule="nonzero"/><g transform="rotate(90 2.5 25.5)"><circle fill="#000" cx="7.543" cy="7.314" r="6.629"/><g transform="translate(2.286 2.286)"><circle fill="#FFF" cx="5.257" cy="5.029" r="3.657"/><path d="M5.257 9.829c-2.743 0-4.8-2.286-4.8-4.8 0-2.743 2.286-4.8 4.8-4.8C6.63.229 7.771.686 8.686 1.6c.914.914 1.371 2.057 1.371 3.429 0 2.742-2.057 4.8-4.8 4.8zm0-7.315A2.537 2.537 0 0 0 2.743 5.03a2.537 2.537 0 0 0 2.514 2.514v1.143-1.143A2.537 2.537 0 0 0 7.771 5.03c0-.686-.228-1.372-.685-1.829-.457-.457-1.143-.686-1.829-.686z" fill="#000" fill-rule="nonzero"/></g></g><g transform="rotate(90 13.5 36.5)"><circle fill="#000" cx="7.543" cy="7.229" r="6.629"/><g transform="translate(2.286 2.286)"><circle fill="#FFF" cx="5.257" cy="4.714" r="3.657"/><path d="M5.257 9.743c-1.371 0-2.514-.457-3.428-1.372C.914 7.457.457 6.314.457 4.943c0-2.743 2.286-4.8 4.8-4.8C6.63.143 7.771.6 8.686 1.514c.914.915 1.371 2.057 1.371 3.429 0 2.514-2.057 4.8-4.8 4.8zm0-7.543a2.537 2.537 0 0 0-2.514 2.514c0 .686.228 1.372.686 1.829.457.457 1.142.686 1.828.686V8.37 7.23a2.537 2.537 0 0 0 2.514-2.515c0-.685-.228-1.371-.685-1.828-.457-.229-1.143-.686-1.829-.686z" fill="#000" fill-rule="nonzero"/></g></g><path d="M76.514 24.829v11.428s7.315-2.971 12.343-5.486c0-.228-7.314-4.114-12.343-5.942z" fill="#FFF"/><path d="M75.371 36.257V24.83c0-.458.229-.686.458-.915.228-.228.685-.228 1.142-.228C82 25.514 89.086 29.4 89.314 29.629c.457.228.686.457.686.914s-.229.914-.686.914C84.286 34.2 77.2 36.943 76.971 37.171c-.457.229-.685 0-1.142-.228-.229 0-.458-.457-.458-.686zm2.286-9.828v8c2.057-.915 5.486-2.286 8.686-3.886-2.057-1.143-5.714-2.743-8.686-4.114z" fill="#000" fill-rule="nonzero"/><path fill="#000" d="M73 24v14l3-1.148V25.377z"/><path d="M70.833 35.025s-9.566 3.15-17.966 4.05" fill="#FFF"/><path d="M51.7 39.3c0-.675.467-1.125.933-1.125 8.167-.9 17.5-4.05 17.734-4.05.7-.225 1.4.225 1.4.675.233.675-.234 1.35-.7 1.35-.467.225-9.8 3.15-18.2 4.05-.467.225-1.167-.225-1.167-.9z" fill="#000"/><path d="M46.875 39.8c-2.025.233-3.825.7-5.85.933" fill="#FFF"/><path d="M39.9 40.967c0-.467.45-1.167.9-1.167l5.85-.933c.675 0 1.125.233 1.35.933 0 .7-.225 1.167-.9 1.4l-5.85.933c-.675 0-1.125-.466-1.35-1.166z" fill="#000"/><path fill="#FFF" d="M9.38 15.473l-.04 32.144-7.68-.009.04-32.144z"/><path d="M.24 47.381V15.237c0-.693.48-1.156 1.2-1.156h7.68c.24 0 .72.231.96.231.24.232.24.463.24.925v32.144c0 .694-.48 1.156-1.2 1.156H1.44c-.24 0-.72-.23-.96-.23 0-.232-.24-.695-.24-.926zm2.64-30.756v29.6h5.28v-29.6H2.88z" fill="#000" fill-rule="nonzero"/></g></svg>