<svg xmlns="http://www.w3.org/2000/svg" xmlns:xlink="http://www.w3.org/1999/xlink" width="482" height="482"><defs><path id="a" d="M0 0h484v484H0z"/><path id="c" d="M.01.448h124.743v70.484H.01z"/><path id="e" d="M0 .43h43.817v110.237H0z"/></defs><g fill="none" fill-rule="evenodd" transform="translate(-1 -1)"><mask id="b" fill="#fff"><use xlink:href="#a"/></mask><path stroke="#000" stroke-width="7" d="M472.816 295.553c-29.577 127.477-156.893 206.84-284.37 177.263C60.97 443.239-18.392 315.923 11.185 188.446 40.761 60.97 168.077-18.393 295.554 11.185c127.476 29.577 206.839 156.893 177.262 284.37" mask="url(#b)"/><path fill="#000" d="M336.32 96.982c-7.05-8.122-15.072-15.372-24.136-21.172-8.097-5.182-14.97-7.992-24.502-11.047-8.733-2.8-20.158-3.204-24.404 5.92-1.415 3.037-1.573 6.512-.875 9.79 3.702 17.369 21.805 25.205 35.014 36.202 15.716 13.085 25.62 32.893 26.648 53.3.235 4.66.002 9.466-1.838 13.755-1.326 3.092-3.424 5.776-5.362 8.527-6.204 8.807-11.056 19.15-10.562 29.906.537 11.707 7.464 22.441 16.548 29.863 9.083 7.42 20.175 11.937 31.314 15.63 4.042 1.34 8.232 2.6 12.48 2.299 6.352-.45 11.91-4.3 16.855-8.305 6.534-5.29 12.788-11.29 16.377-18.886 4.557-9.643 4.355-20.773 6.847-31.14 2.49-10.369 9.514-21.256 20.16-22.073 9.899-.76 17.948 7.306 24.981 14.303 7.032 6.998 17.764 14.45 27.135 11.177 0 0-4.508-69.181-49.117-121.477-46.353-54.34-1.809-2.306-1.809-2.306s-32.042-10.764-54.01 11.208c-15.348 15.349-30.19 3.227-37.744-5.474" mask="url(#b)"/><g mask="url(#b)"><g transform="translate(168 -1)"><mask id="d" fill="#fff"><use xlink:href="#c"/></mask><path fill="#000" d="M14.518 14.007c-3.233 1.014-5.025 1.858-5.025 1.858s9.945 19.323 11.733 24.88c2.816 8.753 7.684 17.38 15.721 21.984 8.037 4.603 19.692 3.781 25.151-3.65 5.128-6.981 3.821-17.646 10.238-23.49 9.144-8.33 26.253-.266 35.254-8.745 4.588-4.322 7.475-9.948 7.68-16.212 0 0-49.046-12.844-100.752 3.375" mask="url(#d)"/></g></g><path fill="#000" d="M290.751 297.865c-1.865-4.655-2.871-9.598-4.284-14.407-4.011-13.647-12.83-27.424-26.686-30.836-8.365-2.061-17.438.1-24.688 4.738-7.251 4.637-12.806 11.567-16.915 19.112-2.045 3.756-3.789 7.726-6.507 11.03-5.502 6.688-14.397 9.818-23.055 10.427-9.083.64-19.07-1.637-24.736-8.738-5.695-7.138-5.642-17.063-7.62-25.966-2.81-12.653-10.609-24.444-22.009-30.686-11.399-6.244-26.38-6.244-37.002 1.235-4.646 3.271-8.316 7.758-11.323 12.57-15.708 25.136-6.01 60.39 11.158 84.56 17.168 24.171 39.972 37.298 69.656 38.823 10.34.53 21.006-.392 30.356-4.822 7.723-3.659 14.228-9.55 22.02-13.061 12.482-5.623 27.848-4.326 39.203 3.308 5.608 3.771 10.19 8.893 15.744 12.744 8.34 5.784 18.993 8.467 28.945 6.425 9.953-2.042 18.943-9.063 22.505-18.543 3.561-9.48 4.738-19.424-6.503-27.81 0 0-22.843-16.586-28.259-30.103M249.939 478.76c.95-10.718-9.316-19.511-19.817-22.178-10.5-2.667-21.59-1.217-32.365-2.39a66.621 66.621 0 0 1-22.872-6.797c-3.815-1.936-7.516-4.31-10.136-7.674-2.819-3.621-4.186-8.112-6.076-12.286-5.494-12.131-15.926-21.974-28.412-26.807-5.133-1.987-10.712-3.158-16.168-2.39-9.536 1.34-17.37 8.414-22.535 16.483A57.851 57.851 0 0 0 87 423.373s29.206 26.956 75.524 42.084c50.36 16.447 87.415 13.302 87.415 13.302" mask="url(#b)"/><g mask="url(#b)"><g transform="translate(5 131)"><mask id="f" fill="#fff"><use xlink:href="#e"/></mask><path fill="#000" d="M0 107.017c-.136 9.137 18.597-.996 25.125-7.367 6.528-6.37 9.898-15.651 9.81-24.788-.07-7.226-2.148-14.536-.555-21.583 1.434-6.342 5.677-11.668 7.878-17.785C46.863 22.692 40.92 6.954 29.016.429 29.016.43 1 40.38.001 107.017" mask="url(#f)"/></g></g></g></svg>