<svg width="36" height="38" xmlns="http://www.w3.org/2000/svg"><path d="M22.652 21.131c.102.099.308.099.41.197.103-.197.103-.394.103-.59h-.616c0 .196 0 .295.103.393zM16.389 6.258c.72.197 1.746.394 2.464.394-1.334-1.674-3.387-2.068-5.338-1.576 1.232.197 2.156.69 2.874 1.182zm3.286.197c.307-.098.513-.394.718-.69-.41-.295-.924-.492-1.642-.689l-.206.197c.514.394.822.788 1.13 1.182zM20.7 5.273c.205-.394.308-.788.308-.788s0 .394-.308.788c.513.296.821.591 1.027.887.308-.296.924-.985.924-1.773 0-1.084-.822-1.182-.822-1.182-.102 0-.102-.099-.102-.099 0-.098.102-.098.102-.098s1.13.098 1.027 1.379c0 .886-.719 1.674-1.027 1.97.103.098.206.197.206.295l1.437-.985c.924-1.182.924-2.364.924-2.364 0-.098.102-.098.102-.098.103 0 .103.098.103.098s0 .985-.513 1.97l4.825-3.349-6.468 5.516c.206.493.206.788.103 1.182h.103c1.54-.985 3.285-1.674 3.285-1.674s-1.232.985-2.567 1.871c.308.099.616.296.924.394.308-.197.924-.492 1.54-.69.513-.492.821-.689.821-.689h.103v.099s-.205.098-.513.492c.205 0 .308-.098.513-.098.41 0 .616 0 .821.098.205-.197.308-.394.41-.59.514-1.084-.307-.592-.307-.592h-.103v-.098s1.437-.788.616.886a5.593 5.593 0 0 1-.41.69c.41.295.513.69.513.69 0 .098 0 .098-.103.098s-.103 0-.103-.099c0 0 0-.394-.41-.59-.514.59-1.232 1.083-1.745 1.28.82.59 1.54 1.182 2.155 2.068.822-.69 1.643-.886 1.848.295v.099c.103-.099.103-.197.206-.296.205-.196.308-.393.513-.492v-.098c0-.099.102-.099.102-.099s.103 0 .103.099c.616-.197 1.027.689 1.027.689 0 .098 0 .098-.103.098s-.103 0-.103-.098c0 0-.308-.788-.924-.492a5.705 5.705 0 0 1-.718 1.378c.103.69 0 1.773-.308 2.66h.103c-.103.098-.103.197-.206.295-.102.296-.308.591-.616.887-1.129 1.28-2.36 1.576-3.08 1.674a2.3 2.3 0 0 1 0 1.182c.72 0 1.54 0 2.259-.098 1.232 0 2.361-.099 3.285-.197.616-.099.924-.197 1.027-.296-.206 0-1.027 0-.411-.394.308-.197.513-.197.719-.098l.308.295c0 .099 0 .296-.103.394-.205.197-.616.394-1.437.493-.924.098-2.053.197-3.285.197-.822 0-1.643 0-2.361.098-.103.493-.411.887-.616 1.182 1.232.296 2.566.493 4.106.493 4.312 0 6.365-.69 6.365-.69s-2.567 1.28-5.75 1.38c-.102.295-.41.787-1.334.787-1.026 0-2.36-.69-3.08-1.083.617.886.72 2.068.72 2.068 0 .098 0 .098-.103.098s-.103 0-.103-.098c0 0-.103-1.576-1.027-2.364h-.205c-.41.296-.719.493-1.027.69l3.08 3.447-.308.197-3.08-3.349-.205.197c-.205.394-.616.985-1.13 1.576.412.098 1.13.295 1.643.985.924 1.083-.205 2.068-.308 2.068l-.102-.098s.924-.887.102-1.872c-.615-.69-1.334-.886-1.642-.886-.205.295-.513.492-.924.788.308.394.513.788.719 1.182.102.295.205.69.205 1.083 0 1.28-1.232 1.675-2.464 1.675-.308 0-.718-.099-1.026-.197.205.69.308 1.576.205 2.66-.308 3.545-3.49 3.25-3.49 3.25s2.977-.197 3.182-3.35c.103-1.083 0-1.97-.205-2.659-.514-.197-1.027-.394-1.54-.69a1.407 1.407 0 0 1-1.13.592c-.102 0-.307 0-.41-.099-.308.099-.616 0-.924-.197-.308-.197-.513-.394-.616-.59-.513.689-1.026 1.477-1.54 2.166-.102 1.576-.205 3.152-.513 4.334-.41 1.773-.719 3.053-1.745 2.66.616.098 1.026-.986 1.334-2.463.206-1.182.411-2.56.514-4.137-.822.985-1.54 1.97-2.361 2.857-.616.689-1.335 1.379-1.951 1.576 1.437-1.28 2.874-3.054 4.312-4.925 0-.69.102-1.478.102-2.167-1.437 1.773-2.874 3.546-4.209 4.826-5.133 4.53-1.642-1.477-1.334-1.182 0 0-2.156 4.038 1.129.788 1.437-1.379 2.977-3.25 4.517-5.122v-.197c-.308-.098-.719-.197-1.027-.295-.102.197-.308.295-.41.492-.308 1.675-1.437 2.857-1.437 2.857 0 .098-.103.098-.206 0-.102 0-.102-.099 0-.197 0 0 .924-.985 1.335-2.364l-.41.394c-1.335 1.773-1.849 1.182-2.054.985v-.197h.205s.308.394 1.745-.985c.206-.197.411-.493.72-.69 0-.197.102-.394.102-.59l-.103-.1c-.513.296-1.13.493-2.053.395h-.308a1.883 1.883 0 0 1-1.027.69c-.41.196-.924.196-1.437.098a2.486 2.486 0 0 1-1.334-.69c-.411-.394-.822-1.083-.924-1.871-.206-1.674.616-2.561 1.437-3.053-.205-.394-.205-.591-.308-.69-.103-.098-.308-.197-.41-.295h-.103v-.099c-.103-.098-.206-.197-.41-.295-.72-.69-1.233-1.38-1.438-2.069-.205-1.083.308-1.97 1.026-2.56.206-.198.411-.395.616-.493.103-.493.206-.985.411-1.38-.103-.59-.103-1.181-.103-1.772 0-.296 0-.591.103-.788-.205.099-.513.099-.719.295-.308.099-.513.296-.718.493-.41.295-.616.69-.616.985v.197c.103 0 .205 0 .41.098.616.197 1.13.493 1.232.887.103.295 0 .492 0 .59-.102.1-.205.198-.308.296-.102 0-.205.099-.41 0-.206 0-.514-.197-.719-.394-.308 0-1.437-.098-1.437-.886a.54.54 0 0 1 .308-.493c.103-.098.308-.098.513-.098v-.197c.103-.394.308-.887.821-1.28a2.25 2.25 0 0 1 .822-.493c.308-.197.718-.197 1.026-.295.206-.985.616-1.97 1.335-2.758-.513-.493-1.232-.985-2.259-1.675 1.335.099 2.259.69 2.875 1.084a6.185 6.185 0 0 1 1.54-.887c.205-.098.308-.197.513-.295-.41-.591-1.335-1.576-3.388-2.561 2.567.59 3.696 1.674 4.107 2.364l.102-.099c.103-.098.206-.295.41-.394-.41-.69-1.334-1.576-2.976-2.66 1.95.493 2.977 1.38 3.593 2.168 1.848-1.576 4.209-2.463 6.57-2.364 1.129 0 2.156.197 2.874.394.616-.788 1.437-2.069 1.13-2.758a1.267 1.267 0 0 0-1.13-.69c-.41 0-.924.099-1.437.394-.41.197-.821.493-1.232.788-.41.394-.513.69-.41.887 0 .098.102.197.205.295.102.099.205.099.308.099 1.129.197.616-1.182.308-.69 0 .099-.103.099-.206.099-.923-.296 1.746-.985.822.394-.206.295-.616.492-.924.394-.206 0-.308-.099-.41-.197a1.358 1.358 0 0 1-.309-.394c-.102-.296 0-.69.513-1.084.411-.394.822-.59 1.232-.886.514-.197 1.027-.394 1.54-.394.513 0 .924.098 1.232.394-.513.69-.41.788-.41.886.41.788-.514 2.167-1.232 3.054.718.197 1.231.492 1.642.69zm-.205.591c-.206.296-.41.591-.719.788.103.099.103.197.103.296.308.098.616.295.821.394.103.098.205.098.308.197l.513-.493c-.102-.197-.41-.69-1.026-1.182zm-2.567.887c-.41-.099-.82-.099-1.129-.197l.41.394s.411-.197.72-.197zm1.746 18.91h.205c0-.098-.103-.098-.103-.196l-.102.098v.099zm.41 0c0-.098-.103-.196-.205-.295.102.099.102.197.205.296zm.205-.098c.206-.098.514-.197.72-.295.102-.099.307-.197.41-.296.102-.197.205-.295.41-.492-.102 0-.205.098-.308.098h-.102c-.308.296-.719.493-1.232.591 0 .197 0 .296.102.394zm-.205.591v.099-.099zm-.308 0c-.616.099-1.232 0-1.745-.098-.513 0-.924 0-1.335-.099-.41.099-.82.197-1.334.296.616.59 2.053 1.674 4.106.394.103-.099.308-.197.41-.296 0-.098 0-.098-.102-.197zM3.25 20.934v-.098c.103-.197.103-.296.206-.394-.103-.394-.308-.887-.41-1.38-.104-.393-.104-.787-.206-1.181-.103.69-.206 1.773.102 2.66.206.196.308.295.308.393zm.514.099c-.103.197-.103.394 0 .492.102.197.308.296.513.493-.103-.197-.103-.296-.205-.493v-.197c-.206-.098-.308-.197-.308-.295zM10.23 9.509l.103.098c.308.099.616-.098.616-.098s0 .394-.308.394h-.41c0 .098 0 .197.102.295h.718c0-.295.103-.492.103-.788-.205-.098-.513-.197-.719-.295-.102 0-.205.197-.205.394zm-1.745.394s-.103-.493-.205-1.38c-.719.789-.719 1.774-.719 2.365.103 0 .103-.099.205-.099.308-.197.719-.295 1.13-.394-.206-.394-.308-.886-.103-1.674-.103.098-.103.197-.205.295-.206.296-.103.887-.103.887zm1.848-1.872c.102-.197.308-.394.513-.59-.513 0-.821.098-1.335.295.103 0 .206.098.308.098.206.099.411.099.514.197zm.924-.197c-.206.197-.308.296-.411.493.103.098.308.197.41.295v-.788zm7.904-.59h-.513c.205.098.41.196.616.196 0-.098 0-.098-.103-.197zm-.205 1.87v-.886c-.308 0-.616-.098-1.027-.098.206.492.308.886.308 1.28a.95.95 0 0 0 .719-.295zm1.848 15.563h-.206c-.102 0-.102.098-.102.098.102 0 .205 0 .308-.098zm1.334-1.477c.206-.099.308-.296.41-.394.104-.296.104-.591.206-.788h-.102c-.103.197-.206.492-.514.788v.394zm-6.056 4.727c0 .197-.103.394-.206.591.103.099.206.197.41.197.103-.295.103-.69.103-.886-.102.098-.205.098-.307.098zm-.308.985c-.103.197-.206.493-.411.69.41 0 .616-.197.821-.394-.205-.197-.308-.296-.41-.296zm-2.67-.197c-.102-.098-.205-.295-.205-.394-.205 0-.513-.098-.821-.098l-.205.295c0 .69 0 1.38-.103 2.069a66.51 66.51 0 0 1 1.334-1.872zm-.513-.788c0-.098-.102-.098-.102-.197h-.206l-.102.099a.803.803 0 0 0 .41.098zm-2.669-1.083l-.308.295c.103-.098.308-.197.308-.295zm-1.232-.296c.206 0 .41-.098.616-.295.103-.099.205-.197.205-.296-.513-.197-.923-.492-1.334-.788-.205.197-.308.394-.513.591.41.296.718.591 1.026.788zm-1.642 0l-.103.099c-.205.295-.41.492-.616.69.41.196.821.295 1.335.295.616.098 1.129-.099 1.54-.197 0 0-.103 0-.103-.099-.924-.197-1.232-.295-2.053-.788zm-4.723-6.993c0-.69.103-1.379.206-1.97-.206.394-.308.985-.206 1.675v.295zM14.542 6.357c-.924-.099-1.643.295-2.156.69.103 0 .103.098.205.098.41.197.719.394.924.59.616-.393 1.232-.59 2.053-.787-.308-.197-.718-.394-1.026-.591zm-2.567.295a7.933 7.933 0 0 1 1.335-.69c-.41-.098-.924-.098-1.437-.098 0 .296.102.493.102.788zm15.09 5.614c-.204 0-.41 0-.615.197.205.296.308.591.41.985l.616-.59c-.205-.198-.308-.395-.41-.592zm-1.231.788c-.308.591-.41 1.38-.513 1.773v.493c.205-.296.513-.69.82-1.084 0-.492-.102-.788-.307-1.182zm-.719.493c.103-.394.206-.69.411-.985-.719-.985-1.848-1.576-2.874-1.97 0 .099.102.197.102.296.821.492 1.95 1.378 2.361 2.659zm1.027-1.477c.205-.099.308-.197.513-.197-1.232-1.28-3.08-2.069-4.106-2.463 0 .099 0 .197-.103.296 1.13.394 2.67 1.182 3.696 2.364zm1.95 4.924a2.081 2.081 0 0 0 1.232-.886c.308-.788.308-1.478.308-2.167-.205.295-.41.59-.718.788l-.103.197c.103.886-.205 1.576-.719 2.068zm.719.099c-.513.295-.924.295-1.232.295-.513.296-1.232.591-1.95.69 0 0 0 .098.102.098.514.099 1.335.197 2.156-.295.205-.099.513-.296.924-.788-.103.098-.103.098 0 0zm-4.62 2.66c.308-.1.719-.395.924-.887-.102-.197-.102-.296-.205-.394l-.103.098c-.205.296-.41.788-.616 1.182zm.924-2.66c0-.197-.102-.296-.102-.493-.103.197-.206.394-.308.493 0 0 .102.098.205.098.103.099.103 0 .205-.098zm.103-.887c.103.197.103.296.205.493.103-.197.308-.394.41-.591-.204.098-.41.098-.615.098zm-.103 3.152c-.308.493-.82.69-1.232.788v.099h1.13c.102-.296.205-.591.102-.887zm1.746-.788c-.411.099-.822 0-1.13 0 0 .099.103.197.103.296.205-.099.616-.197 1.027-.296zm-6.468 8.077c.103.098.103.098.103.197 0 .098 0 .098-.103 0 0 0-.103 0-.103-.099a1.413 1.413 0 0 1-.41.296c-.924.492-1.745.788-2.464.886.205.296.616.985.821 1.872.41.098.719.197 1.027.197 1.13 0 2.258-.099 2.258-1.38 0-.393-.102-.689-.205-.984-.103-.394-.41-.788-.616-1.182-.103 0-.205.098-.308.197zm-3.49 1.28h-.206c0 .296 0 .69-.205 1.084.41.197.821.492 1.335.59a7.972 7.972 0 0 0-.924-1.674zm-5.03-.098l-.103-.099.103.099zm1.231-1.084c.308.197.514.296.822.296.205 0 .41-.197.513-.296l.205-.295c-.41.098-.82.197-1.129.197h-.308l-.103.098zm-4.003-2.462c.205.197.41.394.718.591.206-.197.514-.493.719-.985l-.513-.492c-.308.197-.616.492-.924.886zm1.54.985c.308.098.616 0 .821-.197v-1.182l-.205.098c-.103.591-.411.985-.616 1.28zm1.129-.493c.205-.197.308-.394.41-.492l-.41-.591v1.083zm.616.887c.205 0 .616.098 1.026.197.206-.296.411-.493.616-.788a3.127 3.127 0 0 1-.82-.394c-.206.197-.309.394-.514.59a1.367 1.367 0 0 0-.308.395zm1.334.197h.719c.103 0 .308-.099.41-.099.103-.098.309-.098.411-.197l.103-.098c-.103-.099-.205-.099-.308-.099-.103 0-.308-.098-.719-.197-.205.197-.41.493-.616.69zM9.511 11.577l.103 1.083-.205.197c-.205 0-.308-.098-.513-.098-.206-.099-.411-.099-.616-.099.205-.295.41-.492.82-.689.206-.295.309-.295.411-.394zm5.03-2.265c.411 0 1.027-.099 1.848-.099h.72c-.104-.295-.309-.59-.412-.886-1.026.098-1.745.295-2.258.59 0 0 .103.198.103.395zm2.67 0h-.719c-.41 0-.821.098-1.13.098.822.099 1.438.197 2.054.197-.205 0-.205-.098-.205-.295zM3.557 17.487c.103.197 0 .394-.102.492 0 .296.102.69.205 1.084.103.394.205.886.308 1.28.103-.394.308-.886.719-1.28a11.2 11.2 0 0 1-.616-1.478c-.616-.197-.514-.098-.514-.098zm-.102-.69h.41c0-.098 0-.098-.102-.197-.103 0-.206.099-.308.197zm1.334.099c.206 0 .514.098.822.197-.103-.69-.103-1.182 0-1.675.102-.59.513-1.083.923-1.379 0-.098-.102-.197-.102-.295-.821.492-1.643 1.477-1.643 3.152zm1.335.295c.102 0 .205.099.308.099 0-.493 0-1.084.41-1.773.103-.197.206-.296.308-.493v-.985c-.102 0-.102.099-.102.099-.514.295-.822.69-1.027 1.28-.103.493-.103 1.084.103 1.773zm.41.887h-.102v.098l.102-.098zm-.718-.197c-.103 0-.205 0-.205-.099-.308-.098-.514-.098-.72-.197 0 .099 0 .197.104.296l.308.59c.205-.098.513-.295.82-.393-.307 0-.307-.099-.307-.197zm4.209 9.85v.098-.099zM30.35 12.462l-.103.099c-.102.098-.205.295-.308.394v.197c.103-.296.308-.493.41-.69zm-.719.985a5.568 5.568 0 0 1-.41.69c.102-.197.308-.296.41-.493v-.197zm-.821 1.084c.205-.394.513-.985.821-1.379a.987.987 0 0 0-.102-.394c-.206-.788-.719-.69-1.438-.197.411.591.616 1.182.719 1.97zM5.816 22.806c.205-.296.616-.69 1.129-.985-.41-.296-.924-.788-1.437-1.38-.513.493-.616 1.084-.513 1.577.102.197.41.59.82.788zm1.334-.788c-.513.295-.82.69-1.026.985.41.197.616.295.718.394l.103-.099c0-.098 0-.197.103-.492-.103-.296 0-.591.102-.788zm4.825-14.282v.197c0 .295-.102.69-.102 1.083.308-.295.616-.59.923-.788-.205-.098-.41-.295-.615-.394 0-.098-.103-.098-.206-.098zm-.205 2.167c0 .295-.103.492-.103.788.103-.197.308-.296.41-.493l-.307-.295zm-.513-3.152c0-.296-.103-.591-.103-.788-.41.295-.821.492-1.13.788h1.233zM25.629 10.1c.41-.197 1.129-.69 1.745-1.28-.206-.1-.41-.1-.616-.1-.308 0-.513.1-.821.198-.206.197-.411.59-.616.886.102.197.205.197.308.296zm-.514-.296c.206-.295.308-.492.411-.69-.41.1-.719.296-.924.395.205.098.308.197.513.295zm2.977 5.614c-.41.197-.82.394-1.334.591-.205.493-.41.985-.719 1.28 1.027-.295 1.848-.886 2.053-1.87zm-3.695.788h-.41c.102.099.204.197.307.394 0-.197 0-.295.103-.394zm-.719-.295c.205 0 .513.098.719.098.102-.295.102-.59.205-.886.103-1.38-.719-2.364-1.437-3.053.103.492.103.886.103 1.181.102.493.102.985.102 1.478v.985c.103.098.205.197.308.197zm1.54.098c.205 0 .41 0 .719-.098a2.64 2.64 0 0 0 .308-1.28c-.514.59-.822 1.083-1.027 1.378zm1.643-.295c.513-.099.923-.394 1.231-.591v-.197c0-.69-.205-1.28-.513-1.872-.205.197-.41.493-.616.69 0 .098 0 .295.103.394-.103.59-.103 1.182-.205 1.576zm-3.799-1.38c-.205.493-.41.789-.616.986.206.098.308.098.514.197v-.887c.102-.098.102-.197.102-.295zm-1.026 0c0 .1.102.1.102.198 0 0 0 .098.103.098.103-.197.205-.69.103-1.379-.206-1.083-.822-.197-.822-.197.206.296.411.887.514 1.28zm.513 1.478c.103.69 0 1.28-.103 1.675h.41c.104-.394.104-.887.206-1.478a.802.802 0 0 1-.513-.197zM8.177 11.971a4.42 4.42 0 0 1 .719-.591c.41-.197.718-.394 1.129-.492-.206 0-.308.098-.514.098-.41.099-.82.197-1.231.394-.206.099-.308.197-.411.197 0 .197.205.296.308.394zm-.924 3.743c-.308.59-.308 1.083-.308 1.477.103-.394.308-.886.616-1.379.205-.492.616-.788.924-1.083-.513.197-.924.492-1.232.985zm-2.361 3.743c-.719.886-.41 1.97-.41 1.97.102.098.102.295.205.394 0-.591.205-1.182.718-1.773-.308-.099-.41-.394-.513-.591zm.821-9.16c-.102-.099-.205-.296-.41-.493-.616.69-.924 1.379-1.13 2.266.822 0 1.438.098 1.745.295 0-.099.103-.197.206-.295-.103-.296-.41-.985-.41-1.773zM18.34 5.175l.103-.099c-.103 0-.308-.098-.411-.098.103 0 .205.098.308.197zm4.928 11.13c0 .492-.103.985-.103 1.28h.41c.103-.197.206-.295.308-.492-.102-.394-.308-.591-.615-.788zm-.206 3.94c0-.394-.102-.69-.205-.985-.103.098-.308.197-.41.295v.591c.205.099.41.099.615.099zm1.848.492h-1.027c0 .296-.102.591-.205.788.205.099.41.099.616.197.308-.197.513-.59.616-.985zm-1.13-1.379l.309-.59c-.206.098-.308.196-.41.196 0 .197 0 .296.102.394zm-.41 2.955c-.102.099-.102.197-.102.197l-.308-.197h-.103l.205.493c.103-.099.308-.099.513-.296l-.205-.197zM7.458 23.89c.308.295.822.197.822.197l-.411-.394c-.205-.197-.41-.591-.41-.591s-.206.493 0 .788zm3.901 2.56c-.205 0-.41-.098-.616-.098-.102.296-.308.69-.616.985.103.099.206.099.411.099.205-.296.513-.591.821-.985zm-7.904-.787c0-.099 0-.099.102-.099.103 0 .103 0 .103.099 0 0 .308 3.053 2.053 1.871-1.334-.788-1.848-1.97-1.848-1.97 0-.098 0-.197.103-.295.103-.099.205 0 .308.098 0 0 .513 1.182 1.848 1.872.205-.197.41-.394.616-.69l.102-.098c-.308-.197-.718-.493-1.026-.69-.821-.689-1.335-1.576-1.643-2.166-.718.492-1.437 1.28-1.232 2.757.103.788.411 1.28.822 1.675.308.295.82.59 1.232.59.41.1.923.1 1.231-.098.308-.098.616-.295.719-.492-.41-.099-.719-.197-1.027-.296-2.155 1.675-2.463-2.068-2.463-2.068zm3.695.394l.103-.197c-.719-.69-1.642-1.478-2.361-2.66l-.103-.098c-.102 0-.102.099-.205.099a8.171 8.171 0 0 0 1.54 2.068c.308.394.616.59 1.026.788zm.308-.394l.411-.493-.719.296c.103 0 .206.098.308.197zm1.335-1.675c.308-.393.513-.689.718-.984-.307-.197-.718-.394-1.129 0-.308.295.206.788.41.984zm-1.335 2.069l-.102.098.616.296c-.206-.099-.308-.197-.514-.394zm4.004.59c-.308.296-.513.592-.821.887.308.099.513.099.718.197.103-.295.103-.69.103-1.083zm-4.928-14.97l.308-.296c-.102-.492-.205-1.576.411-2.66-.103 0-.205.1-.308.1-1.13.787-.719 2.166-.41 2.856zm2.772-1.478c.205 0 .308-.098.513-.098-.102-.296-.102-.788.103-1.38-.205-.098-.513-.098-.718-.196-.206.886-.103 1.379.102 1.674zm-3.49 2.561c-.41-.099-.924-.296-1.643-.197-.102.295-.102.591-.102.985v.788c.513-.887 1.334-1.379 1.745-1.576zm-4.517 2.167c0 .098.103.295.103.394.102.098.102.295.205.394.205.197.41.295.616.394h.205s.103 0 .103-.099v-.295c-.103-.296-.513-.493-.924-.69-.103-.098-.205-.098-.308-.098zm-.205.492c-.103-.197-.103-.394-.206-.59-.102 0-.308 0-.41.098-.103 0-.103.098-.103.098 0 .394.41.493.719.493v-.099zm12.73-7.288c.102.098.102.197.204.295.514-.295 1.335-.492 2.259-.59-.103-.1-.205-.198-.308-.395h-.205c-.719.099-1.335.296-1.95.69zm0 1.379c0-.099-.104-.197-.104-.296-.205.197-.41.296-.513.394.205-.098.41-.098.616-.098zm3.9-1.773h.821c-.308-.099-.616-.197-1.026-.197.102 0 .102.098.205.197zM29.222 23.1c-.103.197-.206.296-.514.296-.205 0-.41-.197-.513-.394.41.098.719.098 1.027.098zM3.66 16.009c0 .099-.103.197-.103.296l.103-.099v-.197zm-1.54 4.236c-.102-.296-.102-.591-.205-.887v-.788c-.103.296-.205.69-.103 1.084.103.098.206.394.308.59zm19.608-1.084c.102-.098.205-.197.308-.197v-.098c.102-.394-.308-.493-.308-.493s0 .493-.103.788h.103zM9.1 21.033c.41 0 .821-.099.821-.099s-.103.296-.308.296c-.205 0-.513-.197-.513-.197zm9.958 2.265s.616.197 1.026-.295c.513-.493.308-1.182.308-1.182s-.205.492-.616.886a9.675 9.675 0 0 0-.718.591zm-.206-.985s.308.099.616-.098.103-.591.103-.591l-.719.69zm1.54 1.182s.513-.098.616-.591c.205-.492.103-.69.103-.69s.41.592.102.986c-.102.295-.82.295-.82.295zm.513-8.47s.103.295.308.393c.206.099.308 0 .308 0s.103.394-.308.394c-.308-.197-.308-.788-.308-.788zm-.308-1.084c.411.295.719.985.719.985s-.41-.099-.616-.296c-.205-.197-.103-.69-.103-.69zm.308-1.379l-.924-1.083s.616-.099.924.197c.206.295 0 .886 0 .886zm-1.54-.099s.103-.59-.513-1.181c-.616-.591-1.129 0-1.129 0s.719.295 1.027.492c.205.296.616.69.616.69zM8.486 16.896c0-.197.308-.493.308-.493s-.308 0-.41.099c0 .197.102.394.102.394zm-1.13 3.25s.309.197.617.197c.308.099.513 0 .513 0s-.719.394-.924.197c-.41-.197-.205-.394-.205-.394zm1.54-.59s-.102.295-.102.689c0 .394.308.59.308.59s-.205-.492-.205-1.28zm3.49 3.348s.514.394 1.027.493c.103 0 .206.098.308.098h.308s-.205.099-.513.197c-.103 0-.205 0-.41-.098-.616 0-.72-.69-.72-.69zm4.004 1.97s.206.197.411.295c.205.099-.103.197-.308 0-.205-.098-.103-.295-.103-.295zm.411-.493s.821.197 1.437-.098c.616-.296.822-.591.822-.591s-.514 1.379-1.13 1.379c-.513 0-1.129-.69-1.129-.69z"/></svg>