<?xml version="1.0" encoding="UTF-8"?>
<svg width="280px" height="31px" viewBox="0 0 280 31" version="1.1" xmlns="http://www.w3.org/2000/svg" xmlns:xlink="http://www.w3.org/1999/xlink">
    <!-- Generator: Sketch 50.2 (55047) - http://www.bohemiancoding.com/sketch -->
    <title>SpiceIT_Recruitment_white Copy</title>
    <desc>Created with Sketch.</desc>
    <defs></defs>
    <g id="Footer" stroke="none" stroke-width="1" fill="none" fill-rule="evenodd">
        <g id="footer" transform="translate(-180.000000, -36.000000)" fill="#FFFFFF" fill-rule="nonzero">
            <g id="SpiceIT_Recruitment_white-Copy" transform="translate(180.000000, 36.000000)">
                <g id="Group" transform="translate(131.063830, 2.978723)">
                    <path d="M13.0169414,9.87023903 C12.8572243,9.99159443 12.2183561,10.274757 11.9388512,10.477016 C11.8190634,10.5579196 11.7392048,10.881534 11.8190634,10.9624376 C12.2183561,11.8523772 14.893617,16.2616233 16.7702926,18.4460205 C17.6487365,19.4977673 18.5271804,20.0640925 19.8448463,20.3472551 C20.1243511,20.4281587 20.403856,20.6708695 20.403856,20.7922248 C20.403856,20.954032 20.1243511,21.1158392 19.9247048,21.1967428 C19.5254121,21.3990018 18.6868975,21.4394536 18.0480292,21.4394536 C16.2512121,21.4394536 14.5342536,20.4686105 13.6558097,19.3359601 C12.5777195,17.8392435 10.9006902,15.2907801 9.62295363,13.1872866 C9.18373168,12.5400578 8.58479265,11.7310218 8.38514631,11.6096664 C8.18549997,11.4478592 7.147339,11.2051484 6.22896583,11.2051484 C6.02931949,11.2051484 5.86960242,11.4478592 5.82967315,11.5692146 C5.78974388,12.1759916 5.86960242,16.3425269 5.94946095,18.1224061 C6.02931949,19.5382191 6.34875364,19.9427371 7.86606583,20.3472551 C8.42507558,20.4686105 8.62472192,20.751773 8.62472192,20.8731284 C8.62472192,21.2371946 8.0257829,21.3180982 7.78620729,21.3180982 C6.50847071,21.3180982 5.70988535,21.1158392 3.6335634,21.1158392 C2.95476584,21.1158392 1.27773658,21.2371946 0.918373168,21.2371946 C0.43922195,21.2371946 0.0399292682,21.0753874 0.0399292682,20.751773 C0.0399292682,20.5090623 0.319434145,20.4281587 0.758656095,20.2663515 C2.19610975,19.8213817 2.71519023,19.5786709 2.83497804,18.3651169 C2.91483658,17.0706593 3.03462438,13.7536118 3.03462438,11.6096664 C3.03462438,6.91725768 2.99469511,3.96427633 2.83497804,2.75072235 C2.7551195,1.65852377 2.43568536,1.49671657 0.958302436,1.13265038 C0.479151218,1.05174678 0.199646341,0.849487786 0.199646341,0.56632519 C0.199646341,0.323614395 0.43922195,0.161807197 1.07809024,0.161807197 L2.99469511,0.161807197 C4.19257316,0.161807197 6.54839998,-2.13162821e-14 8.26535851,-2.13162821e-14 C10.3416805,-2.13162821e-14 12.2582853,0.242710796 13.6158804,1.41581298 C14.6540414,2.26530076 15.4126975,3.88337273 15.4126975,5.42054111 C15.5324853,7.15996848 14.5741829,8.85894405 13.0169414,9.87023903 Z M11.020478,2.26530076 C10.2618219,1.49671657 8.94415607,1.01129498 7.94592436,1.01129498 C7.78620729,1.01129498 6.82790485,1.09219858 6.46854144,1.25400578 C6.30882437,1.33490938 6.06924876,1.86078277 6.06924876,1.94168637 C5.98939022,3.11478855 5.86960242,9.26346204 5.98939022,9.91069083 C6.06924876,10.1534016 6.30882437,10.3556606 6.46854144,10.3556606 C8.30528778,10.3556606 9.98231704,9.78933543 10.3816097,9.54662464 C11.2600536,8.93984765 12.4579317,7.60493827 12.4579317,5.58234831 C12.4180024,4.73286052 11.9787804,3.23614395 11.020478,2.26530076 Z" id="Shape"></path>
                    <path d="M29.8670926,9.14210665 C30.5458901,9.82978723 30.9851121,10.7601786 30.9851121,11.9332808 C30.9851121,12.1355398 30.7056072,12.5400578 30.3462438,12.5400578 C29.9868804,12.5400578 24.5564999,12.5400578 23.079117,12.499606 C22.9992585,12.499606 22.8395414,12.6209614 22.7996121,12.7423168 C22.7197536,12.9850276 22.6798243,13.510901 22.6798243,13.8749672 C22.6798243,15.0076175 23.1589755,16.5043341 23.8377731,17.4347255 C24.5964292,18.4055687 25.914095,19.2146047 27.4713365,19.2146047 C28.8688609,19.2146047 29.8271633,18.8505385 30.3861731,18.0415025 C30.5059609,17.8796953 30.6656779,17.6369845 30.7854657,17.6369845 C30.9851121,17.6369845 31.0649706,17.8796953 31.0649706,18.0415025 C31.0649706,18.2842133 30.9052536,18.6482795 30.825395,18.8505385 C29.7473048,20.4686105 28.0702755,21.35855 26.0338828,21.35855 C22.5201072,21.35855 20.244139,18.6482795 20.244139,14.8862621 C20.244139,12.2568952 21.6017341,9.66798004 24.1572072,8.45442606 C24.9957219,8.04990806 26.0738121,7.88810087 26.6727511,7.88810087 C27.7907706,7.92855267 29.0285779,8.33307066 29.8670926,9.14210665 Z M23.1190463,11.2456002 C23.0391877,11.4074074 23.1989048,11.6096664 23.2787633,11.6096664 C24.117278,11.6501182 25.6745194,11.6501182 27.2716901,11.6096664 C27.990417,11.6096664 28.3497804,11.4074074 28.3497804,10.7197268 C28.3497804,9.78933543 27.4314072,8.73758865 26.2734584,8.73758865 C24.8759341,8.73758865 23.678056,9.74888364 23.1190463,11.2456002 Z" id="Shape"></path>
                    <path d="M42.9239633,8.69713685 C43.2433974,8.93984765 43.4031145,9.46572104 43.4031145,9.74888364 C43.4031145,10.274757 42.444812,11.083793 42.3250242,11.083793 C42.0854486,11.083793 41.5663681,10.8410822 41.0472877,10.4365642 C40.0091267,9.66798004 39.4501169,9.14210665 38.3320974,9.14210665 C37.8928755,9.14210665 36.9745023,9.54662464 36.4554218,10.1534016 C35.6169072,11.1242448 35.137756,12.5400578 35.137756,13.9963226 C35.137756,15.9380089 35.8964121,17.0706593 36.0561291,17.2729183 C36.8147852,18.5269241 38.2921682,19.3764119 39.9691974,19.3764119 C41.0872169,19.3764119 42.0055901,18.9718939 42.884034,18.4055687 C43.2034681,18.1628579 43.482973,18.2842133 43.482973,18.4460205 C43.482973,18.8100867 43.2833267,19.1741529 43.0437511,19.4168637 C41.9656608,20.6708695 40.0889852,21.4799054 38.3320974,21.4799054 C36.2557755,21.4799054 34.4988877,20.3877069 33.5405852,18.8505385 C32.9416462,17.9201471 32.5024243,16.4234305 32.5024243,15.0480693 C32.5024243,12.6209614 33.7402316,10.679275 35.6568365,9.38481744 C36.8946438,8.49487786 38.9709657,8.00945626 39.8893389,8.00945626 C40.8476413,7.96900447 42.3250242,8.25216706 42.9239633,8.69713685 Z" id="Shape"></path>
                    <path d="M45.5193657,9.06120305 C46.5974559,8.65668505 47.7154754,8.17126346 48.1147681,7.96900447 C48.5140608,7.72629367 48.7137071,7.60493827 48.7935657,7.60493827 C48.9532828,7.60493827 49.1129998,7.84764907 49.1129998,7.96900447 C49.1129998,8.57578146 49.0331413,9.14210665 49.0331413,9.74888364 C49.0331413,9.87023903 49.1928584,9.95114263 49.2327876,9.87023903 C50.4705949,8.69713685 51.8681193,7.84764907 52.866351,7.84764907 C54.2239462,7.84764907 54.5433803,8.69713685 54.5433803,8.98029945 C54.5433803,9.06120305 54.4635218,9.30391384 54.343734,9.46572104 C53.9444413,10.0320462 53.1857852,10.9624376 52.9462096,11.083793 C52.866351,11.1242448 52.5469169,11.0433412 52.4670584,11.0028894 C52.1076949,10.679275 51.2691803,10.2343052 50.630312,10.2343052 C50.1511608,10.2343052 49.6720096,10.3152088 49.3925047,10.6388232 C49.1529291,10.881534 49.0730706,11.1242448 49.0730706,11.3669556 C49.0730706,12.0141844 49.1928584,17.8392435 49.2327876,18.3651169 C49.3126462,19.2955083 49.5122925,19.9427371 50.0713023,20.0640925 C50.4705949,20.1449961 51.069534,20.3068033 51.5087559,20.4281587 C52.0278364,20.5899659 52.1076949,20.8326766 52.1076949,20.954032 C52.1076949,21.156291 51.8281901,21.2776464 51.3091096,21.2776464 C50.4705949,21.2776464 49.2327876,21.1158392 47.356112,21.1158392 C46.4377389,21.1158392 45.9985169,21.2371946 45.2398608,21.2371946 C44.8804974,21.2371946 44.5610633,21.1158392 44.5610633,20.8326766 C44.5610633,20.6304177 44.9603559,20.5090623 45.1999315,20.4281587 C46.4377389,20.0236407 46.5175974,19.6595745 46.5575267,17.7178881 L46.5575267,11.6501182 C46.5575267,11.2456002 46.5575267,10.8410822 46.2380925,10.5983714 C45.5193657,10.0320462 45.120073,9.78933543 45.120073,9.66798004 C45.120073,9.50617284 45.1999315,9.14210665 45.5193657,9.06120305 Z" id="Shape"></path>
                    <path d="M65.0847071,18.6482795 C65.2843534,18.5269241 65.523929,18.0415025 65.523929,17.8796953 L65.5638583,10.3961124 C65.5638583,10.1938534 65.2843534,9.78933543 65.0447778,9.66798004 C64.5256973,9.54662464 63.9267583,9.30391384 63.6073242,9.26346204 C63.3677486,9.18255844 63.0083851,9.02075125 63.0083851,8.73758865 C63.0083851,8.61623325 63.4076778,8.41397426 63.6871827,8.41397426 C64.9649193,8.41397426 66.56209,8.25216706 67.3207461,8.04990806 C67.6401803,7.96900447 67.8797559,7.92855267 68.0794022,7.92855267 C68.2391193,7.92855267 68.3189778,8.29261886 68.3189778,8.41397426 C68.2391193,9.38481744 68.0794022,16.8684003 68.0794022,19.1741529 C68.0794022,19.2550565 68.1592607,19.6595745 68.4387656,19.6595745 C68.6783412,19.6595745 69.6366437,19.4573155 70.0359363,19.4573155 C70.1557241,19.4573155 70.3952998,20.0640925 70.435229,20.1449961 C70.435229,20.2258997 70.1956534,20.4686105 70.0359363,20.4686105 C69.237351,20.5495141 67.7998973,20.9135802 67.0412412,21.1158392 C66.4822315,21.2776464 65.8832925,21.4394536 65.8034339,21.4394536 C65.6836461,21.4394536 65.4440705,21.1967428 65.4440705,20.9944838 C65.4440705,20.7922248 65.523929,20.1449961 65.5638583,19.5786709 C65.5638583,19.4573155 65.4440705,19.3359601 65.364212,19.3764119 C64.4857681,20.0236407 63.2479608,20.7922248 62.8087388,20.9944838 C62.2497291,21.2371946 61.5709315,21.3990018 60.6525583,21.3990018 C59.414751,21.3990018 58.4165193,20.8731284 57.7377218,19.8213817 C57.4981461,19.4573155 57.2984998,18.7291831 57.2984998,18.2033097 C57.2984998,15.8975571 57.2984998,12.297347 57.2186413,10.5579196 C57.178712,9.62752824 56.6197022,9.50617284 56.0606925,9.30391384 C55.7811876,9.18255844 55.4617535,8.98029945 55.4617535,8.69713685 C55.4617535,8.57578146 55.6214705,8.37352246 56.0207632,8.37352246 C56.9391364,8.37352246 59.5345388,8.00945626 59.6543266,8.00945626 C59.7741144,8.00945626 59.8939022,8.33307066 59.8939022,8.49487786 C59.8939022,9.91069083 59.8140437,15.8166535 59.8140437,17.2729183 C59.8140437,18.0010507 60.1734071,18.6887313 60.5726998,19.0527975 C61.3313559,19.6191227 61.9302949,19.7000263 62.6490217,19.7000263 C63.4476071,19.7809299 64.2861217,19.3764119 65.0847071,18.6482795 Z" id="Shape"></path>
                    <path d="M72.4716217,21.1967428 C71.9924705,21.1967428 71.6331071,21.0349356 71.6331071,20.7922248 C71.6331071,20.5899659 71.8726827,20.4281587 72.3917632,20.3068033 C73.1504193,20.0640925 73.5896412,19.7000263 73.6694997,19.3764119 C73.7493583,18.9314421 73.7892875,16.9088521 73.7892875,15.6548463 C73.7892875,14.6840032 73.8292168,11.4074074 73.7493583,11.0028894 C73.709429,10.7601786 73.3500656,10.477016 72.4716217,9.82978723 C72.2719754,9.66798004 72.1921168,9.54662464 72.1921168,9.42526924 C72.1921168,9.18255844 72.511551,8.93984765 72.8709144,8.81849225 C74.1087217,8.57578146 75.7458217,7.84764907 76.2249729,7.72629367 C76.38469,7.72629367 76.5444071,8.00945626 76.5444071,8.09035986 C76.5044778,8.57578146 76.3447607,12.904124 76.3447607,14.7649068 C76.3447607,16.4234305 76.38469,17.7178881 76.4246192,18.8909903 C76.4645485,19.9022853 77.1034168,19.9831889 77.9020022,20.2663515 C78.4210827,20.4281587 78.620729,20.6304177 78.620729,20.8326766 C78.620729,21.0753874 78.2214363,21.1967428 77.8221436,21.1967428 C77.582568,21.1967428 75.9853973,21.1158392 75.3065997,21.1158392 C74.2684388,21.0753874 73.0705607,21.1967428 72.4716217,21.1967428 Z M76.7440534,2.91252955 C76.7440534,3.84292094 75.8256802,4.57105332 75.1468827,4.57105332 C74.9073071,4.57105332 74.3882266,4.44969792 74.0687924,4.16653533 C73.8292168,3.88337273 73.5497119,3.51930654 73.5497119,2.91252955 C73.5497119,2.58891516 73.6694997,2.02258997 73.9490046,1.69897557 C74.308368,1.37536118 74.8274485,1.21355398 75.3065997,1.21355398 C76.2249729,1.21355398 76.7440534,2.26530076 76.7440534,2.91252955 Z" id="Shape"></path>
                    <path d="M87.2055216,8.17126346 C87.2853802,8.17126346 87.5648851,8.33307066 87.6048143,8.45442606 C87.6048143,8.37352246 87.6846729,9.30391384 87.6846729,9.70843184 C87.6846729,10.0320462 87.0857338,10.1129498 86.8461582,10.1129498 L83.4122412,10.1129498 C83.2924534,10.1129498 83.1726656,10.274757 83.1726656,10.3556606 C83.092807,11.2051484 83.092807,15.6548463 83.092807,17.2729183 C83.092807,18.0819543 83.3323826,18.5269241 83.691746,18.8909903 C84.2507558,19.3764119 84.9295534,19.4977673 85.5684217,19.4977673 C85.9677143,19.4977673 86.6465119,19.2955083 87.1256631,19.0123457 C87.405168,18.8505385 87.5249558,18.8100867 87.6447436,18.8100867 C87.6447436,18.8100867 87.8044607,18.8909903 87.8044607,19.1741529 C87.8044607,19.4573155 87.5648851,19.7809299 87.3652387,20.0236407 C86.4867948,20.9135802 85.328846,21.4799054 83.8913924,21.4799054 C82.5737265,21.4799054 81.455707,20.7113213 80.9765558,19.9831889 C80.6171924,19.4168637 80.5772631,18.7696349 80.5772631,17.7987917 C80.5772631,16.5852377 80.6970509,11.69057 80.6970509,10.5579196 C80.6970509,10.3152088 80.0981119,10.1129498 79.4592436,9.95114263 C79.219668,9.87023903 79.0599509,9.66798004 79.0599509,9.54662464 C79.0599509,9.42526924 79.1398095,9.30391384 79.2595973,9.18255844 C80.4974046,8.25216706 81.4956363,7.48358287 82.0147168,6.87680588 C82.4140095,6.47228789 82.6136558,6.1486735 82.7733729,6.1486735 C82.93309,6.1486735 83.2525241,6.43183609 83.2525241,6.55319149 L83.2525241,8.13081166 C83.2525241,8.21171526 83.4122412,8.37352246 83.532029,8.37352246 C84.0910387,8.33307066 87.0857338,8.17126346 87.2055216,8.17126346 Z" id="Shape"></path>
                    <path d="M90.2002168,9.10165485 C90.8790143,8.85894405 92.4362558,8.00945626 92.8754777,7.72629367 C92.9952655,7.64539007 93.0751241,7.60493827 93.1150533,7.64539007 C93.2348411,7.64539007 93.4744167,7.88810087 93.4744167,7.96900447 C93.4744167,8.41397426 93.3546289,9.30391384 93.3546289,9.62752824 C93.3546289,9.70843184 93.4344875,9.91069083 93.5942046,9.82978723 C94.5125777,9.06120305 96.3493241,7.88810087 97.8666362,7.88810087 C99.024585,7.88810087 99.7832411,8.13081166 100.38218,8.53532966 C100.94119,8.98029945 101.260624,9.46572104 101.420341,9.66798004 C101.46027,9.78933543 101.540129,9.91069083 101.659917,9.78933543 C102.258856,9.34436564 103.057441,8.81849225 103.895956,8.37352246 C104.654612,8.00945626 105.453197,7.84764907 105.972278,7.84764907 C107.170156,7.84764907 108.0486,8.25216706 108.727397,8.93984765 C109.486053,9.74888364 109.765558,10.9219858 109.805487,12.1355398 C109.925275,13.6727082 109.885346,16.2616233 109.885346,18.8100867 C109.885346,19.4168637 110.124922,19.9831889 111.203012,20.2663515 C111.602304,20.3877069 111.801951,20.5495141 111.801951,20.751773 C111.801951,20.9944838 111.522446,21.1158392 110.883578,21.1158392 C110.244709,21.1158392 109.326336,21.0349356 108.527751,21.0349356 C107.529519,21.0349356 106.93058,21.1158392 106.211853,21.1158392 C105.612914,21.1158392 105.413268,20.9135802 105.413268,20.7113213 C105.413268,20.5090623 105.772631,20.3472551 106.131995,20.2663515 C107.130226,19.9831889 107.250014,19.6191227 107.250014,18.4055687 C107.250014,17.6369845 107.210085,13.9558708 107.170156,12.8636722 C107.170156,11.892829 107.050368,11.3669556 106.691005,10.7601786 C106.291712,10.1129498 105.612914,9.62752824 104.335178,9.62752824 C102.937653,9.62752824 102.378644,10.2343052 101.939422,10.5579196 C101.819634,10.6388232 101.619987,11.286052 101.619987,11.5287628 C101.619987,11.7714736 101.580058,17.8796953 101.659917,18.6078277 C101.739775,19.6595745 101.899492,19.9831889 103.017512,20.2258997 C103.376875,20.3068033 103.696309,20.5090623 103.696309,20.7113213 C103.696309,20.954032 103.416805,21.1158392 102.897724,21.1158392 C102.178997,21.1158392 101.140836,21.0349356 100.38218,21.0349356 C99.7033826,21.0349356 98.6652216,21.1158392 97.986424,21.1158392 C97.2676972,21.1158392 97.1479094,20.8731284 97.1479094,20.7113213 C97.1479094,20.6304177 97.2676972,20.3877069 97.7867777,20.2663515 C98.8249387,20.0236407 98.9846558,19.6595745 98.9846558,18.4864723 L99.024585,12.2568952 C99.024585,11.2456002 98.7850094,10.8006304 98.6252923,10.5174678 C98.2259997,9.95114263 97.387485,9.54662464 96.2694655,9.54662464 C95.2712338,9.54662464 94.552507,9.91069083 93.8337802,10.477016 C93.6341338,10.6388232 93.514346,10.9219858 93.514346,11.286052 C93.4344875,12.3782506 93.4344875,16.2616233 93.4344875,18.7291831 C93.4344875,19.3359601 93.5942046,19.8213817 94.6323655,20.1449961 C95.2313045,20.3472551 95.4708802,20.4686105 95.4708802,20.751773 C95.4708802,20.9944838 95.0316582,21.1158392 94.5924363,21.1158392 C94.4726485,21.1158392 93.1150533,21.0349356 91.877246,21.0349356 C90.7991558,21.0349356 90.1203582,21.1158392 89.4415607,21.1158392 C88.9624094,21.1158392 88.603046,20.9944838 88.603046,20.751773 C88.603046,20.5899659 88.8426216,20.3472551 89.4016314,20.2258997 C90.4797216,19.9831889 90.5995094,19.4977673 90.7192972,18.1224061 C90.7991558,17.1920147 90.839085,14.0772262 90.839085,11.69057 C90.839085,11.488311 90.8790143,11.083793 90.5995094,10.8410822 C89.7210655,10.0320462 89.4814899,9.74888364 89.4814899,9.62752824 C89.5613485,9.50617284 89.8408533,9.26346204 90.2002168,9.10165485 Z" id="Shape"></path>
                    <path d="M122.383207,9.14210665 C123.062004,9.82978723 123.501226,10.7601786 123.501226,11.9332808 C123.501226,12.1355398 123.221722,12.5400578 122.862358,12.5400578 C122.502995,12.5400578 117.072614,12.5400578 115.595231,12.499606 C115.515373,12.499606 115.355656,12.6209614 115.315726,12.7423168 C115.235868,12.9850276 115.195939,13.510901 115.195939,13.8749672 C115.195939,15.0076175 115.67509,16.5043341 116.353887,17.4347255 C117.112543,18.4055687 118.430209,19.2146047 119.987451,19.2146047 C121.384975,19.2146047 122.343278,18.8505385 122.902287,18.0415025 C123.022075,17.8796953 123.181792,17.6369845 123.30158,17.6369845 C123.501226,17.6369845 123.581085,17.8796953 123.581085,18.0415025 C123.581085,18.2842133 123.421368,18.6482795 123.341509,18.8505385 C122.263419,20.4686105 120.58639,21.35855 118.549997,21.35855 C115.036222,21.35855 112.760253,18.6482795 112.760253,14.8862621 C112.760253,12.2568952 114.117848,9.66798004 116.673322,8.45442606 C117.511836,8.04990806 118.589926,7.88810087 119.188865,7.88810087 C120.266956,7.92855267 121.544692,8.33307066 122.383207,9.14210665 Z M115.595231,11.2456002 C115.515373,11.4074074 115.67509,11.6096664 115.754948,11.6096664 C116.593463,11.6501182 118.150704,11.6501182 119.747875,11.6096664 C120.466602,11.6096664 120.825965,11.4074074 120.825965,10.7197268 C120.825965,9.78933543 119.907592,8.73758865 118.749643,8.73758865 C117.392048,8.73758865 116.154241,9.74888364 115.595231,11.2456002 Z" id="Shape"></path>
                    <path d="M125.817124,8.81849225 C126.416063,8.61623325 127.613941,8.17126346 128.053163,7.88810087 C128.412526,7.64539007 128.77189,7.48358287 128.931607,7.48358287 C129.051395,7.48358287 129.211112,7.84764907 129.211112,7.96900447 C129.211112,8.45442606 129.131253,9.26346204 129.131253,9.58707644 C129.131253,9.74888364 129.29097,9.66798004 129.3309,9.66798004 C130.608636,8.73758865 132.245736,7.88810087 133.603331,7.88810087 C135.200502,7.88810087 136.078946,8.61623325 136.518168,9.14210665 C137.276824,9.99159443 137.636187,11.488311 137.636187,13.106383 C137.636187,13.7536118 137.716046,18.5673759 137.716046,19.0527975 C137.795904,19.5382191 138.115339,19.9831889 138.913924,20.1854479 C139.512863,20.3472551 139.712509,20.5495141 139.712509,20.751773 C139.712509,20.9944838 139.273287,21.156291 138.794136,21.156291 C138.03548,21.156291 137.196965,21.0753874 136.278592,21.0753874 C135.480007,21.0753874 134.401917,21.156291 134.002624,21.156291 C133.643261,21.156291 133.204039,21.0753874 133.204039,20.751773 C133.204039,20.5090623 133.563402,20.3472551 133.962695,20.1854479 C134.721351,19.9022853 134.881068,19.5786709 134.960926,18.5269241 C135.040785,17.4347255 135.040785,13.510901 135.040785,12.5400578 C135.040785,11.488311 134.521704,10.5174678 134.162341,10.2343052 C133.802978,9.95114263 132.844675,9.62752824 132.125948,9.62752824 C130.768353,9.62752824 129.969768,10.072498 129.410758,10.5579196 C129.29097,10.6388232 129.091324,11.083793 129.091324,11.3265038 C129.051395,11.7310218 129.091324,18.7696349 129.131253,19.1741529 C129.171182,19.6191227 129.29097,19.9022853 130.289202,20.1854479 C130.608636,20.2663515 130.888141,20.5090623 130.888141,20.7113213 C130.888141,20.954032 130.528778,21.1158392 130.049626,21.1158392 C129.650334,21.1158392 128.652102,21.0753874 127.973304,21.0753874 C126.775426,21.0753874 125.777195,21.156291 125.218185,21.156291 C124.739034,21.156291 124.37967,20.9944838 124.37967,20.7113213 C124.37967,20.4686105 124.699104,20.3068033 125.058468,20.2258997 C126.136558,19.9022853 126.296275,19.5786709 126.376134,18.4055687 C126.455992,17.4347255 126.57578,14.6030996 126.57578,11.3265038 C126.57578,10.9624376 126.455992,10.6388232 125.777195,10.072498 C125.377902,9.74888364 125.218185,9.62752824 125.218185,9.50617284 C125.258114,9.26346204 125.577548,8.93984765 125.817124,8.81849225 Z" id="Shape"></path>
                    <path d="M148.337231,8.17126346 C148.41709,8.17126346 148.696595,8.33307066 148.736524,8.45442606 C148.736524,8.37352246 148.816382,9.30391384 148.816382,9.70843184 C148.816382,10.0320462 148.217443,10.1129498 147.977868,10.1129498 L144.543951,10.1129498 C144.424163,10.1129498 144.304375,10.274757 144.304375,10.3556606 C144.224517,11.2051484 144.224517,15.6548463 144.224517,17.2729183 C144.224517,18.0819543 144.464092,18.5269241 144.823456,18.8909903 C145.382465,19.3764119 146.061263,19.4977673 146.700131,19.4977673 C147.099424,19.4977673 147.778221,19.2955083 148.257373,19.0123457 C148.536878,18.8505385 148.656665,18.8100867 148.776453,18.8100867 C148.776453,18.8100867 148.93617,18.8909903 148.93617,19.1741529 C148.93617,19.4573155 148.696595,19.7809299 148.496948,20.0236407 C147.618504,20.9135802 146.460556,21.4799054 145.023102,21.4799054 C143.705436,21.4799054 142.587417,20.7113213 142.108265,19.9831889 C141.748902,19.4168637 141.708973,18.7696349 141.708973,17.7987917 C141.708973,16.5852377 141.82876,11.69057 141.82876,10.5579196 C141.82876,10.3152088 141.229821,10.1129498 140.590953,9.95114263 C140.351378,9.87023903 140.19166,9.66798004 140.19166,9.54662464 C140.19166,9.42526924 140.271519,9.30391384 140.391307,9.18255844 C141.629114,8.25216706 142.627346,7.48358287 143.146426,6.87680588 C143.545719,6.47228789 143.745365,6.1486735 143.905082,6.1486735 C144.064799,6.1486735 144.384234,6.43183609 144.384234,6.55319149 L144.384234,8.13081166 C144.384234,8.21171526 144.543951,8.37352246 144.663739,8.37352246 C145.222748,8.33307066 148.217443,8.17126346 148.337231,8.17126346 Z" id="Shape"></path>
                </g>
                <path d="M28.1771133,8.93617021 C24.9166187,8.93617021 23.5077631,11.4628983 23.5077631,11.4628983 L23.5077631,9.50672171 L17.8723404,9.50672171 L17.8723404,30.7801418 L23.5077631,30.7801418 L23.5077631,22.8739282 C23.5077631,22.8739282 24.8361127,24.7078438 27.573318,24.7078438 C32.7257044,24.7078438 35.7446809,20.999259 35.7446809,16.5978618 C35.7446809,11.5851593 32.2024152,8.93617021 28.1771133,8.93617021 Z M26.9292697,20.2656928 C24.7153537,20.2656928 23.5480161,18.8800677 23.5480161,16.8831375 C23.5480161,14.6416852 24.9568718,13.4598285 27.0097757,13.4598285 C28.9821737,13.4598285 30.5117884,15.0084683 30.5117884,16.8423838 C30.4715354,18.8393141 28.9016676,20.2656928 26.9292697,20.2656928 Z" id="Shape"></path>
                <rect id="Rectangle-path" x="37.7304965" y="9.92907801" width="5.95744681" height="14.893617"></rect>
                <path d="M40.212766,6.95035461 C42.1478079,6.95035461 43.6879433,5.37072856 43.6879433,3.4751773 C43.6879433,1.5401354 42.1478079,0 40.212766,0 C38.3172147,0 36.7375887,1.5401354 36.7375887,3.4751773 C36.7375887,5.33123791 38.3172147,6.95035461 40.212766,6.95035461 Z" id="Shape"></path>
                <path d="M60.3639112,10.9886928 C58.7361935,9.7982297 56.8236252,8.93617021 53.8530403,8.93617021 C49.6209743,8.93617021 45.6737589,11.9739036 45.6737589,16.8999578 C45.6737589,21.7439112 49.3768166,24.822695 53.6495756,24.822695 C56.8643181,24.822695 58.9803511,23.7553833 60.5673759,22.277567 L58.4513429,19.0345813 C57.637484,19.6092877 56.3353098,20.3071453 54.8703639,20.3071453 C52.7543309,20.3071453 51.3300779,19.1166822 51.3300779,16.8999578 C51.3300779,14.6832335 52.8764097,13.5338208 54.8703639,13.5338208 C56.0504592,13.5338208 57.2712475,14.1085271 57.9630276,14.6011326 L60.3639112,10.9886928 Z" id="Shape"></path>
                <path d="M74.4680851,16.4484029 C74.4680851,12.1791559 72.3237162,8.93617021 67.567116,8.93617021 C62.7715272,8.93617021 59.5744681,12.3023073 59.5744681,16.6947056 C59.5744681,22.0723148 63.0444469,24.822695 67.6061045,24.822695 C70.6861981,24.822695 73.0644982,23.550131 74.1171884,22.277567 L72.2457391,19.1577327 C71.5439456,19.6913886 70.2963128,20.4302967 68.6198062,20.4302967 C66.826334,20.4302967 65.6176897,19.4861363 65.1888159,18.090421 L74.2731425,18.090421 C74.3511195,17.9262191 74.4680851,16.8999578 74.4680851,16.4484029 Z M65.1108388,15.2579398 C65.34477,13.7390731 66.0075749,13.0001649 67.2941963,13.0001649 C68.6198062,13.0001649 69.3215996,13.9853758 69.3215996,15.2579398 L65.1108388,15.2579398 Z" id="Shape"></path>
                <g id="Group" transform="translate(100.283688, 2.978723)">
                    <rect id="Rectangle-path" x="0.23624358" y="0.161807197" width="5.51235021" height="21.3990018"></rect>
                    <polygon id="Shape" points="22.5612619 0.161807197 17.9545121 0.161807197 12.4421619 0.161807197 7.83541208 0.161807197 7.83541208 5.25873391 12.4421619 5.25873391 12.4421619 21.560809 17.9545121 21.560809 17.9545121 5.25873391 22.5612619 5.25873391"></polygon>
                </g>
                <path d="M15.293744,3.87843408 C14.0686638,3.1292726 11.0652412,1.9858156 7.98278113,1.9858156 C3.91235313,1.9858156 0.987967962,4.43044781 0.987967962,8.13682567 C0.987967962,11.2123307 2.72679157,12.8289423 5.7697329,14.7215608 C8.3384496,16.377602 10.4329417,16.9296157 10.4329417,17.7576363 C10.4329417,18.5067978 9.87967962,18.8616637 8.65459934,18.8616637 C6.40203239,18.8616637 3.59620338,17.521059 2.29208567,16.3381724 L0,21.385155 C0.869411806,22.0554574 3.91235313,23.8297872 7.86422497,23.8297872 C12.9621397,23.8297872 15.8865248,21.1485777 15.8865248,17.2844817 C15.8865248,14.090688 12.7645461,12.3557877 10.3539042,11.094042 C7.42951907,9.51685997 6.28347624,8.8465576 6.28347624,8.01853701 C6.28347624,7.30880508 6.87625701,6.99336867 7.82470626,6.99336867 C9.80064218,6.99336867 12.0532091,8.17625522 13.1597332,8.9254167 L15.293744,3.87843408 Z" id="Shape"></path>
                <path d="M97.7715053,15.012766 L82.9120993,0.595744681 C82.5027493,0.19858156 81.9705943,0 81.4793742,0 C80.4150642,0 79.4326241,0.794326241 79.4326241,1.9858156 L79.4326241,22.3602837 C79.4326241,23.3929078 80.3331942,24.1475177 81.2746992,24.1475177 C81.6431143,24.1475177 82.0524643,24.0283688 82.3799443,23.7503546 L87.1284046,19.2624113 L90.3622698,26.8085106 L93.47333,25.577305 L90.2803998,18.0312057 L96.7481302,17.9914894 C98.1808553,17.8326241 98.8358153,16.0453901 97.7715053,15.012766 Z M97.2802852,16.5219858 C97.2393502,16.6411348 97.0756102,16.9985816 96.6253252,17.0780142 L88.4383247,17.1177305 L88.0699097,17.1177305 L87.7833646,17.3957447 L81.8068543,23.0751773 C81.6431143,23.1943262 81.4793742,23.2340426 81.3156342,23.2340426 C80.9062842,23.2340426 80.4559992,22.9163121 80.4559992,22.4 L80.4559992,1.9858156 C80.4559992,1.35035461 80.9881542,0.953191489 81.5612442,0.953191489 C81.7659193,0.953191489 82.0524643,0.992907801 82.2980743,1.27092199 L97.1574802,15.6879433 C97.4440252,16.0056738 97.3212202,16.4028369 97.2802852,16.5219858 Z" id="Shape"></path>
            </g>
        </g>
    </g>
</svg>