<?xml version="1.0" encoding="UTF-8"?>
<svg width="252px" height="27px" viewBox="0 0 252 27" version="1.1" xmlns="http://www.w3.org/2000/svg" xmlns:xlink="http://www.w3.org/1999/xlink">
    <!-- Generator: Sketch 43 (38999) - http://www.bohemiancoding.com/sketch -->
    <title>Logotype</title>
    <desc>Created with Sketch.</desc>
    <defs></defs>
    <g id="Symbols" stroke="none" stroke-width="1" fill="none" fill-rule="evenodd">
        <g id="header" transform="translate(-253.000000, -50.000000)">
            <g id="Menu-desktop">
                <g id="Logotype" transform="translate(253.000000, 50.000000)">
                    <polygon id="Fill-1" fill="#1D1C1B" points="88.4864765 21.2517126 93.4071235 21.2517126 93.4071235 2.52689793 88.4864765 2.52689793"></polygon>
                    <polygon id="Fill-2" fill="#1D1C1B" points="108.43487 2.52680977 104.31215 2.52680977 99.3915026 2.52680977 95.2689287 2.52680977 95.2689287 6.98513396 99.3915026 6.98513396 99.3915026 21.2516244 104.31215 21.2516244 104.31215 6.98513396 108.43487 6.98513396"></polygon>
                    <path d="M23.8494407,17.8187515 C25.5782337,17.8187515 26.9524737,16.570362 26.9524737,14.8316964 C26.9524737,13.226729 25.6226442,11.8893052 23.893705,11.8893052 C22.1206477,11.8893052 20.8793468,12.9146684 20.8793468,14.8763604 C20.8793468,16.615026 21.8988877,17.8187515 23.8494407,17.8187515 Z M24.9576563,7.9659212 C28.459799,7.9659212 31.562832,10.284191 31.562832,14.653334 C31.562832,18.4875369 28.9474372,21.6974715 24.4257537,21.6974715 C22.0319729,21.6974715 20.8793468,20.0925042 20.8793468,20.0925042 L20.8793468,26.9582794 L15.9586998,26.9582794 L15.9586998,8.45634421 L20.8793468,8.45634421 L20.8793468,10.1504927 C20.8793468,10.1504927 22.1206477,7.9659212 24.9576563,7.9659212 Z" id="Fill-3" fill="#1D1C1B"></path>
                    <polygon id="Fill-5" fill="#1D1C1B" points="33.2917565 21.2517126 38.2124035 21.2517126 38.2124035 8.45634421 33.2917565 8.45634421"></polygon>
                    <path d="M35.6855228,0.297677068 C34.0009941,0.297677068 32.5824897,1.67976491 32.5824897,3.41843053 C32.5824897,5.11257903 34.0009941,6.539184 35.6855228,6.539184 C37.4143158,6.539184 38.7885558,5.11257903 38.7885558,3.41843053 C38.7885558,1.67976491 37.4143158,0.297677068 35.6855228,0.297677068" id="Fill-7" fill="#1D1C1B"></path>
                    <path d="M47.698896,17.8187515 C45.8814282,17.8187515 44.6401273,16.7933884 44.6401273,14.8763604 C44.6401273,12.9591855 45.970103,11.9784864 47.698896,11.9784864 C48.7184369,11.9784864 49.7823882,12.4687625 50.3587012,12.9146684 L52.4421934,9.793768 C51.023689,8.76840486 49.3834247,8.01058525 46.8122943,8.01058525 C43.1329482,8.01058525 39.7194803,10.6409157 39.7194803,14.8763604 C39.7194803,19.0671411 42.9113343,21.6974715 46.6349447,21.6974715 C49.427689,21.6974715 51.245303,20.7612896 52.619543,19.5129 L50.801929,16.7042072 C50.0926769,17.1946302 48.9844612,17.8187515 47.698896,17.8187515" id="Fill-8" fill="#1D1C1B"></path>
                    <path d="M57.5497732,13.4496379 C57.7690497,12.123527 58.376041,11.4879459 59.5349489,11.4879459 C60.7318393,11.4879459 61.3525628,12.3350936 61.3525628,13.4496379 L57.5497732,13.4496379 Z M66.0071854,14.475001 C66.0071854,10.7746434 64.0566323,8.01046771 59.7565628,8.01046771 C55.4122289,8.01046771 52.5308097,10.9084886 52.5308097,14.6980274 C52.5308097,19.3345671 55.6782532,21.6975009 59.8009732,21.6975009 C62.5937176,21.6975009 64.7216202,20.5829566 65.6967506,19.5129294 L64.0122219,16.8379349 C63.3916445,17.2838408 62.2390184,17.9524792 60.7318393,17.9524792 C59.1129037,17.9524792 58.0324445,17.1430903 57.6296828,15.9462701 L65.8298358,15.9462701 C65.9185106,15.7679077 66.0071854,14.8762429 66.0071854,14.475001 L66.0071854,14.475001 Z" id="Fill-9" fill="#1D1C1B"></path>
                    <path d="M9.22059965,10.2396739 C6.61674574,8.83672322 5.58551791,8.23346473 5.58551791,7.47549819 C5.58551791,6.85137688 6.11756661,6.53916931 6.95975791,6.53916931 C8.72156661,6.53916931 10.7150692,7.60052815 11.7030553,8.27798185 L13.6536083,3.77514055 C12.5453927,3.10635519 9.88558748,2.08099205 7.13710748,2.08099205 C3.50202574,2.08099205 0.886630957,4.26556355 0.886630957,7.60934342 C0.886630957,10.3733722 2.44201878,11.81893 5.14229009,13.5387897 C7.44739617,15.0100587 9.30927443,15.5051832 9.30927443,16.2583013 C9.30927443,16.9270867 8.82163617,17.2391473 7.71342052,17.2391473 C5.71860313,17.2391473 3.19173704,16.0354219 2.03925704,14.9655416 L2.92173918e-05,19.5129 C0.762895304,20.0995564 3.47952835,21.6974715 7.00416835,21.6974715 C11.5300883,21.6974715 14.1412466,19.2900205 14.1412466,15.8125424 C14.1412466,12.9591855 11.3628188,11.3828678 9.22059965,10.2396739" id="Fill-10" fill="#1D1C1B"></path>
                    <path d="M80.213017,23.5131826 L74.8634588,10.4994894" id="Fill-11" fill="#CB1517"></path>
                    <polygon id="Fill-12" fill="#009640" points="78.8736188 24.0700875 73.5239144 11.0563942 76.202857 9.9425845 81.5525614 22.9562778"></polygon>
                    <path d="M84.3356202,16.2041462 L77.223961,16.241758 L72.0334915,21.3253789 C71.0069384,22.1457869 69.4923089,21.4105932 69.4923089,20.0918284 L69.4923089,1.90929992 C69.4923089,0.342385193 71.3761002,-0.442321001 72.4777419,0.665611859 L85.2640028,13.524891 C86.1907784,14.4569591 85.6376932,16.0532581 84.3356202,16.2041462" id="Fill-13" fill="#CB1517"></path>
                    <path d="M127.293308,4.32674154 C126.594136,3.65281394 125.399729,3.2133726 124.496473,3.2133726 C124.350824,3.2133726 123.476932,3.27199416 123.156563,3.41847461 C123.010915,3.47709617 122.806831,3.94577484 122.806831,4.03378065 C122.719471,5.08852803 122.632111,10.5966043 122.719471,11.182673 C122.77776,11.387775 123.010915,11.5927301 123.156563,11.5927301 C124.816988,11.5927301 126.33191,11.0946672 126.710713,10.8603278 C127.497245,10.3328807 128.575075,9.10241554 128.575075,7.28588168 C128.575075,6.55333251 128.1672,5.20562424 127.293308,4.32674154 M129.099381,11.182673 C128.953732,11.2997692 128.371137,11.5634928 128.138129,11.7099732 C128.021551,11.7685948 127.963263,12.0615557 128.021551,12.1494146 C128.371137,12.9404384 130.81824,16.9250886 132.507882,18.8588656 C133.29456,19.7963698 134.110163,20.2944327 135.304717,20.5581563 C135.566797,20.6166309 135.799805,20.8511172 135.799805,20.9683603 C135.799805,21.1148408 135.537725,21.2613212 135.362859,21.3199428 C134.984202,21.4956606 134.226741,21.5542821 133.673217,21.5542821 C132.041864,21.5542821 130.497871,20.6752525 129.711339,19.6498894 C128.720723,18.3021811 127.235019,16.0168216 126.069683,14.1124289 C125.661809,13.5265071 125.137503,12.7939579 124.962783,12.706099 C124.787917,12.5596186 123.826664,12.3251323 123.010915,12.3251323 C122.836049,12.3251323 122.6904,12.5596186 122.661183,12.6474775 C122.632111,13.1749246 122.6904,16.9250886 122.77776,18.5365204 C122.836049,19.7963698 123.127346,20.1771896 124.52569,20.5287721 C125.020925,20.6460152 125.224863,20.8803545 125.224863,20.9975976 C125.224863,21.3199428 124.671339,21.4078017 124.467402,21.4078017 C123.302212,21.4078017 122.573823,21.231937 120.709461,21.231937 C120.097649,21.231937 118.582727,21.3491801 118.262358,21.3491801 C117.825266,21.3491801 117.47568,21.2026997 117.47568,20.9097388 C117.47568,20.7046367 117.737906,20.6166309 118.11671,20.4701505 C119.427548,20.0600934 119.893711,19.8549914 119.981071,18.7710067 C120.068431,17.5990162 120.155937,14.639876 120.155937,12.706099 C120.155937,8.48710951 120.12672,5.85031451 119.981071,4.76618289 C119.893711,3.79929439 119.631485,3.62357662 118.29143,3.30123148 C117.854483,3.2133726 117.592257,3.03765483 117.592257,2.80316857 C117.592257,2.59806656 117.796195,2.45158611 118.378936,2.45158611 L120.12672,2.45158611 C121.20455,2.45158611 123.331283,2.30510567 124.904348,2.30510567 C126.768856,2.30510567 128.516786,2.539445 129.74041,3.56495506 C130.672591,4.32674154 131.371763,5.79169295 131.371763,7.16863855 C131.371763,8.75083308 130.497871,10.2742591 129.099381,11.182673" id="Fill-14" fill="#1D1C1B"></path>
                    <path d="M138.23842,12.4131528 C138.180278,12.5596333 138.296563,12.735351 138.384069,12.735351 C139.14153,12.7647353 140.539874,12.7647353 141.996507,12.735351 C142.637391,12.735351 142.986977,12.5596333 142.986977,11.9443272 C142.986977,11.1240661 142.142156,10.1571776 141.122469,10.1571776 C139.840702,10.1571776 138.733655,11.0654446 138.23842,12.4131528 M144.35625,10.5379974 C144.967916,11.1533034 145.375791,12.0029488 145.375791,13.0283119 C145.375791,13.2041766 145.113711,13.5851433 144.793196,13.5851433 C144.472681,13.5851433 139.549405,13.5851433 138.209349,13.5557591 C138.121843,13.5557591 137.976194,13.6730022 137.947123,13.7902454 C137.859617,14.0245847 137.830545,14.4934103 137.830545,14.8156085 C137.830545,15.8411186 138.267491,17.1888268 138.879304,18.009088 C139.549405,18.8881176 140.773029,19.5912825 142.171227,19.5912825 C143.423923,19.5912825 144.297961,19.2690843 144.793196,18.5365351 C144.909773,18.3900547 145.055422,18.1849526 145.171853,18.1849526 C145.346719,18.1849526 145.434079,18.419292 145.434079,18.5365351 C145.434079,18.7708744 145.288431,19.0932196 145.201071,19.2690843 C144.210601,20.7338888 142.695679,21.5250595 140.860243,21.5250595 C137.684897,21.5250595 135.616598,19.0932196 135.616598,15.6944912 C135.616598,13.3506571 136.840076,11.006823 139.14153,9.92269136 C139.898991,9.5711089 140.860243,9.42462845 141.413766,9.42462845 C142.462525,9.42462845 143.598643,9.80559516 144.35625,10.5379974" id="Fill-15" fill="#1D1C1B"></path>
                    <path d="M156.163319,10.1278375 C156.454616,10.3621768 156.600265,10.8310024 156.600265,11.0653417 C156.600265,11.5341673 155.726227,12.2667165 155.609795,12.2667165 C155.405712,12.2667165 154.910623,12.0616144 154.44446,11.6806477 C153.512279,11.0067201 152.987827,10.5086572 151.997211,10.5086572 C151.589482,10.5086572 150.773733,10.8602397 150.307715,11.4169242 C149.550109,12.2959538 149.113162,13.5558032 149.113162,14.8742741 C149.113162,16.6028022 149.783263,17.6283123 149.928912,17.80403 C150.599013,18.9466363 151.939069,19.6791855 153.483062,19.6791855 C154.502749,19.6791855 155.318498,19.327603 156.10503,18.8001558 C156.396328,18.5950538 156.629336,18.6830596 156.629336,18.8295401 C156.629336,19.1517383 156.454616,19.4740834 156.221462,19.7084228 C155.230992,20.8217917 153.54135,21.554194 151.96814,21.554194 C150.074561,21.554194 148.501496,20.5582151 147.627458,19.2103599 C147.103006,18.3607145 146.695131,17.0130062 146.695131,15.7823941 C146.695131,13.6142778 147.831395,11.8565124 149.550109,10.7137592 C150.657302,9.92273544 152.550735,9.48329409 153.395702,9.48329409 C154.298811,9.48329409 155.609795,9.71763343 156.163319,10.1278375" id="Fill-16" fill="#1D1C1B"></path>
                    <path d="M158.511126,10.4500944 C159.50145,10.098512 160.492065,9.65907063 160.841651,9.45396862 C161.191238,9.21962929 161.366104,9.13162348 161.453464,9.13162348 C161.599112,9.13162348 161.744761,9.36610974 161.744761,9.45396862 C161.744761,9.98141577 161.686472,10.508716 161.686472,11.0654005 C161.686472,11.1826436 161.832121,11.2411182 161.861338,11.1826436 C162.968385,10.1278962 164.250152,9.36610974 165.153262,9.36610974 C166.37674,9.36610974 166.668038,10.1278962 166.668038,10.3916198 C166.668038,10.4794787 166.580678,10.6845807 166.493318,10.8310611 C166.143731,11.3291241 165.444559,12.1787694 165.240622,12.2666283 C165.182333,12.2958656 164.891036,12.237391 164.80353,12.1787694 C164.483161,11.8856616 163.7257,11.5048418 163.143105,11.5048418 C162.706159,11.5048418 162.269213,11.5634634 162.006987,11.8564243 C161.80305,12.0615263 161.71569,12.2958656 161.71569,12.5009676 C161.71569,13.0870364 161.832121,18.3315359 161.861338,18.7709773 C161.919481,19.6206227 162.123565,20.1773071 162.618653,20.2944033 C162.968385,20.3530249 163.521909,20.4995053 163.929638,20.6167485 C164.395801,20.7632289 164.483161,20.9683309 164.483161,21.0855741 C164.483161,21.2612918 164.220935,21.378535 163.754918,21.378535 C162.997457,21.378535 161.861338,21.2320545 160.171551,21.2320545 C159.355801,21.2320545 158.948072,21.3492976 158.2489,21.3492976 C157.928531,21.3492976 157.637234,21.2320545 157.637234,20.9683309 C157.637234,20.7926132 158.015745,20.67537 158.219829,20.5875112 C159.32673,20.2065445 159.414236,19.9135836 159.443307,18.1556713 L159.443307,12.7060697 C159.443307,12.3544872 159.443307,11.9736674 159.15201,11.7685654 C158.511126,11.2705025 158.132323,11.0361632 158.132323,10.91892 C158.132323,10.8602985 158.219829,10.5381002 158.511126,10.4500944" id="Fill-17" fill="#1D1C1B"></path>
                    <path d="M176.223454,19.0639235 C176.398174,18.9466804 176.631329,18.507239 176.631329,18.3901428 L176.6604,11.6806918 C176.6604,11.5048271 176.398174,11.1240073 176.194383,11.0361485 C175.728219,10.9189053 175.174696,10.7138033 174.883398,10.6551818 C174.679461,10.5967071 174.329875,10.4208424 174.329875,10.1865031 C174.329875,10.06926 174.679461,9.8935422 174.941687,9.8935422 C176.106877,9.8935422 177.534438,9.74691483 178.23361,9.57119706 C178.524908,9.48333817 178.728845,9.45395393 178.932783,9.45395393 C179.078431,9.45395393 179.13672,9.77629907 179.13672,9.8935422 C179.078431,10.7724249 178.903711,17.481729 178.903711,19.5619864 C178.903711,19.6498453 178.990925,20.0014277 179.22408,20.0014277 C179.457235,20.0014277 180.302056,19.82571 180.680713,19.82571 C180.79729,19.82571 181.001228,20.3530102 181.030299,20.441016 C181.030299,20.5288749 180.826362,20.7339769 180.680713,20.7339769 C179.952323,20.7925985 178.641485,21.1441809 177.971384,21.3198987 C177.47615,21.4663792 176.922626,21.6128596 176.864483,21.6128596 C176.747906,21.6128596 176.543823,21.4077576 176.543823,21.2028025 C176.543823,21.0269378 176.631329,20.441016 176.6604,19.9428062 C176.6604,19.82571 176.543823,19.7377042 176.48568,19.7670884 C175.699148,20.3530102 174.56303,21.056322 174.184226,21.2028025 C173.688991,21.4077576 173.077179,21.5836223 172.232358,21.5836223 C171.125457,21.5836223 170.19313,21.1147967 169.61039,20.1772924 C169.406598,19.8549473 169.202515,19.2104039 169.202515,18.7415784 C169.202515,16.6614678 169.202515,13.4386041 169.144372,11.8857938 C169.115301,11.0653858 168.590849,10.9481427 168.095614,10.7431876 C167.833388,10.6259444 167.571162,10.4500797 167.571162,10.1865031 C167.571162,10.06926 167.716957,9.8935422 168.066397,9.8935422 C168.882146,9.8935422 171.241743,9.57119706 171.35832,9.57119706 C171.474897,9.57119706 171.591475,9.86415795 171.591475,10.0106384 C171.591475,11.2704878 171.503969,16.573462 171.503969,17.891933 C171.503969,18.5366233 171.82463,19.1517824 172.203141,19.4741275 C172.902459,19.9721904 173.426765,20.0600493 174.09672,20.0600493 C174.73775,20.0600493 175.49521,19.7084668 176.223454,19.0639235" id="Fill-18" fill="#1D1C1B"></path>
                    <path d="M186.748844,4.91270741 C186.748844,5.73296854 185.904023,6.40689614 185.292211,6.40689614 C185.088419,6.40689614 184.593039,6.28979994 184.301741,6.02607636 C184.068733,5.76235278 183.835724,5.44000764 183.835724,4.91270741 C183.835724,4.61974652 183.952155,4.12168361 184.214381,3.82872271 C184.534896,3.53561489 185.000913,3.38913444 185.437859,3.38913444 C186.282826,3.38913444 186.748844,4.35602294 186.748844,4.91270741 M182.903543,21.3492242 C182.466597,21.3492242 182.145936,21.2027437 182.145936,20.9976417 C182.145936,20.821777 182.350019,20.6752966 182.845108,20.5582004 C183.515209,20.3530984 183.923084,20.0015159 184.010444,19.708555 C184.09795,19.298351 184.127021,17.4818171 184.127021,16.3684482 C184.127021,15.4894186 184.156093,12.5596627 184.09795,12.2080802 C184.068733,12.0029782 183.748218,11.7392546 182.932614,11.1533328 C182.757894,11.0068524 182.670388,10.8896092 182.670388,10.8017504 C182.670388,10.5966483 182.961686,10.3621621 183.2822,10.2743032 C184.418319,10.0399639 185.874952,9.39542052 186.311898,9.27817739 C186.457546,9.27817739 186.603195,9.54190097 186.603195,9.60052253 C186.574124,10.0399639 186.428475,13.9073709 186.428475,15.5774244 C186.428475,17.0716131 186.457546,18.2436036 186.486764,19.2689667 C186.515835,20.1772337 187.098576,20.2652395 187.826819,20.4995788 C188.292837,20.6460593 188.467703,20.821777 188.467703,20.9976417 C188.467703,21.2027437 188.089046,21.3198399 187.739313,21.3198399 C187.535522,21.3198399 186.078889,21.2319811 185.467077,21.2319811 C184.505825,21.2319811 183.427849,21.3492242 182.903543,21.3492242" id="Fill-19" fill="#1D1C1B"></path>
                    <path d="M196.23408,9.65910002 C196.292223,9.65910002 196.554449,9.80558047 196.583666,9.92267667 C196.583666,9.83481779 196.671026,10.6844632 196.671026,11.0361925 C196.671026,11.3291534 196.117503,11.387775 195.913565,11.387775 L192.796508,11.387775 C192.67993,11.387775 192.563353,11.5342554 192.563353,11.5927301 C192.50521,12.3545166 192.475993,16.3391668 192.475993,17.8041182 C192.475993,18.5365204 192.67993,18.9174871 193.000299,19.2396853 C193.49568,19.6791267 194.107346,19.7963698 194.690087,19.7963698 C195.039527,19.7963698 195.651485,19.620652 196.088431,19.3569285 C196.350657,19.210448 196.438017,19.1812107 196.554449,19.1812107 C196.554449,19.1812107 196.700097,19.2396853 196.700097,19.5034089 C196.700097,19.7671325 196.496306,20.0600934 196.292223,20.2651954 C195.505837,21.0562192 194.456932,21.5836664 193.145948,21.5836664 C191.951687,21.5836664 190.932,20.8803545 190.524125,20.2358112 C190.203757,19.7377482 190.145322,19.1518265 190.145322,18.2727968 C190.145322,17.1888121 190.261899,12.7939579 190.261899,11.7685948 C190.261899,11.5634928 189.737447,11.3583908 189.125781,11.2119103 C188.892772,11.1240514 188.747123,10.9481867 188.747123,10.8310905 C188.747123,10.7138474 188.805266,10.5966043 188.921843,10.5087454 C190.028744,9.65910002 190.961071,8.98517242 191.398017,8.42848794 C191.747603,8.04766816 191.951687,7.78394459 192.068118,7.78394459 C192.213767,7.78394459 192.50521,8.04766816 192.50521,8.13552705 L192.50521,9.54185689 C192.50521,9.62971577 192.650859,9.77619622 192.767437,9.77619622 C193.408174,9.77619622 196.117503,9.65910002 196.23408,9.65910002" id="Fill-20" fill="#1D1C1B"></path>
                    <path d="M198.922708,10.4794346 C199.53452,10.2450953 200.932865,9.48330879 201.340739,9.24896945 C201.457317,9.16096365 201.515459,9.13172633 201.573748,9.16096365 C201.690326,9.16096365 201.894263,9.3954499 201.894263,9.45407147 C201.894263,9.86412857 201.777686,10.6551524 201.777686,10.9481133 C201.777686,11.0067348 201.835974,11.2118368 201.981623,11.123978 C202.797226,10.4500504 204.487014,9.3954499 205.856287,9.3954499 C206.905046,9.3954499 207.604218,9.60055191 208.12867,9.9813717 C208.623759,10.3915757 208.915056,10.8310171 209.060705,11.0067348 C209.089922,11.123978 209.177282,11.2118368 209.293859,11.123978 C209.818166,10.7137739 210.575773,10.2450953 211.304016,9.86412857 C211.973971,9.54193035 212.702214,9.3954499 213.197595,9.3954499 C214.275425,9.3954499 215.091174,9.77626968 215.70284,10.3915757 C216.372941,11.123978 216.635167,12.1787253 216.693456,13.262857 C216.809887,14.6398026 216.780816,16.9543993 216.780816,19.2396119 C216.780816,19.767059 216.984753,20.2945062 217.975223,20.5582298 C218.354026,20.675326 218.528746,20.8218064 218.528746,20.9976711 C218.528746,21.2027731 218.26652,21.3198693 217.712997,21.3198693 C217.130402,21.3198693 216.314799,21.2320104 215.586409,21.2320104 C214.683299,21.2320104 214.158993,21.290632 213.488893,21.290632 C212.935369,21.290632 212.760649,21.1147673 212.760649,20.9098122 C212.760649,20.7339475 213.081018,20.5874671 213.401386,20.4996082 C214.304642,20.2358846 214.421073,19.9135395 214.421073,18.8295548 C214.421073,18.1263899 214.392002,14.8156673 214.362785,13.8487788 C214.362785,12.9697492 214.246353,12.5010705 213.925839,11.9736233 C213.576399,11.3877015 212.935369,10.9481133 211.799251,10.9481133 C210.546409,10.9481133 210.022249,11.4755604 209.643446,11.7979056 C209.526868,11.8857644 209.352148,12.4424489 209.352148,12.6767883 C209.352148,12.8818903 209.322931,18.3901134 209.381219,19.0346568 C209.468579,19.972161 209.585157,20.2651219 210.604844,20.4996082 C210.925213,20.5874671 211.21651,20.7633318 211.21651,20.9390495 C211.21651,21.1441516 210.954284,21.290632 210.488266,21.290632 C209.847383,21.290632 208.885985,21.2320104 208.215884,21.2320104 C207.604218,21.2320104 206.671891,21.290632 206.060079,21.290632 C205.419341,21.290632 205.302764,21.0562927 205.302764,20.9098122 C205.302764,20.8218064 205.419341,20.6167044 205.885359,20.4996082 C206.817539,20.2651219 206.963188,19.972161 206.963188,18.9174137 L206.992406,13.3213316 C206.992406,12.4132116 206.788468,12.0030076 206.613602,11.7685213 C206.234945,11.2704584 205.506555,10.8896386 204.487014,10.8896386 C203.583905,10.8896386 202.943021,11.2118368 202.273066,11.739284 C202.0982,11.8857644 201.981623,12.149488 201.981623,12.4718332 C201.923334,13.4385747 201.894263,16.925162 201.894263,19.151753 C201.894263,19.7084375 202.039912,20.1480257 202.972239,20.4409866 C203.525762,20.6167044 203.729553,20.7339475 203.729553,20.9682869 C203.729553,21.1733889 203.321679,21.290632 202.943021,21.290632 C202.82659,21.290632 201.602966,21.2320104 200.495919,21.2320104 C199.53452,21.2320104 198.922708,21.3198693 198.281825,21.3198693 C197.844879,21.3198693 197.52451,21.2027731 197.52451,20.9976711 C197.52451,20.8511907 197.728301,20.6460886 198.252753,20.5288455 C199.214006,20.2945062 199.330583,19.8843022 199.44716,18.6244528 C199.505303,17.7748074 199.563738,14.991385 199.563738,12.8526529 C199.563738,12.6767883 199.592809,12.3252058 199.359654,12.0908665 C198.573122,11.3583173 198.340113,11.123978 198.340113,11.0067348 C198.340113,10.8310171 198.602339,10.6259151 198.922708,10.4794346" id="Fill-21" fill="#1D1C1B"></path>
                    <path d="M221.908161,12.4131528 C221.850019,12.5596333 221.966304,12.735351 222.05381,12.735351 C222.811271,12.7647353 224.209615,12.7647353 225.666248,12.735351 C226.307132,12.735351 226.656718,12.5596333 226.656718,11.9443272 C226.656718,11.1240661 225.811897,10.1571776 224.79221,10.1571776 C223.510443,10.1571776 222.403396,11.0654446 221.908161,12.4131528 M228.025991,10.5379974 C228.637657,11.1533034 229.045532,12.0029488 229.045532,13.0283119 C229.045532,13.2041766 228.783452,13.5851433 228.462937,13.5851433 C228.142422,13.5851433 223.219146,13.5851433 221.87909,13.5557591 C221.791584,13.5557591 221.645935,13.6730022 221.616864,13.7902454 C221.529358,14.0245847 221.500287,14.4934103 221.500287,14.8156085 C221.500287,15.8411186 221.937233,17.1888268 222.549045,18.009088 C223.219146,18.8881176 224.44277,19.5912825 225.840968,19.5912825 C227.093664,19.5912825 227.967702,19.2690843 228.462937,18.5365351 C228.579514,18.3900547 228.725163,18.1849526 228.841594,18.1849526 C229.016461,18.1849526 229.103821,18.419292 229.103821,18.5365351 C229.103821,18.7708744 228.958172,19.0932196 228.870812,19.2690843 C227.880342,20.7338888 226.365421,21.5250595 224.529984,21.5250595 C221.354638,21.5250595 219.286339,19.0932196 219.286339,15.6944912 C219.286339,13.3506571 220.509817,11.006823 222.811271,9.92269136 C223.568732,9.5711089 224.529984,9.42462845 225.083507,9.42462845 C226.132266,9.42462845 227.268384,9.80559516 228.025991,10.5379974" id="Fill-22" fill="#1D1C1B"></path>
                    <path d="M231.142873,10.2450659 C231.667325,10.0692012 232.774372,9.65914409 233.182101,9.39542052 C233.502616,9.19031851 233.82313,9.04383806 233.968779,9.04383806 C234.085357,9.04383806 234.231005,9.36603628 234.231005,9.4832794 C234.231005,9.92272075 234.143499,10.6552699 234.143499,10.9188466 C234.143499,11.065327 234.289148,11.0068524 234.318219,11.0068524 C235.483555,10.1864443 236.940334,9.39542052 238.192883,9.39542052 C239.620299,9.39542052 240.436049,10.0399639 240.843923,10.5086425 C241.514024,11.270429 241.86361,12.6182842 241.86361,14.0832356 C241.86361,14.6691574 241.921753,19.0052432 241.95097,19.4154472 C242.009259,19.8550355 242.300557,20.2358552 243.0288,20.4409572 C243.582323,20.5874377 243.75719,20.7633024 243.75719,20.9390202 C243.75719,21.1441222 243.349315,21.2906026 242.912223,21.2906026 C242.21305,21.2906026 241.455736,21.2319811 240.639986,21.2319811 C239.911597,21.2319811 238.950344,21.2906026 238.571687,21.2906026 C238.251172,21.2906026 237.843297,21.2027437 237.843297,20.9390202 C237.843297,20.7339181 238.163812,20.5582004 238.54247,20.4409572 C239.212424,20.1772337 239.387437,19.913657 239.445579,18.9467685 C239.503868,17.97988 239.503868,14.4348181 239.503868,13.5850258 C239.503868,12.6475215 239.037704,11.7686389 238.717336,11.5049153 C238.396821,11.2411917 237.522929,10.9482308 236.881899,10.9482308 C235.658421,10.9482308 234.930177,11.3584348 234.434797,11.7978762 C234.318219,11.8857351 234.143499,12.2667018 234.143499,12.5010411 C234.114428,12.8818609 234.143499,19.1811079 234.17257,19.5326903 C234.201788,19.9428943 234.318219,20.1772337 235.221475,20.4409572 C235.512772,20.5288161 235.745781,20.7339181 235.745781,20.9097828 C235.745781,21.1147379 235.425266,21.2612184 234.98832,21.2612184 C234.609517,21.2612184 233.735624,21.2319811 233.123958,21.2319811 C232.046129,21.2319811 231.142873,21.3198399 230.647638,21.3198399 C230.210692,21.3198399 229.890177,21.1733595 229.890177,20.9097828 C229.890177,20.7046808 230.181621,20.5582004 230.50199,20.4701946 C231.463242,20.1772337 231.60889,19.8842728 231.696397,18.8295254 C231.783903,17.9504958 231.871117,15.4309439 231.871117,12.4718038 C231.871117,12.1494586 231.754539,11.8564977 231.142873,11.3290506 C230.764216,11.0360897 230.647638,10.9188466 230.647638,10.8309877 C230.647638,10.6258857 230.938936,10.3329248 231.142873,10.2450659" id="Fill-23" fill="#1D1C1B"></path>
                    <path d="M251.532712,9.65910002 C251.590854,9.65910002 251.85308,9.80558047 251.882298,9.92267667 C251.882298,9.83481779 251.969658,10.6844632 251.969658,11.0361925 C251.969658,11.3291534 251.416134,11.387775 251.212197,11.387775 L248.095139,11.387775 C247.978562,11.387775 247.861985,11.5342554 247.861985,11.5927301 C247.803842,12.3545166 247.774479,16.3391668 247.774479,17.8041182 C247.774479,18.5365204 247.978562,18.9174871 248.298931,19.2396853 C248.794312,19.6791267 249.405978,19.7963698 249.988719,19.7963698 C250.338159,19.7963698 250.950117,19.620652 251.387063,19.3569285 C251.649289,19.210448 251.736649,19.1812107 251.85308,19.1812107 C251.85308,19.1812107 251.998729,19.2396853 251.998729,19.5034089 C251.998729,19.7671325 251.794938,20.0600934 251.590854,20.2651954 C250.804468,21.0562192 249.755564,21.5836664 248.444579,21.5836664 C247.250319,21.5836664 246.230632,20.8803545 245.822757,20.2358112 C245.502388,19.7377482 245.443953,19.1518265 245.443953,18.2727968 C245.443953,17.1888121 245.560531,12.7939579 245.560531,11.7685948 C245.560531,11.5634928 245.036079,11.3583908 244.424413,11.2119103 C244.191404,11.1240514 244.045609,10.9481867 244.045609,10.8310905 C244.045609,10.7138474 244.103898,10.5966043 244.220475,10.5087454 C245.327376,9.65910002 246.259703,8.98517242 246.696649,8.42848794 C247.046235,8.04766816 247.250319,7.78394459 247.36675,7.78394459 C247.512399,7.78394459 247.803842,8.04766816 247.803842,8.13552705 L247.803842,9.54185689 C247.803842,9.62971577 247.949491,9.77619622 248.066068,9.77619622 C248.706806,9.77619622 251.416134,9.65910002 251.532712,9.65910002" id="Fill-24" fill="#1D1C1B"></path>
                </g>
            </g>
        </g>
    </g>
</svg>