<?xml version="1.0" encoding="UTF-8"?>
<svg width="90px" height="64px" viewBox="0 0 90 64" version="1.1" xmlns="http://www.w3.org/2000/svg" xmlns:xlink="http://www.w3.org/1999/xlink">
    <!-- Generator: Sketch 52.4 (67378) - http://www.bohemiancoding.com/sketch -->
    <title>shuttle-02</title>
    <desc>Created with Sketch.</desc>
    <g id="Page-1" stroke="none" stroke-width="1" fill="none" fill-rule="evenodd">
        <g id="borderless-copy" transform="translate(-605.000000, -631.000000)">
            <g id="shuttle-02" transform="translate(650.000000, 663.000000) rotate(-270.000000) translate(-650.000000, -663.000000) translate(618.000000, 618.000000)">
                <g id="Group" transform="translate(0.000000, 53.000000)">
                    <path d="M15.9125,1.85 C15.9125,1.85 1.9,21.50625 1.1875,35.38125 L15.4375,35.38125 L16.15,2.775" id="Path" fill="#FFFFFF"></path>
                    <path d="M15.4375,36.5375 L1.1875,36.5375 C0.95,36.5375 0.475,36.30625 0.2375,36.075 C0,36.075 0,35.6125 0,35.38125 C0.7125,21.275 14.4875,2.08125 14.9625,1.15625 C15.4375,0.69375 16.15,0.4625 16.625,0.925 C17.1,1.15625 17.3375,1.85 17.1,2.3125 C17.1,2.54375 17.3375,2.54375 17.3375,2.775 L16.625,35.38125 C16.625,36.075 16.15,36.5375 15.4375,36.5375 Z M2.6125,34.225 L14.25,34.225 L14.725,5.78125 C10.925,11.79375 3.5625,24.28125 2.6125,34.225 Z" id="Shape" fill="#000000" fill-rule="nonzero"></path>
                </g>
                <g id="Group" transform="translate(44.000000, 54.000000)">
                    <path d="M1.63333333,4.0875 C1.63333333,4.0875 17.9666667,20.50625 18.6666667,34.38125 L2.33333333,34.38125 L1.63333333,1.775" id="Path" fill="#FFFFFF"></path>
                    <path d="M2.33333333,35.76875 C1.63333333,35.76875 1.16666667,35.30625 1.16666667,34.6125 L0.466666667,4.55 C0.466666667,4.31875 0.466666667,4.0875 0.466666667,3.85625 L0.466666667,2.00625 C0.466666667,1.3125 0.933333333,0.85 1.63333333,0.85 C2.33333333,0.85 2.8,1.3125 2.8,2.00625 L2.8,3.625 C5.36666667,6.16875 19.1333333,20.96875 19.8333333,34.38125 C19.8333333,34.6125 19.8333333,35.075 19.6,35.30625 C19.3666667,35.5375 19.1333333,35.76875 18.6666667,35.76875 L2.33333333,35.76875 C2.33333333,35.76875 2.33333333,35.76875 2.33333333,35.76875 Z M3.03333333,7.325 L3.5,33.45625 L17.5,33.45625 C16.3333333,23.28125 7.23333333,11.95 3.03333333,7.325 Z" id="Shape" fill="#000000" fill-rule="nonzero"></path>
                </g>
                <g id="Group" transform="translate(14.000000, 0.000000)">
                    <path d="M17.19375,1.15384615 C17.19375,1.15384615 -0.6125,26.7692308 1.46875,88.3846154 L33.15,88.3846154 C33.15,88.6153846 36.61875,37.1538462 17.19375,1.15384615 Z" id="Path" fill="#FFFFFF"></path>
                    <path d="M33.15,89.7692308 L1.46875,89.7692308 C0.775,89.7692308 0.3125,89.3076923 0.3125,88.6153846 C-1.76875,27.2307692 15.575,1.61538462 16.26875,0.461538462 C16.5,0.230769231 16.9625,0 17.425,0 C17.8875,0 18.11875,0.230769231 18.35,0.692307692 C37.775,36.4615385 34.5375,88.1538462 34.5375,88.6153846 C34.30625,89.3076923 33.84375,89.7692308 33.15,89.7692308 Z M2.625,87.2307692 L32.225,87.2307692 C32.45625,79.8461538 33.84375,35.7692308 17.19375,3.46153846 C13.49375,10.1538462 1.00625,36.2307692 2.625,87.2307692 Z" id="Shape" fill="#000000" fill-rule="nonzero"></path>
                </g>
                <g id="Group" transform="translate(23.000000, 62.000000)">
                    <circle id="Oval" fill="#000000" cx="7.54285714" cy="7.31428571" r="6.62857143"></circle>
                    <g transform="translate(2.285714, 2.285714)">
                        <circle id="Oval" fill="#FFFFFF" cx="5.25714286" cy="5.02857143" r="3.65714286"></circle>
                        <path d="M5.25714286,9.82857143 C5.25714286,9.82857143 5.25714286,9.82857143 5.25714286,9.82857143 C2.51428571,9.82857143 0.457142857,7.54285714 0.457142857,5.02857143 C0.457142857,2.28571429 2.74285714,0.228571429 5.25714286,0.228571429 C6.62857143,0.228571429 7.77142857,0.685714286 8.68571429,1.6 C9.6,2.51428571 10.0571429,3.65714286 10.0571429,5.02857143 C10.0571429,7.77142857 8,9.82857143 5.25714286,9.82857143 Z M5.25714286,2.51428571 C3.88571429,2.51428571 2.74285714,3.65714286 2.74285714,5.02857143 C2.74285714,6.4 3.88571429,7.54285714 5.25714286,7.54285714 L5.25714286,8.68571429 L5.25714286,7.54285714 C6.62857143,7.54285714 7.77142857,6.4 7.77142857,5.02857143 C7.77142857,4.34285714 7.54285714,3.65714286 7.08571429,3.2 C6.62857143,2.74285714 5.94285714,2.51428571 5.25714286,2.51428571 Z" id="Shape" fill="#000000" fill-rule="nonzero"></path>
                    </g>
                </g>
                <g id="Group" transform="translate(23.000000, 40.000000)">
                    <circle id="Oval" fill="#000000" cx="7.54285714" cy="7.22857143" r="6.62857143"></circle>
                    <g transform="translate(2.285714, 2.285714)">
                        <circle id="Oval" fill="#FFFFFF" cx="5.25714286" cy="4.71428571" r="3.65714286"></circle>
                        <path d="M5.25714286,9.74285714 C5.25714286,9.74285714 5.25714286,9.74285714 5.25714286,9.74285714 C3.88571429,9.74285714 2.74285714,9.28571429 1.82857143,8.37142857 C0.914285714,7.45714286 0.457142857,6.31428571 0.457142857,4.94285714 C0.457142857,2.2 2.74285714,0.142857143 5.25714286,0.142857143 C6.62857143,0.142857143 7.77142857,0.6 8.68571429,1.51428571 C9.6,2.42857143 10.0571429,3.57142857 10.0571429,4.94285714 C10.0571429,7.45714286 8,9.74285714 5.25714286,9.74285714 Z M5.25714286,2.2 C3.88571429,2.2 2.74285714,3.34285714 2.74285714,4.71428571 C2.74285714,5.4 2.97142857,6.08571429 3.42857143,6.54285714 C3.88571429,7 4.57142857,7.22857143 5.25714286,7.22857143 L5.25714286,8.37142857 L5.25714286,7.22857143 C6.62857143,7.22857143 7.77142857,6.08571429 7.77142857,4.71428571 C7.77142857,4.02857143 7.54285714,3.34285714 7.08571429,2.88571429 C6.62857143,2.65714286 5.94285714,2.2 5.25714286,2.2 Z" id="Shape" fill="#000000" fill-rule="nonzero"></path>
                    </g>
                </g>
                <g id="Group" transform="translate(23.000000, 0.000000)">
                    <path d="M1.82857143,13.4857143 L13.2571429,13.4857143 C13.2571429,13.4857143 10.2857143,6.17142857 7.77142857,1.14285714 C7.54285714,1.14285714 3.65714286,8.45714286 1.82857143,13.4857143 Z" id="Path" fill="#FFFFFF"></path>
                    <path d="M13.2571429,14.6285714 L1.82857143,14.6285714 C1.37142857,14.6285714 1.14285714,14.4 0.914285714,14.1714286 C0.685714286,13.9428571 0.685714286,13.4857143 0.685714286,13.0285714 C2.51428571,8 6.4,0.914285714 6.62857143,0.685714286 C6.85714286,0.228571429 7.08571429,0 7.54285714,0 C7.54285714,0 7.54285714,0 7.54285714,0 C8,0 8.45714286,0.228571429 8.45714286,0.685714286 C11.2,5.71428571 13.9428571,12.8 14.1714286,13.0285714 C14.4,13.4857143 14.1714286,13.7142857 13.9428571,14.1714286 C13.9428571,14.4 13.4857143,14.6285714 13.2571429,14.6285714 Z M3.42857143,12.3428571 L11.4285714,12.3428571 C10.5142857,10.2857143 9.14285714,6.85714286 7.54285714,3.65714286 C6.4,5.71428571 4.8,9.37142857 3.42857143,12.3428571 Z" id="Shape" fill="#000000" fill-rule="nonzero"></path>
                </g>
                <polygon id="Path" fill="#000000" points="24 17 38 17 36.852459 14 25.3770492 14"></polygon>
                <g id="Group" transform="translate(34.000000, 18.000000)">
                    <path d="M1.025,1.16666667 C1.025,1.16666667 4.175,10.7333333 5.075,19.1333333" id="Path" fill="#FFFFFF"></path>
                    <path d="M5.3,20.3 C4.625,20.3 4.175,19.8333333 4.175,19.3666667 C3.275,11.2 0.125,1.86666667 0.125,1.63333333 C-0.1,0.933333333 0.35,0.233333333 0.8,0.233333333 C1.475,-7.82707232e-15 2.15,0.466666667 2.15,0.933333333 C2.375,1.4 5.3,10.7333333 6.2,19.1333333 C6.425,19.6 5.975,20.3 5.3,20.3 C5.3,20.3 5.3,20.3 5.3,20.3 Z" id="Path" fill="#000000"></path>
                </g>
                <g id="Group" transform="translate(38.000000, 42.000000)">
                    <path d="M1.8,1.125 C2.03333333,3.15 2.5,4.95 2.73333333,6.975" id="Path" fill="#FFFFFF"></path>
                    <path d="M2.96666667,8.1 C2.5,8.1 1.8,7.65 1.8,7.2 L0.866666667,1.35 C0.866666667,0.675 1.1,0.225 1.8,0 C2.5,0 2.96666667,0.225 3.2,0.9 L4.13333333,6.75 C4.13333333,7.425 3.66666667,7.875 2.96666667,8.1 C2.96666667,8.1 2.96666667,8.1 2.96666667,8.1 Z" id="Path" fill="#000000"></path>
                </g>
                <g id="Group" transform="translate(14.000000, 79.000000)">
                    <polygon id="Rectangle" fill="#FFFFFF" transform="translate(17.540770, 5.480264) rotate(0.069517) translate(-17.540770, -5.480264) " points="1.4687121 1.63952357 33.6124875 1.64099924 33.6128273 9.32100448 1.46905182 9.31952881"></polygon>
                    <path d="M33.38125,10.76 L1.2375,10.76 C0.54375,10.76 0.08125,10.28 0.08125,9.56 L0.08125,1.88 C0.08125,1.64 0.3125,1.16 0.3125,0.92 C0.54375,0.68 0.775,0.68 1.2375,0.68 L33.38125,0.68 C34.075,0.68 34.5375,1.16 34.5375,1.88 L34.5375,9.56 C34.5375,9.8 34.30625,10.28 34.30625,10.52 C34.075,10.52 33.6125,10.76 33.38125,10.76 Z M2.625,8.12 L32.225,8.12 L32.225,2.84 L2.625,2.84 L2.625,8.12 Z" id="Shape" fill="#000000" fill-rule="nonzero"></path>
                </g>
            </g>
        </g>
    </g>
</svg>