<svg xmlns="http://www.w3.org/2000/svg" width="147" height="146" viewBox="0 0 147 146">
    <g fill="none" fill-rule="evenodd">
        <path fill="#FFF" stroke="#000" stroke-width="2" d="M22.588 123.912c-27.922-27.923-27.764-73.352.354-101.47 28.118-28.118 73.547-28.276 101.47-.354 27.922 27.923 27.764 73.352-.354 101.47-28.118 28.118-73.547 28.276-101.47.354z"/>
        <path fill="#000" d="M79.157 56.737A2.5 2.5 0 1 1 75.62 53.2a2.5 2.5 0 0 1 3.536 3.536M45.216 128.861a2.5 2.5 0 1 1-3.536-3.535 2.5 2.5 0 0 1 3.536 3.535M45.923 91.385a2.5 2.5 0 1 1-3.536-3.536 2.5 2.5 0 0 1 3.536 3.536M99.663 97.042a2.5 2.5 0 1 1-3.536-3.536 2.5 2.5 0 0 1 3.536 3.536M124.412 35.523a2.5 2.5 0 1 1-3.536-3.536 2.5 2.5 0 0 1 3.536 3.536M74.918 88.169c-1.258-.117-2.49 1.06-3.44 2.128-1.371 1.541-2.695 3.198-2.511 5.022.023.23.07.47.122.723.118.59.252 1.257.07 1.935-.148.549-.466.981-.779 1.377-.104.132-.21.263-.317.395-.643.797-1.251 1.55-1.506 2.435-.252.877.012 2.042.805 2.376.74.313 1.683-.086 2.97-1.254 1.61-1.461 3.32-3.19 3.245-5.22-.008-.233-.04-.477-.075-.735-.08-.608-.171-1.297.061-1.974.29-.844.975-1.377 1.579-1.847.19-.148.37-.288.535-.434.86-.762 1.342-1.835 1.258-2.8-.09-1.016-.89-1.935-1.785-2.05a.635.635 0 0 1-.232-.077m-8.832 17.015c-.844-.844-1.067-2.238-.743-3.366.324-1.127 1.04-2.014 1.733-2.871l.309-.386c.233-.294.468-.609.553-.929.106-.394.012-.863-.088-1.36a8.752 8.752 0 0 1-.14-.846c-.234-2.328 1.332-4.306 2.819-5.976 1.261-1.418 2.968-2.978 4.99-2.45a.646.646 0 0 1 .177.076c1.306.37 2.369 1.667 2.497 3.128.12 1.374-.504 2.81-1.67 3.843-.195.172-.399.33-.596.484-.513.4-.998.777-1.168 1.273-.137.398-.073.885-.005 1.401.037.276.074.561.085.854.095 2.565-1.834 4.539-3.65 6.188-1.063.965-2.665 2.168-4.304 1.476a2.5 2.5 0 0 1-.799-.539M120.514 103.044a747.563 747.563 0 0 0 9.406-48.988l1.186.182a748.886 748.886 0 0 1-9.422 49.067l-1.17-.261zM120.569 64.915l.087-15.737 1.235.088-.088 15.736zM33.1 70.785a453.812 453.812 0 0 1-5.185-33.517l1.181-.186a452.596 452.596 0 0 0 5.173 33.43l-1.168.273zM40.9 48.886L34.972 23.14l1.125-.272 5.93 25.745zM15.354 66.092c-.898-.898-2.349-.91-3.234-.024-.884.884-.873 2.335.025 3.233.899.898 2.349.91 3.234.025.884-.885.873-2.335-.025-3.234m-4.08 4.08a3.504 3.504 0 0 1 0-4.95 3.504 3.504 0 0 1 4.95 0 3.504 3.504 0 0 1 0 4.95 3.504 3.504 0 0 1-4.95 0M93.338 78.696c-2.527-6.207-2.602-13.335-.209-19.556 1.549-4.024 4.06-7.587 6.488-11.033.984-1.397 2.002-2.841 2.937-4.29 4.026-6.245 5.507-11.615 4.525-16.417l1.164-.267c1.048 5.123-.489 10.784-4.696 17.31-.948 1.47-1.973 2.924-2.965 4.331-2.385 3.385-4.851 6.884-6.345 10.767-2.286 5.94-2.212 12.75.203 18.682l-1.102.473zM107.2 123.671l-.013-18.598 1.202-.013.013 18.598zM90.753 40.755a278.736 278.736 0 0 0 8.825-27.067l1.176.3a279.982 279.982 0 0 1-8.864 27.187l-1.137-.42zM71.768 40.156l.872-10.844 1.177.165-.871 10.843zM31.338 115.691c1.937-3.801 1.425-8.882-1.245-12.355-.78-1.016-1.745-1.93-2.68-2.816-1.043-.99-2.124-2.013-2.998-3.215-3.142-4.318-3.09-9.849-2.741-15.612l1.185.063c-.334 5.54-.394 10.844 2.519 14.846.81 1.114 1.804 2.056 2.856 3.053.967.917 1.967 1.864 2.804 2.953 2.983 3.882 3.53 9.355 1.358 13.617l-1.058-.534zM51.783 13.427c-.004-.04.04-.073.077-.058 5.835 2.323 7.66 6.908 7.418 10.743-.226 3.569-2.458 6.825-5.033 9.453-.155.159-.413.08-.435-.132l-2.027-20.006zM55.89 44.863c3.652 1.616 6.081 6.09 5.239 9.904-.73 3.306-3.057 5.68-3.967 6.986-.186.267-.614.133-.636-.198l-.962-16.47a.23.23 0 0 1 .327-.222zM59.426 113.452c3.652 1.616 6.08 6.091 5.239 9.904-.73 3.307-3.057 5.68-3.968 6.987-.186.267-.614.133-.635-.199l-.963-16.47a.23.23 0 0 1 .327-.222zM103.636 78.816a.426.426 0 0 0 .653.445c3.416-2.253 5.925-5.998 6.891-10.342.973-4.374.37-9.305-1.63-13.577-.153-.325-.633-.268-.711.082l-5.203 23.392zM125.864 40.713a.57.57 0 0 0-.694-.009c-.149.11-.287.33-.186.59.04.106.114.193.206.255l.674-.836zm-8.318 4.208c-.717-.716-1.272-1.692-1.693-2.97-.762-2.315-.885-4.878-.355-7.413l1.189.236c-.487 2.326-.376 4.672.32 6.785.4 1.212.92 2.087 1.592 2.675.788.69 1.824.965 2.77.734 1.26-.308 2.82-2.946 3.332-3.813.303-.513.405-.685.728-.723a.648.648 0 0 1 .689.415.724.724 0 0 1-.236.833.636.636 0 0 1-.133.076.134.134 0 0 1-.005.008c-1.087 1.84-2.536 4.001-4.098 4.383-1.33.325-2.77-.047-3.853-.995a5.085 5.085 0 0 1-.247-.23zM44.296 58.419c-.643.026-1.205.582-1.477 1.122-.348.69-.423 1.534-.466 2.27-.198 3.374.266 5.96 1.42 7.903.158.266.336.53.567.67.47.281 1.166.005 1.543-.412.501-.555.691-1.378.801-2.034.506-3.013.139-5.763-1.091-8.176-.412-.702-1.04-1.354-1.297-1.343m-.998 12.664a3.705 3.705 0 0 1-.549-.74c-1.275-2.15-1.792-4.95-1.58-8.565.05-.857.142-1.847.594-2.744.53-1.053 1.52-1.76 2.521-1.8 1.118-.045 2.078 1.46 2.346 1.922l.015.027c1.351 2.643 1.758 5.643 1.209 8.917-.138.819-.387 1.86-1.102 2.652-.704.78-2.01 1.274-3.044.653a2.126 2.126 0 0 1-.41-.322M97.422 118.462c-.102-.518-.68-1.197-1.51-1.322-.278-.042-.564-.017-.811.116-.507.275-.781.776-1.007 1.284a25.992 25.992 0 0 0-1.932 6.697c-.22 1.463-.351 3.014.144 4.418.126.356.305.715.62.923.433.287 1.032.21 1.472-.064.44-.274.75-.714 1.017-1.16a11.1 11.1 0 0 0 1.289-3.216c.116-.512.43-1.873.563-2.38.563-2.141.506-3.509.155-5.296M16.537 52.807a.616.616 0 0 1 .174-1.002c1.61-.738 2.942-2.222 3.751-4.177.648-1.565.982-3.43 1.053-5.872.076-2.64-.525-4.356-1.785-5.096a.617.617 0 1 1 .621-1.07c1.687.992 2.496 3.082 2.405 6.214-.075 2.596-.438 4.6-1.145 6.309-.929 2.241-2.481 3.954-4.373 4.822a.624.624 0 0 1-.7-.128M132.808 94.124a.636.636 0 0 1-.168-.297c-1.897-7.614.395-16.036 5.838-21.459a.617.617 0 0 1 .872.014.617.617 0 0 1 .012.873c-5.151 5.131-7.32 13.102-5.526 20.306a.598.598 0 0 1-.448.736.63.63 0 0 1-.58-.173M25.619 114.214c1.405-1.979 1.68-4.658.703-6.826-.979-2.169-3.153-3.696-5.54-3.892l.131-1.244c2.821.232 5.392 2.038 6.548 4.6 1.156 2.562.83 5.73-.831 8.068l-1.011-.706z"/>
        <path fill="#010202" d="M33.94 90.64l-.076.076c-.42.42.286 1.128.707.707l.076-.077c.42-.42-.286-1.127-.707-.707l-.076.077c-.42.42.286 1.128.707.707M116.634 82.192c-.472-.471-1.179.236-.708.707.472.472 1.179-.235.708-.707zM103.906 90.678c-.472-.472-1.179.235-.708.707.472.471 1.179-.236.708-.707zM57.875 130.742c0 .221.195.432.423.423a.429.429 0 0 0 .422-.422v-.227c0-.22-.195-.432-.423-.422a.429.429 0 0 0-.422.421v.227zM63.6 19.26c-.47-.472-1.178.236-.707.707.472.471 1.179-.236.708-.707zM82.749 21.438c.155.155.467.141.65-.057.185-.199.223-.484.057-.65l-.113-.113c-.155-.156-.467-.142-.65.056-.185.2-.223.484-.057.65l.113.114zM106.734 17.139c-.471-.472-1.178.235-.707.707.471.471 1.178-.236.707-.707zM41.03 16.488c.155.155.466.141.65-.057.184-.199.223-.484.057-.65l-.113-.113c-.156-.155-.467-.141-.65.057-.185.198-.224.484-.057.65l.112.113zM41.624 78.713c-.155.156-.142.467.056.65.2.185.484.224.651.057l.113-.112c.155-.156.141-.467-.057-.65-.199-.185-.484-.224-.65-.057l-.113.112zM11.275 80.071c-.472-.471-1.179.236-.708.707.472.472 1.179-.236.708-.707zM13.452 92.743c.156-.156.142-.467-.056-.65-.2-.185-.484-.224-.65-.057l-.113.112c-.156.156-.142.467.056.65.199.185.484.224.65.057l.113-.112zM31.017 121.027c-.155-.155-.467-.142-.65.057-.185.198-.223.484-.057.65l.113.113c.155.155.467.141.65-.057.185-.199.223-.484.057-.65l-.113-.113zM134.35 58.896c.42.42 1.127-.286.707-.707l-.077-.077c-.42-.42-1.128.287-.707.708l.076.076c.42.42 1.128-.286.708-.707l-.077-.077c-.42-.42-1.128.287-.707.708l.076.076zM130.069 43.302c-.472-.472-1.179.235-.708.707.472.471 1.179-.236.708-.707zM101.077 60.98c-.471-.472-1.178.235-.707.706.471.472 1.179-.235.707-.707zM92.53 84.376c-.153.152-.136.46.062.645.199.184.481.225.645.062l.124-.125c.153-.152.136-.46-.062-.644-.199-.185-.482-.226-.645-.063l-.124.125zM81.278 68.05c-.471-.471-1.178.236-.707.707.471.472 1.179-.235.707-.707zM90.47 48.958c-.47-.471-1.178.236-.707.707.472.472 1.179-.235.708-.707zM84.107 32.695c-.472-.471-1.179.236-.708.707.472.471 1.179-.236.708-.707z"/>
    </g>
</svg>
