<svg xmlns="http://www.w3.org/2000/svg" width="195" height="195" viewBox="0 0 195 195">
    <g fill="none" fill-rule="evenodd">
        <path fill="#000" d="M97.832 194.517C44.333 194.517.964 151 .964 97.32S44.334.123 97.832.123c53.5 0 96.869 43.517 96.869 97.197s-43.37 97.197-96.869 97.197z"/>
        <path fill="#FFF" d="M88.073 76.944a3.516 3.516 0 0 1-3.51 3.522 3.516 3.516 0 0 1-3.51-3.522 3.516 3.516 0 0 1 3.51-3.522 3.516 3.516 0 0 1 3.51 3.522M125.02 177.522a3.516 3.516 0 0 1-3.51 3.522 3.516 3.516 0 0 1-3.51-3.522 3.516 3.516 0 0 1 3.51-3.522 3.516 3.516 0 0 1 3.51 3.522M90.02 141.522a3.516 3.516 0 0 1-3.51 3.522 3.516 3.516 0 0 1-3.51-3.522A3.516 3.516 0 0 1 86.51 138a3.516 3.516 0 0 1 3.51 3.522M147.02 95.522a3.516 3.516 0 0 1-3.51 3.522 3.516 3.516 0 0 1-3.51-3.522A3.516 3.516 0 0 1 143.51 92a3.516 3.516 0 0 1 3.51 3.522M111.363 12.521a3.516 3.516 0 0 1-3.51 3.522 3.516 3.516 0 0 1-3.51-3.522 3.516 3.516 0 0 1 3.51-3.522 3.516 3.516 0 0 1 3.51 3.522M113.32 110.736c-1.251 1.058-1.301 3.289-1.194 5.16.155 2.698.458 5.46 2.283 6.98.23.191.492.369.769.557.643.436 1.371.93 1.822 1.728.365.644.47 1.34.545 1.997l.07.66c.14 1.334.272 2.594.846 3.65.568 1.047 1.866 1.882 2.891 1.457.957-.396 1.453-1.64 1.56-3.914.135-2.845.119-6.033-1.795-7.843-.22-.208-.47-.404-.736-.612-.626-.489-1.335-1.043-1.74-1.885-.503-1.052-.365-2.18-.244-3.174.038-.314.075-.61.092-.899.09-1.502-.448-2.943-1.403-3.76-1.004-.857-2.568-.968-3.487-.245a.81.81 0 0 1-.28.143m7.44 23.949c-1.535 0-3.005-1.085-3.735-2.431-.73-1.344-.886-2.83-1.036-4.265-.022-.216-.045-.43-.07-.644-.055-.489-.128-.997-.34-1.374-.263-.463-.775-.81-1.317-1.178a11.26 11.26 0 0 1-.897-.654c-2.33-1.94-2.704-5.224-2.871-8.149-.143-2.482-.009-5.51 2.309-6.893a.822.822 0 0 1 .23-.094c1.525-.867 3.67-.65 5.115.585 1.359 1.162 2.098 3.071 1.976 5.109-.02.339-.062.674-.102 1-.103.845-.2 1.644.096 2.262.237.495.739.887 1.27 1.302.283.221.577.451.853.712 2.419 2.288 2.46 5.905 2.307 9.116-.088 1.879-.452 4.477-2.57 5.354a3.162 3.162 0 0 1-1.217.242M172.615 79.768a1003.143 1003.143 0 0 0-37.594-55.41l1.298-.952a1004.92 1004.92 0 0 1 37.654 55.5l-1.358.862zM134.451 44.594l-13.969-15.127 1.18-1.096 13.969 15.126zM58.404 133.875a626.343 626.343 0 0 1-37.801-26.62l.972-1.285a624.665 624.665 0 0 0 37.704 26.55l-.875 1.355zM45.57 106.916L14.164 87.45l.845-1.372 31.408 19.467zM36.738 146.623c-1.708 0-3.097 1.334-3.097 2.974 0 1.64 1.39 2.974 3.097 2.974 1.708 0 3.098-1.334 3.098-2.974 0-1.64-1.39-2.974-3.098-2.974m0 7.561c-2.594 0-4.706-2.058-4.706-4.587 0-2.53 2.112-4.588 4.706-4.588 2.595 0 4.706 2.058 4.706 4.588 0 2.53-2.111 4.587-4.706 4.587M123.405 83.144c-8.47-3.488-15.458-10.173-19.17-18.339-2.401-5.281-3.422-11.038-4.408-16.606-.4-2.257-.814-4.59-1.313-6.85C96.363 31.614 92.59 25.121 86.98 21.5l.87-1.357c5.984 3.863 9.986 10.685 12.234 20.857.506 2.292.923 4.643 1.326 6.917.969 5.468 1.971 11.123 4.288 16.219 3.544 7.797 10.22 14.18 18.317 17.515l-.61 1.493zM179.41 113.321l-17.704-17.558 1.13-1.148 17.705 17.558zM83.831 48.762a363.99 363.99 0 0 0-17.166-33.315l1.388-.814a365.618 365.618 0 0 1 17.243 33.463l-1.465.666zM64.757 68.012L55.43 56.34l1.255-1.01 9.326 11.673zM98.75 177.71c-1.791-5.49-7.162-9.862-13.06-10.632-1.725-.225-3.531-.177-5.278-.13-1.953.052-3.974.107-5.967-.207-7.165-1.125-12.426-6.468-17.626-12.316l1.2-1.074c4.999 5.621 10.035 10.753 16.674 11.796 1.849.29 3.708.241 5.676.188 1.81-.048 3.679-.098 5.528.143 6.594.86 12.373 5.574 14.381 11.73l-1.528.502zM21.217 62.214a.075.075 0 0 1 .019-.128c8.238-3.34 14.712-.715 18.341 3.162 3.377 3.608 4.41 8.827 4.465 13.775a.356.356 0 0 1-.572.288L21.217 62.214zM54.2 87.76c4.88-1.967 11.277.01 14.03 4.506 2.387 3.9 2.431 8.44 2.798 10.58a.465.465 0 0 1-.773.423L54.102 88.29a.32.32 0 0 1 .097-.53zM124.2 149.76c4.88-1.967 11.277.01 14.03 4.506 2.387 3.9 2.431 8.44 2.798 10.58a.465.465 0 0 1-.773.423l-16.153-14.98a.32.32 0 0 1 .097-.53zM133.54 74.357c.283.448.963.317 1.069-.203 1.131-5.544-.072-11.658-3.36-16.85-3.311-5.228-8.698-9.46-14.805-11.68-.465-.17-.877.356-.612.774l17.707 27.959zM117.128 15.386a.757.757 0 0 0-.661.641c-.037.241.04.576.38.725.138.061.29.074.434.045l-.153-1.41zM113.26 27.09c-1.349 0-2.79-.393-4.39-1.194-2.897-1.45-5.426-3.73-7.314-6.594l1.342-.89c1.732 2.628 4.045 4.717 6.69 6.04 1.517.76 2.83 1.09 4.017 1.013 1.392-.092 2.625-.803 3.299-1.904.896-1.464-.12-5.386-.454-6.675-.197-.761-.264-1.018.005-1.356a.867.867 0 0 1 1.04-.255.955.955 0 0 1 .562.998.836.836 0 0 1-.054.195.175.175 0 0 1 .003.013c.709 2.735 1.38 6.108.268 7.924-.946 1.546-2.652 2.544-4.563 2.67-.15.01-.3.015-.45.015zM56.588 111.334c-.6.634-.606 1.695-.345 2.465.333.983 1.082 1.854 1.757 2.593 3.093 3.386 6.063 5.396 9.08 6.145.412.102.844.185 1.204.098.731-.178 1.14-1.1 1.101-1.853-.052-1.001-.669-1.962-1.2-2.688-2.441-3.335-5.478-5.595-9.026-6.716-1.084-.275-2.33-.298-2.57-.044m11.361 12.95c-.447 0-.874-.086-1.256-.18-3.335-.828-6.566-2.994-9.88-6.621-.785-.86-1.66-1.886-2.094-3.164-.508-1.501-.233-3.11.703-4.097 1.044-1.102 3.446-.585 4.157-.4l.04.01c3.89 1.224 7.208 3.682 9.861 7.307.664.906 1.435 2.13 1.51 3.558.074 1.407-.717 3.114-2.328 3.506-.24.058-.48.082-.713.082M165.66 117.332c-.58-.39-1.756-.486-2.65.176-.298.221-.543.513-.649.87-.217.733-.005 1.46.259 2.148a34.508 34.508 0 0 0 4.456 8.094c1.163 1.578 2.49 3.156 4.266 4.008.45.216.954.385 1.443.285.673-.137 1.161-.77 1.317-1.441.154-.67.034-1.374-.134-2.041a14.748 14.748 0 0 0-1.803-4.226c-.369-.59-1.35-2.16-1.7-2.761-1.474-2.537-2.807-3.765-4.806-5.112M24.23 132.273a.822.822 0 0 1-.768-1.104c.808-2.206.668-4.851-.394-7.449-.85-2.078-2.27-4.145-4.469-6.505-2.377-2.552-4.524-3.6-6.379-3.11a.821.821 0 0 1-.416-1.588c2.483-.654 5.17.55 7.99 3.577 2.338 2.51 3.86 4.734 4.788 7.003 1.218 2.978 1.366 6.046.417 8.639a.818.818 0 0 1-.768.537M175.716 60.931a.811.811 0 0 1-.43-.123c-8.791-5.458-14.459-15.687-14.44-26.06a.82.82 0 0 1 .819-.82h.001a.82.82 0 0 1 .817.823c-.018 9.816 5.345 19.496 13.664 24.661a.822.822 0 0 1-.431 1.52M91.441 181.925c-.529-3.058-2.746-5.73-5.649-6.805-2.903-1.076-6.318-.49-8.701 1.49l-1.026-1.243c2.817-2.34 6.854-3.032 10.284-1.76 3.43 1.27 6.052 4.427 6.677 8.043l-1.585.275z"/>
        <path fill="#010202" d="M77.524 152.663v.193c0 1.056 1.627 1.058 1.627 0v-.193c0-1.056-1.627-1.058-1.627 0v.193c0 1.056 1.627 1.058 1.627 0M148.07 64.386c-1.05 0-1.05 1.641 0 1.641 1.049 0 1.049-1.641 0-1.641zM144.676 85.239c-1.05 0-1.05 1.64 0 1.64 1.049 0 1.049-1.64 0-1.64zM139.164 167.872c.301.303.853.326 1.15 0 .298-.328.322-.837 0-1.16l-.308-.312c-.302-.304-.854-.327-1.15 0-.299.327-.322.836 0 1.16l.308.312zM36.682 55.049c-1.049 0-1.049 1.641 0 1.641 1.05 0 1.05-1.641 0-1.641zM58.281 39.883c.426 0 .833-.377.814-.82-.02-.445-.358-.82-.814-.82h-.308c-.426 0-.833.377-.814.82.02.444.357.82.814.82h.308zM77.411 13.032c-1.049 0-1.049 1.641 0 1.641 1.05 0 1.05-1.64 0-1.64zM13.232 74.742c.426 0 .834-.378.814-.821-.02-.444-.357-.82-.814-.82h-.308c-.426 0-.833.377-.814.82.02.444.358.82.814.82h.308zM72.895 133.678c0 .43.374.84.814.82.44-.02.813-.36.813-.82v-.311c0-.43-.374-.84-.813-.82-.441.02-.814.36-.814.82v.311zM44.705 163.98c-1.05 0-1.05 1.642 0 1.642 1.049 0 1.049-1.641 0-1.641zM60.946 172.894c0-.43-.374-.841-.814-.821-.44.02-.813.36-.813.82v.312c0 .43.374.84.813.82.441-.02.814-.36.814-.82v-.311zM103.638 183.277c-.425 0-.833.378-.813.821.02.444.357.82.813.82h.309c.426 0 .833-.377.813-.82-.02-.445-.357-.82-.813-.82h-.309zM143.941 25.567c1.047 0 1.049-1.642 0-1.642h-.19c-1.048 0-1.05 1.642 0 1.642h.19c1.047 0 1.049-1.642 0-1.642h-.19c-1.048 0-1.05 1.642 0 1.642h.19zM124.003 13.966c-1.05 0-1.05 1.641 0 1.641 1.049 0 1.049-1.641 0-1.641zM112.586 60.962c-1.049 0-1.049 1.641 0 1.641 1.05 0 1.05-1.64 0-1.64zM126.12 90.127c0 .43.375.841.814.82.44-.019.814-.36.814-.82v-.352c0-.429-.375-.84-.814-.82-.44.02-.813.36-.813.82v.352zM101.111 85.435c-1.049 0-1.049 1.641 0 1.641 1.05 0 1.05-1.641 0-1.641zM91.226 59.341c-1.05 0-1.05 1.642 0 1.642 1.049 0 1.049-1.642 0-1.642zM70.511 48.696c-1.049 0-1.049 1.641 0 1.641 1.05 0 1.05-1.64 0-1.64z"/>
    </g>
</svg>
