<?xml version="1.0" encoding="UTF-8"?>
<svg width="36px" height="38px" viewBox="0 0 36 38" version="1.1" xmlns="http://www.w3.org/2000/svg" xmlns:xlink="http://www.w3.org/1999/xlink">
    <!-- Generator: Sketch 50.2 (55047) - http://www.bohemiancoding.com/sketch -->
    <title>Shape</title>
    <desc>Created with Sketch.</desc>
    <defs></defs>
    <g id="Footer" stroke="none" stroke-width="1" fill="none" fill-rule="evenodd">
        <g id="footer" transform="translate(-289.000000, -156.000000)" fill="#000000" fill-rule="nonzero">
            <g id="habr" transform="translate(280.000000, 150.000000)">
                <path d="M31.65157,27.1311174 C31.7542271,27.2296133 31.9595411,27.2296133 32.0621981,27.3281091 C32.1648551,27.1311174 32.1648551,26.9341257 32.1648551,26.7371341 C31.9595411,26.7371341 31.7542271,26.7371341 31.548913,26.7371341 C31.548913,26.9341257 31.548913,27.0326216 31.65157,27.1311174 Z M25.3894928,12.258246 C26.1080918,12.4552377 27.1346618,12.6522294 27.8532609,12.6522294 C26.5187198,10.9778002 24.4655797,10.5838168 22.5150966,11.076296 C23.7469807,11.2732877 24.6708937,11.7657669 25.3894928,12.258246 Z M28.6745169,12.4552377 C28.9824879,12.3567419 29.1878019,12.0612544 29.3931159,11.7657669 C28.9824879,11.4702794 28.4692029,11.2732877 27.7506039,11.076296 C27.6479469,11.1747918 27.6479469,11.1747918 27.5452899,11.2732877 C28.0585749,11.667271 28.3665459,12.0612544 28.6745169,12.4552377 Z M29.701087,11.2732877 C29.906401,10.8793043 30.009058,10.485321 30.009058,10.485321 C30.009058,10.485321 30.009058,10.8793043 29.701087,11.2732877 C30.214372,11.5687752 30.522343,11.8642627 30.727657,12.1597502 C31.035628,11.8642627 31.65157,11.1747918 31.65157,10.3868251 C31.65157,9.30337094 30.830314,9.20487511 30.830314,9.20487511 C30.727657,9.20487511 30.727657,9.10637927 30.727657,9.10637927 C30.727657,9.00788343 30.830314,9.00788343 30.830314,9.00788343 C30.830314,9.00788343 31.9595411,9.10637927 31.8568841,10.3868251 C31.8568841,11.2732877 31.138285,12.0612544 30.830314,12.3567419 C30.932971,12.4552377 31.035628,12.5537336 31.035628,12.6522294 L32.4728261,11.667271 C33.3967391,10.485321 33.3967391,9.30337094 33.3967391,9.30337094 C33.3967391,9.20487511 33.4993961,9.20487511 33.4993961,9.20487511 C33.6020531,9.20487511 33.6020531,9.30337094 33.6020531,9.30337094 C33.6020531,9.30337094 33.6020531,10.2883293 33.0887681,11.2732877 L37.9136473,7.92442923 L31.446256,13.4401961 C31.65157,13.9326753 31.65157,14.2281628 31.548913,14.6221461 L31.65157,14.6221461 C33.1914251,13.6371878 34.9365942,12.9477169 34.9365942,12.9477169 C34.9365942,12.9477169 33.7047101,13.9326753 32.3701691,14.8191378 C32.6781401,14.9176336 32.9861111,15.1146253 33.2940821,15.2131212 C33.6020531,15.0161295 34.2179952,14.720642 34.8339372,14.5236503 C35.3472222,14.0311711 35.6551932,13.8341794 35.6551932,13.8341794 C35.7578502,13.8341794 35.7578502,13.8341794 35.7578502,13.8341794 C35.7578502,13.8341794 35.7578502,13.9326753 35.7578502,13.9326753 C35.7578502,13.9326753 35.5525362,14.0311711 35.2445652,14.4251545 C35.4498792,14.4251545 35.5525362,14.3266586 35.7578502,14.3266586 C36.1684783,14.3266586 36.3737923,14.3266586 36.5791063,14.4251545 C36.7844203,14.2281628 36.8870773,14.0311711 36.9897343,13.8341794 C37.5030193,12.7507252 36.6817633,13.2432044 36.6817633,13.2432044 C36.5791063,13.2432044 36.5791063,13.2432044 36.5791063,13.2432044 C36.5791063,13.1447086 36.5791063,13.1447086 36.5791063,13.1447086 C36.5791063,13.1447086 38.0163043,12.3567419 37.1950483,14.0311711 C37.0923913,14.2281628 36.9897343,14.4251545 36.7844203,14.720642 C37.1950483,15.0161295 37.2977053,15.4101128 37.2977053,15.4101128 C37.2977053,15.5086087 37.2977053,15.5086087 37.1950483,15.5086087 C37.0923913,15.5086087 37.0923913,15.5086087 37.0923913,15.4101128 C37.0923913,15.4101128 37.0923913,15.0161295 36.6817633,14.8191378 C36.1684783,15.4101128 35.4498792,15.902592 34.9365942,16.0995837 C35.7578502,16.6905587 36.4764493,17.2815337 37.0923913,18.1679963 C37.9136473,17.4785254 38.7349034,17.2815337 38.9402174,18.4634838 L38.9402174,18.5619796 C39.0428744,18.4634838 39.0428744,18.3649879 39.1455314,18.2664921 C39.3508454,18.0695004 39.4535024,17.8725088 39.6588164,17.7740129 C39.6588164,17.6755171 39.6588164,17.6755171 39.6588164,17.6755171 C39.6588164,17.5770212 39.7614734,17.5770212 39.7614734,17.5770212 C39.7614734,17.5770212 39.8641304,17.5770212 39.8641304,17.6755171 C40.4800725,17.4785254 40.8907005,18.3649879 40.8907005,18.3649879 C40.8907005,18.4634838 40.8907005,18.4634838 40.7880435,18.4634838 C40.6853865,18.4634838 40.6853865,18.4634838 40.6853865,18.3649879 C40.6853865,18.3649879 40.3774155,17.5770212 39.7614734,17.8725088 C39.6588164,18.1679963 39.4535024,18.6604754 39.0428744,19.2514505 C39.1455314,19.9409213 39.0428744,21.0243755 38.7349034,21.9108381 L38.8375604,21.9108381 C38.7349034,22.0093339 38.7349034,22.1078297 38.6322464,22.2063256 C38.5295894,22.5018131 38.3242754,22.7973006 38.0163043,23.0927881 C36.8870773,24.373234 35.6551932,24.6687215 34.9365942,24.7672173 C35.0392512,25.1612007 35.0392512,25.555184 34.9365942,25.9491674 C35.6551932,25.9491674 36.4764493,25.9491674 37.1950483,25.8506715 C38.4269324,25.8506715 39.5561594,25.7521757 40.4800725,25.6536799 C41.0960145,25.555184 41.4039855,25.4566882 41.5066425,25.3581924 C41.3013285,25.3581924 40.4800725,25.3581924 41.0960145,24.964209 C41.4039855,24.7672173 41.6092995,24.7672173 41.8146135,24.8657132 C41.9172705,24.964209 42.0199275,25.0627048 42.1225845,25.1612007 C42.1225845,25.2596965 42.1225845,25.4566882 42.0199275,25.555184 C41.8146135,25.7521757 41.4039855,25.9491674 40.5827295,26.0476632 C39.6588164,26.146159 38.5295894,26.2446549 37.2977053,26.2446549 C36.4764493,26.2446549 35.6551932,26.2446549 34.9365942,26.3431507 C34.8339372,26.8356299 34.5259662,27.2296133 34.3206522,27.5251008 C35.5525362,27.8205883 36.8870773,28.0175799 38.4269324,28.0175799 C42.7385266,28.0175799 44.7916667,27.3281091 44.7916667,27.3281091 C44.7916667,27.3281091 42.2252415,28.608555 39.0428744,28.7070508 C38.9402174,29.0025383 38.6322464,29.4950175 37.7083333,29.4950175 C36.6817633,29.4950175 35.3472222,28.8055466 34.6286232,28.4115633 C35.2445652,29.2980258 35.3472222,30.4799759 35.3472222,30.4799759 C35.3472222,30.5784717 35.3472222,30.5784717 35.2445652,30.5784717 C35.1419082,30.5784717 35.1419082,30.5784717 35.1419082,30.4799759 C35.1419082,30.4799759 35.0392512,28.9040425 34.1153382,28.1160758 L33.9100242,28.1160758 C33.4993961,28.4115633 33.1914251,28.608555 32.8834541,28.8055466 L35.9631643,32.2529009 L35.6551932,32.4498926 L32.5754831,29.1010342 C32.4728261,29.19953 32.4728261,29.19953 32.3701691,29.2980258 C32.1648551,29.6920092 31.7542271,30.2829842 31.240942,30.8739592 C31.65157,30.9724551 32.3701691,31.1694467 32.8834541,31.8589176 C33.8073671,32.9423718 32.6781401,33.9273302 32.5754831,33.9273302 L32.4728261,33.8288343 C32.4728261,33.8288343 33.3967391,32.9423718 32.5754831,31.9574134 C31.9595411,31.2679426 31.240942,31.0709509 30.932971,31.0709509 C30.727657,31.3664384 30.419686,31.5634301 30.009058,31.8589176 C30.317029,32.2529009 30.522343,32.6468843 30.727657,33.0408676 C30.830314,33.3363551 30.932971,33.7303385 30.932971,34.1243218 C30.932971,35.4047677 29.701087,35.7987511 28.4692029,35.7987511 C28.1612319,35.7987511 27.7506039,35.7002552 27.4426329,35.6017594 C27.6479469,36.2912302 27.7506039,37.1776928 27.6479469,38.261147 C27.3399758,41.8069971 24.1576087,41.5115096 24.1576087,41.5115096 C24.1576087,41.5115096 27.1346618,41.3145179 27.3399758,38.1626511 C27.4426329,37.0791969 27.3399758,36.1927344 27.1346618,35.5032636 C26.6213768,35.3062719 26.1080918,35.1092802 25.5948068,34.8137927 C25.3894928,35.1092802 24.9788647,35.4047677 24.4655797,35.4047677 C24.3629227,35.4047677 24.1576087,35.4047677 24.0549517,35.3062719 C23.7469807,35.4047677 23.4390097,35.3062719 23.1310386,35.1092802 C22.8230676,34.9122885 22.6177536,34.7152969 22.5150966,34.5183052 C22.0018116,35.207776 21.4885266,35.9957427 20.9752415,36.6852136 C20.8725845,38.261147 20.7699275,39.8370804 20.4619565,41.0190304 C20.0513285,42.7919555 19.7433575,44.0724014 18.7167874,43.678418 C19.3327295,43.7769138 19.7433575,42.6934596 20.0513285,41.2160221 C20.2566425,40.034072 20.4619565,38.6551303 20.5646135,37.0791969 C19.7433575,38.0641553 19.0247585,39.0491137 18.2035024,39.9355762 C17.5875604,40.6250471 16.8689614,41.3145179 16.2530193,41.5115096 C17.6902174,40.2310637 19.1274155,38.4581387 20.5646135,36.5867178 C20.5646135,35.8972469 20.6672705,35.1092802 20.6672705,34.4198093 C19.2300725,36.1927344 17.7928744,37.9656595 16.4583333,39.2461054 C11.3254831,43.7769138 14.8158213,37.7686678 15.1237923,38.0641553 C15.1237923,38.0641553 12.9679952,42.1024846 16.2530193,38.852122 C17.6902174,37.4731803 19.2300725,35.6017594 20.7699275,33.7303385 L20.7699275,33.5333468 C20.4619565,33.434851 20.0513285,33.3363551 19.7433575,33.2378593 C19.6407005,33.434851 19.4353865,33.5333468 19.3327295,33.7303385 C19.0247585,35.4047677 17.8955314,36.5867178 17.8955314,36.5867178 C17.8955314,36.6852136 17.7928744,36.6852136 17.6902174,36.5867178 C17.5875604,36.5867178 17.5875604,36.4882219 17.6902174,36.3897261 C17.6902174,36.3897261 18.6141304,35.4047677 19.0247585,34.025826 C18.9221014,34.1243218 18.7167874,34.3213135 18.6141304,34.4198093 C17.2795894,36.1927344 16.7663043,35.6017594 16.5609903,35.4047677 C16.5609903,35.3062719 16.5609903,35.3062719 16.5609903,35.207776 C16.6636473,35.207776 16.6636473,35.207776 16.7663043,35.207776 C16.7663043,35.207776 17.0742754,35.6017594 18.5114734,34.2228177 C18.7167874,34.025826 18.9221014,33.7303385 19.2300725,33.5333468 C19.2300725,33.3363551 19.3327295,33.1393635 19.3327295,32.9423718 L19.2300725,32.843876 C18.7167874,33.1393635 18.1008454,33.3363551 17.1769324,33.2378593 C17.0742754,33.2378593 16.9716184,33.2378593 16.8689614,33.2378593 C16.6636473,33.5333468 16.2530193,33.8288343 15.8423913,33.9273302 C15.4317633,34.1243218 14.9184783,34.1243218 14.4051932,34.025826 C13.8919082,33.9273302 13.4812802,33.7303385 13.0706522,33.3363551 C12.6600242,32.9423718 12.2493961,32.2529009 12.1467391,31.4649342 C11.9414251,29.790505 12.7626812,28.9040425 13.5839372,28.4115633 C13.3786232,28.0175799 13.3786232,27.8205883 13.2759662,27.7220924 C13.1733092,27.6235966 12.9679952,27.5251008 12.8653382,27.4266049 L12.7626812,27.4266049 C12.7626812,27.4266049 12.7626812,27.4266049 12.7626812,27.3281091 C12.6600242,27.2296133 12.5573671,27.1311174 12.3520531,27.0326216 C11.6334541,26.3431507 11.1201691,25.6536799 10.9148551,24.964209 C10.7095411,23.8807548 11.2228261,22.9942923 11.9414251,22.4033172 C12.1467391,22.2063256 12.3520531,22.0093339 12.5573671,21.9108381 C12.6600242,21.4183589 12.7626812,20.9258797 12.9679952,20.5318963 C12.8653382,19.9409213 12.8653382,19.3499463 12.8653382,18.7589713 C12.8653382,18.4634838 12.8653382,18.1679963 12.9679952,17.9710046 C12.7626812,18.0695004 12.4547101,18.0695004 12.2493961,18.2664921 C11.9414251,18.3649879 11.7361111,18.5619796 11.5307971,18.7589713 C11.1201691,19.0544588 10.9148551,19.4484421 10.9148551,19.7439297 C10.9148551,19.8424255 10.9148551,19.8424255 10.9148551,19.9409213 C11.0175121,19.9409213 11.1201691,19.9409213 11.3254831,20.0394172 C11.9414251,20.2364088 12.4547101,20.5318963 12.5573671,20.9258797 C12.6600242,21.2213672 12.5573671,21.4183589 12.5573671,21.5168547 C12.4547101,21.6153506 12.3520531,21.7138464 12.2493961,21.8123422 C12.1467391,21.8123422 12.0440821,21.9108381 11.8387681,21.8123422 C11.6334541,21.8123422 11.3254831,21.6153506 11.1201691,21.4183589 C10.8121981,21.4183589 9.68297101,21.319863 9.68297101,20.5318963 C9.68297101,20.3349047 9.78562802,20.137913 9.99094203,20.0394172 C10.093599,19.9409213 10.298913,19.9409213 10.5042271,19.9409213 C10.5042271,19.8424255 10.5042271,19.8424255 10.5042271,19.7439297 C10.6068841,19.3499463 10.8121981,18.8574671 11.3254831,18.4634838 C11.5307971,18.2664921 11.8387681,18.0695004 12.1467391,17.9710046 C12.4547101,17.7740129 12.8653382,17.7740129 13.1733092,17.6755171 C13.3786232,16.6905587 13.7892512,15.7056003 14.5078502,14.9176336 C13.9945652,14.4251545 13.2759662,13.9326753 12.2493961,13.2432044 C13.5839372,13.3417003 14.5078502,13.9326753 15.1237923,14.3266586 C15.6370773,13.9326753 16.1503623,13.6371878 16.6636473,13.4401961 C16.8689614,13.3417003 16.9716184,13.2432044 17.1769324,13.1447086 C16.7663043,12.5537336 15.8423913,11.5687752 13.7892512,10.5838168 C16.3556763,11.1747918 17.4849034,12.258246 17.8955314,12.9477169 C17.8955314,12.9477169 17.8955314,12.9477169 17.9981884,12.8492211 C18.1008454,12.7507252 18.2035024,12.5537336 18.4088164,12.4552377 C17.9981884,11.7657669 17.0742754,10.8793043 15.4317633,9.79585013 C17.3822464,10.2883293 18.4088164,11.1747918 19.0247585,11.9627585 C20.8725845,10.3868251 23.2336957,9.50036262 25.5948068,9.59885845 C26.7240338,9.59885845 27.7506039,9.79585013 28.4692029,9.9928418 C29.0851449,9.20487511 29.906401,7.92442923 29.59843,7.23495837 C29.3931159,6.84097502 28.9824879,6.54548751 28.4692029,6.54548751 C28.0585749,6.54548751 27.5452899,6.64398335 27.0320048,6.93947086 C26.6213768,7.13646253 26.2107488,7.43195004 25.8001208,7.72743755 C25.3894928,8.1214209 25.2868357,8.41690841 25.3894928,8.61390008 C25.3894928,8.71239592 25.4921498,8.81089176 25.5948068,8.9093876 C25.6974638,9.00788343 25.8001208,9.00788343 25.9027778,9.00788343 C27.0320048,9.20487511 26.5187198,7.82593339 26.2107488,8.31841257 C26.2107488,8.41690841 26.1080918,8.41690841 26.0054348,8.41690841 C25.0815217,8.1214209 27.7506039,7.43195004 26.8266908,8.81089176 C26.6213768,9.10637927 26.2107488,9.30337094 25.9027778,9.20487511 C25.6974638,9.20487511 25.5948068,9.10637927 25.4921498,9.00788343 C25.3894928,8.9093876 25.2868357,8.81089176 25.1841787,8.61390008 C25.0815217,8.31841257 25.1841787,7.92442923 25.6974638,7.53044588 C26.1080918,7.13646253 26.5187198,6.93947086 26.9293478,6.64398335 C27.4426329,6.44699167 27.9559179,6.25 28.4692029,6.25 C28.9824879,6.25 29.3931159,6.34849584 29.701087,6.64398335 C29.1878019,7.33345421 29.2904589,7.43195004 29.2904589,7.53044588 C29.701087,8.31841257 28.7771739,9.69735429 28.0585749,10.5838168 C28.7771739,10.7808085 29.2904589,11.076296 29.701087,11.2732877 Z M29.4957729,11.8642627 C29.2904589,12.1597502 29.0851449,12.4552377 28.7771739,12.6522294 C28.8798309,12.7507252 28.8798309,12.8492211 28.8798309,12.9477169 C29.1878019,13.0462127 29.4957729,13.2432044 29.701087,13.3417003 C29.803744,13.4401961 29.906401,13.4401961 30.009058,13.5386919 L30.522343,13.0462127 C30.419686,12.8492211 30.111715,12.3567419 29.4957729,11.8642627 Z M26.9293478,12.7507252 C26.5187198,12.6522294 26.1080918,12.6522294 25.8001208,12.5537336 C25.9027778,12.6522294 26.1080918,12.8492211 26.2107488,12.9477169 C26.2107488,12.9477169 26.6213768,12.7507252 26.9293478,12.7507252 Z M28.6745169,31.6619259 C28.7771739,31.6619259 28.7771739,31.6619259 28.8798309,31.6619259 C28.8798309,31.5634301 28.7771739,31.5634301 28.7771739,31.4649342 C28.7771739,31.4649342 28.6745169,31.5634301 28.6745169,31.5634301 C28.6745169,31.5634301 28.6745169,31.6619259 28.6745169,31.6619259 Z M29.0851449,31.6619259 C29.0851449,31.5634301 28.9824879,31.4649342 28.8798309,31.3664384 C28.9824879,31.4649342 28.9824879,31.5634301 29.0851449,31.6619259 Z M29.2904589,31.5634301 C29.4957729,31.4649342 29.803744,31.3664384 30.009058,31.2679426 C30.111715,31.1694467 30.317029,31.0709509 30.419686,30.9724551 C30.522343,30.7754634 30.625,30.6769675 30.830314,30.4799759 C30.727657,30.4799759 30.625,30.5784717 30.522343,30.5784717 L30.419686,30.5784717 C30.111715,30.8739592 29.701087,31.0709509 29.1878019,31.1694467 C29.1878019,31.3664384 29.1878019,31.4649342 29.2904589,31.5634301 Z M29.0851449,32.1544051 L29.0851449,32.2529009 L29.0851449,32.1544051 Z M28.7771739,32.1544051 C28.1612319,32.2529009 27.5452899,32.1544051 27.0320048,32.0559093 C26.5187198,32.0559093 26.1080918,32.0559093 25.6974638,31.9574134 C25.2868357,32.0559093 24.8762077,32.1544051 24.3629227,32.2529009 C24.9788647,32.843876 26.4160628,33.9273302 28.4692029,32.6468843 C28.5718599,32.5483884 28.7771739,32.4498926 28.8798309,32.3513968 C28.8798309,32.2529009 28.8798309,32.2529009 28.7771739,32.1544051 Z M12.2493961,26.9341257 C12.2493961,26.9341257 12.2493961,26.8356299 12.2493961,26.8356299 C12.3520531,26.6386382 12.3520531,26.5401424 12.4547101,26.4416466 C12.3520531,26.0476632 12.1467391,25.555184 12.0440821,25.0627048 C11.9414251,24.6687215 11.9414251,24.2747381 11.8387681,23.8807548 C11.7361111,24.5702257 11.6334541,25.6536799 11.9414251,26.5401424 C12.1467391,26.7371341 12.2493961,26.8356299 12.2493961,26.9341257 Z M12.7626812,27.0326216 C12.6600242,27.2296133 12.6600242,27.4266049 12.7626812,27.5251008 C12.8653382,27.7220924 13.0706522,27.8205883 13.2759662,28.0175799 C13.1733092,27.8205883 13.1733092,27.7220924 13.0706522,27.5251008 C13.0706522,27.5251008 13.0706522,27.4266049 13.0706522,27.3281091 C12.8653382,27.2296133 12.7626812,27.1311174 12.7626812,27.0326216 Z M19.2300725,15.5086087 C19.2300725,15.5086087 19.3327295,15.6071045 19.3327295,15.6071045 C19.6407005,15.7056003 19.9486715,15.5086087 19.9486715,15.5086087 C19.9486715,15.5086087 19.9486715,15.902592 19.6407005,15.902592 C19.5380435,15.902592 19.3327295,15.902592 19.2300725,15.902592 C19.2300725,16.0010879 19.2300725,16.0995837 19.3327295,16.1980795 C19.6407005,16.1980795 19.8460145,16.1980795 20.0513285,16.1980795 C20.0513285,15.902592 20.1539855,15.7056003 20.1539855,15.4101128 C19.9486715,15.311617 19.6407005,15.2131212 19.4353865,15.1146253 C19.3327295,15.1146253 19.2300725,15.311617 19.2300725,15.5086087 Z M17.4849034,15.902592 C17.4849034,15.902592 17.3822464,15.4101128 17.2795894,14.5236503 C16.5609903,15.311617 16.5609903,16.2965754 16.5609903,16.8875504 C16.6636473,16.8875504 16.6636473,16.7890545 16.7663043,16.7890545 C17.0742754,16.5920629 17.4849034,16.493567 17.8955314,16.3950712 C17.6902174,16.0010879 17.5875604,15.5086087 17.7928744,14.720642 C17.6902174,14.8191378 17.6902174,14.9176336 17.5875604,15.0161295 C17.3822464,15.311617 17.4849034,15.902592 17.4849034,15.902592 Z M19.3327295,14.0311711 C19.4353865,13.8341794 19.6407005,13.6371878 19.8460145,13.4401961 C19.3327295,13.4401961 19.0247585,13.5386919 18.5114734,13.7356836 C18.6141304,13.7356836 18.7167874,13.8341794 18.8194444,13.8341794 C19.0247585,13.9326753 19.2300725,13.9326753 19.3327295,14.0311711 Z M20.2566425,13.8341794 C20.0513285,14.0311711 19.9486715,14.1296669 19.8460145,14.3266586 C19.9486715,14.4251545 20.1539855,14.5236503 20.2566425,14.6221461 C20.2566425,14.3266586 20.2566425,14.1296669 20.2566425,13.8341794 Z M28.1612319,13.2432044 C27.9559179,13.2432044 27.8532609,13.2432044 27.6479469,13.2432044 C27.8532609,13.3417003 28.0585749,13.4401961 28.2638889,13.4401961 C28.2638889,13.3417003 28.2638889,13.3417003 28.1612319,13.2432044 Z M27.9559179,15.1146253 C27.9559179,14.8191378 27.9559179,14.5236503 27.9559179,14.2281628 C27.6479469,14.2281628 27.3399758,14.1296669 26.9293478,14.1296669 C27.1346618,14.6221461 27.2373188,15.0161295 27.2373188,15.4101128 C27.5452899,15.4101128 27.7506039,15.311617 27.9559179,15.1146253 Z M29.803744,30.6769675 C29.701087,30.6769675 29.701087,30.6769675 29.59843,30.6769675 C29.4957729,30.6769675 29.4957729,30.7754634 29.4957729,30.7754634 C29.59843,30.7754634 29.701087,30.7754634 29.803744,30.6769675 Z M31.138285,29.19953 C31.343599,29.1010342 31.446256,28.9040425 31.548913,28.8055466 C31.65157,28.5100591 31.65157,28.2145716 31.7542271,28.0175799 L31.65157,28.0175799 C31.548913,28.2145716 31.446256,28.5100591 31.138285,28.8055466 C31.138285,29.0025383 31.138285,29.1010342 31.138285,29.19953 Z M25.0815217,33.9273302 C25.0815217,34.1243218 24.9788647,34.3213135 24.8762077,34.5183052 C24.9788647,34.616801 25.0815217,34.7152969 25.2868357,34.7152969 C25.3894928,34.4198093 25.3894928,34.025826 25.3894928,33.8288343 C25.2868357,33.9273302 25.1841787,33.9273302 25.0815217,33.9273302 Z M24.7735507,34.9122885 C24.6708937,35.1092802 24.5682367,35.4047677 24.3629227,35.6017594 C24.7735507,35.6017594 24.9788647,35.4047677 25.1841787,35.207776 C24.9788647,35.0107844 24.8762077,34.9122885 24.7735507,34.9122885 Z M22.1044686,34.7152969 C22.0018116,34.616801 21.8991546,34.4198093 21.8991546,34.3213135 C21.6938406,34.3213135 21.3858696,34.2228177 21.0778986,34.2228177 L20.8725845,34.5183052 C20.8725845,35.207776 20.8725845,35.8972469 20.7699275,36.5867178 C21.1805556,35.9957427 21.5911836,35.4047677 22.1044686,34.7152969 Z M21.5911836,33.9273302 C21.5911836,33.8288343 21.4885266,33.8288343 21.4885266,33.7303385 C21.3858696,33.7303385 21.3858696,33.7303385 21.2832126,33.7303385 L21.1805556,33.8288343 C21.3858696,33.9273302 21.4885266,33.9273302 21.5911836,33.9273302 Z M18.9221014,32.843876 C18.8194444,32.9423718 18.7167874,33.0408676 18.6141304,33.1393635 C18.7167874,33.0408676 18.9221014,32.9423718 18.9221014,32.843876 Z M17.6902174,32.5483884 C17.8955314,32.5483884 18.1008454,32.4498926 18.3061594,32.2529009 C18.4088164,32.1544051 18.5114734,32.0559093 18.5114734,31.9574134 C17.9981884,31.7604217 17.5875604,31.4649342 17.1769324,31.1694467 C16.9716184,31.3664384 16.8689614,31.5634301 16.6636473,31.7604217 C17.0742754,32.0559093 17.3822464,32.3513968 17.6902174,32.5483884 Z M16.0477053,32.5483884 L15.9450483,32.6468843 C15.7397343,32.9423718 15.5344203,33.1393635 15.3291063,33.3363551 C15.7397343,33.5333468 16.1503623,33.6318427 16.6636473,33.6318427 C17.2795894,33.7303385 17.7928744,33.5333468 18.2035024,33.434851 C18.2035024,33.434851 18.1008454,33.434851 18.1008454,33.3363551 C17.1769324,33.1393635 16.8689614,33.0408676 16.0477053,32.5483884 Z M11.3254831,25.555184 C11.3254831,24.8657132 11.4281401,24.1762423 11.5307971,23.5852673 C11.3254831,23.9792506 11.2228261,24.5702257 11.3254831,25.2596965 C11.3254831,25.3581924 11.3254831,25.4566882 11.3254831,25.555184 Z M23.5416667,12.3567419 C22.6177536,12.258246 21.8991546,12.6522294 21.3858696,13.0462127 C21.4885266,13.0462127 21.4885266,13.1447086 21.5911836,13.1447086 C22.0018116,13.3417003 22.3097826,13.5386919 22.5150966,13.7356836 C23.1310386,13.3417003 23.7469807,13.1447086 24.5682367,12.9477169 C24.2602657,12.7507252 23.8496377,12.5537336 23.5416667,12.3567419 Z M20.9752415,12.6522294 C21.2832126,12.4552377 21.7964976,12.1597502 22.3097826,11.9627585 C21.8991546,11.8642627 21.3858696,11.8642627 20.8725845,11.8642627 C20.8725845,12.1597502 20.9752415,12.3567419 20.9752415,12.6522294 Z M36.0658213,18.2664921 C35.8605072,18.2664921 35.6551932,18.2664921 35.4498792,18.4634838 C35.6551932,18.7589713 35.7578502,19.0544588 35.8605072,19.4484421 C36.0658213,19.2514505 36.2711353,19.0544588 36.4764493,18.8574671 C36.2711353,18.6604754 36.1684783,18.4634838 36.0658213,18.2664921 Z M34.8339372,19.0544588 C34.5259662,19.6454338 34.4233092,20.4334005 34.3206522,20.8273839 C34.3206522,20.9258797 34.3206522,21.0243755 34.3206522,21.1228714 C34.3206522,21.2213672 34.3206522,21.2213672 34.3206522,21.319863 C34.5259662,21.0243755 34.8339372,20.6303922 35.1419082,20.2364088 C35.1419082,19.7439297 35.0392512,19.4484421 34.8339372,19.0544588 Z M34.1153382,19.546938 C34.2179952,19.1529546 34.3206522,18.8574671 34.5259662,18.5619796 C33.8073671,17.5770212 32.6781401,16.9860462 31.65157,16.5920629 C31.65157,16.6905587 31.7542271,16.7890545 31.7542271,16.8875504 C32.5754831,17.3800296 33.7047101,18.2664921 34.1153382,19.546938 Z M35.1419082,18.0695004 C35.3472222,17.9710046 35.4498792,17.8725088 35.6551932,17.8725088 C34.4233092,16.5920629 32.5754831,15.8040962 31.548913,15.4101128 C31.548913,15.5086087 31.548913,15.6071045 31.446256,15.7056003 C32.5754831,16.0995837 34.1153382,16.8875504 35.1419082,18.0695004 Z M37.0923913,22.9942923 C37.5030193,22.8957964 38.0163043,22.6003089 38.3242754,22.1078297 C38.6322464,21.319863 38.6322464,20.6303922 38.6322464,19.9409213 C38.4269324,20.2364088 38.2216184,20.5318963 37.9136473,20.728888 L37.8109903,20.9258797 C37.9136473,21.8123422 37.6056763,22.5018131 37.0923913,22.9942923 Z M37.8109903,23.0927881 C37.2977053,23.3882756 36.8870773,23.3882756 36.5791063,23.3882756 C36.0658213,23.6837631 35.3472222,23.9792506 34.6286232,24.0777465 C34.6286232,24.0777465 34.6286232,24.1762423 34.7312802,24.1762423 C35.2445652,24.2747381 36.0658213,24.373234 36.8870773,23.8807548 C37.0923913,23.782259 37.4003623,23.5852673 37.8109903,23.0927881 C37.7083333,23.1912839 37.7083333,23.1912839 37.8109903,23.0927881 Z M33.1914251,25.7521757 C33.4993961,25.6536799 33.9100242,25.3581924 34.1153382,24.8657132 C34.0126812,24.6687215 34.0126812,24.5702257 33.9100242,24.4717298 C33.9100242,24.4717298 33.8073671,24.5702257 33.8073671,24.5702257 C33.6020531,24.8657132 33.3967391,25.3581924 33.1914251,25.7521757 Z M34.1153382,23.0927881 C34.1153382,22.8957964 34.0126812,22.7973006 34.0126812,22.6003089 C33.9100242,22.7973006 33.8073671,22.9942923 33.7047101,23.0927881 C33.7047101,23.0927881 33.8073671,23.1912839 33.9100242,23.1912839 C34.0126812,23.2897798 34.0126812,23.1912839 34.1153382,23.0927881 Z M34.2179952,22.2063256 C34.3206522,22.4033172 34.3206522,22.5018131 34.4233092,22.6988048 C34.5259662,22.5018131 34.7312802,22.3048214 34.8339372,22.1078297 C34.6286232,22.2063256 34.4233092,22.2063256 34.2179952,22.2063256 Z M34.1153382,25.3581924 C33.8073671,25.8506715 33.2940821,26.0476632 32.8834541,26.146159 C32.8834541,26.146159 32.8834541,26.2446549 32.8834541,26.2446549 C33.2940821,26.2446549 33.7047101,26.2446549 34.0126812,26.2446549 C34.1153382,25.9491674 34.2179952,25.6536799 34.1153382,25.3581924 Z M35.8605072,24.5702257 C35.4498792,24.6687215 35.0392512,24.5702257 34.7312802,24.5702257 C34.7312802,24.6687215 34.8339372,24.7672173 34.8339372,24.8657132 C35.0392512,24.7672173 35.4498792,24.6687215 35.8605072,24.5702257 Z M29.3931159,32.6468843 C29.4957729,32.7453801 29.4957729,32.7453801 29.4957729,32.843876 C29.4957729,32.9423718 29.4957729,32.9423718 29.3931159,32.843876 C29.3931159,32.843876 29.2904589,32.843876 29.2904589,32.7453801 C29.1878019,32.843876 29.0851449,32.9423718 28.8798309,33.0408676 C27.9559179,33.5333468 27.1346618,33.8288343 26.4160628,33.9273302 C26.6213768,34.2228177 27.0320048,34.9122885 27.2373188,35.7987511 C27.6479469,35.8972469 27.9559179,35.9957427 28.2638889,35.9957427 C29.3931159,35.9957427 30.522343,35.8972469 30.522343,34.616801 C30.522343,34.2228177 30.419686,33.9273302 30.317029,33.6318427 C30.214372,33.2378593 29.906401,32.843876 29.701087,32.4498926 C29.59843,32.4498926 29.4957729,32.5483884 29.3931159,32.6468843 Z M25.9027778,33.9273302 C25.8001208,33.9273302 25.8001208,33.9273302 25.6974638,33.9273302 C25.6974638,34.2228177 25.6974638,34.616801 25.4921498,35.0107844 C25.9027778,35.207776 26.3134058,35.5032636 26.8266908,35.6017594 C26.5187198,34.8137927 26.1080918,34.2228177 25.9027778,33.9273302 Z M20.8725845,33.8288343 L20.7699275,33.7303385 L20.8725845,33.8288343 Z M22.1044686,32.7453801 C22.4124396,32.9423718 22.6177536,33.0408676 22.9257246,33.0408676 C23.1310386,33.0408676 23.3363527,32.843876 23.4390097,32.7453801 L23.6443237,32.4498926 C23.2336957,32.5483884 22.8230676,32.6468843 22.5150966,32.6468843 C22.4124396,32.6468843 22.3097826,32.6468843 22.2071256,32.6468843 L22.1044686,32.7453801 Z M18.1008454,30.2829842 C18.3061594,30.4799759 18.5114734,30.6769675 18.8194444,30.8739592 C19.0247585,30.6769675 19.3327295,30.38148 19.5380435,29.8890008 L19.0247585,29.3965217 C18.7167874,29.5935133 18.4088164,29.8890008 18.1008454,30.2829842 Z M19.6407005,31.2679426 C19.9486715,31.3664384 20.2566425,31.2679426 20.4619565,31.0709509 C20.4619565,30.6769675 20.4619565,30.2829842 20.4619565,29.8890008 L20.2566425,29.9874967 C20.1539855,30.5784717 19.8460145,30.9724551 19.6407005,31.2679426 Z M20.7699275,30.7754634 C20.9752415,30.5784717 21.0778986,30.38148 21.1805556,30.2829842 L20.7699275,29.6920092 L20.7699275,30.7754634 Z M21.3858696,31.6619259 C21.5911836,31.6619259 22.0018116,31.7604217 22.4124396,31.8589176 C22.6177536,31.5634301 22.8230676,31.3664384 23.0283816,31.0709509 C22.7204106,30.9724551 22.5150966,30.8739592 22.2071256,30.6769675 C22.0018116,30.8739592 21.8991546,31.0709509 21.6938406,31.2679426 C21.5911836,31.3664384 21.4885266,31.4649342 21.3858696,31.6619259 Z M22.7204106,31.8589176 C22.9257246,31.8589176 23.1310386,31.8589176 23.2336957,31.8589176 C23.3363527,31.8589176 23.3363527,31.8589176 23.4390097,31.8589176 C23.5416667,31.8589176 23.7469807,31.7604217 23.8496377,31.7604217 C23.9522947,31.6619259 24.1576087,31.6619259 24.2602657,31.5634301 L24.3629227,31.4649342 C24.2602657,31.3664384 24.1576087,31.3664384 24.0549517,31.3664384 C23.9522947,31.3664384 23.7469807,31.2679426 23.3363527,31.1694467 C23.1310386,31.3664384 22.9257246,31.6619259 22.7204106,31.8589176 Z M18.5114734,17.5770212 L18.6141304,18.6604754 L18.4088164,18.8574671 C18.2035024,18.8574671 18.1008454,18.7589713 17.8955314,18.7589713 C17.6902174,18.6604754 17.4849034,18.6604754 17.2795894,18.6604754 C17.4849034,18.3649879 17.6902174,18.1679963 18.1008454,17.9710046 C18.3061594,17.6755171 18.4088164,17.6755171 18.5114734,17.5770212 Z M23.5416667,15.311617 C23.9522947,15.311617 24.5682367,15.2131212 25.3894928,15.2131212 C25.6974638,15.2131212 25.9027778,15.2131212 26.1080918,15.2131212 C26.0054348,14.9176336 25.8001208,14.6221461 25.6974638,14.3266586 C24.6708937,14.4251545 23.9522947,14.6221461 23.4390097,14.9176336 C23.4390097,14.9176336 23.5416667,15.1146253 23.5416667,15.311617 Z M26.2107488,15.311617 C26.0054348,15.311617 25.8001208,15.311617 25.4921498,15.311617 C25.0815217,15.311617 24.6708937,15.4101128 24.3629227,15.4101128 C25.1841787,15.5086087 25.8001208,15.6071045 26.4160628,15.6071045 C26.2107488,15.6071045 26.2107488,15.5086087 26.2107488,15.311617 Z M12.5573671,23.4867715 C12.6600242,23.6837631 12.5573671,23.8807548 12.4547101,23.9792506 C12.4547101,24.2747381 12.5573671,24.6687215 12.6600242,25.0627048 C12.7626812,25.4566882 12.8653382,25.9491674 12.9679952,26.3431507 C13.0706522,25.9491674 13.2759662,25.4566882 13.6865942,25.0627048 C13.4812802,24.6687215 13.2759662,24.1762423 13.0706522,23.5852673 C12.4547101,23.3882756 12.5573671,23.4867715 12.5573671,23.4867715 Z M12.4547101,22.7973006 C12.5573671,22.7973006 12.6600242,22.7973006 12.8653382,22.7973006 C12.8653382,22.6988048 12.8653382,22.6988048 12.7626812,22.6003089 C12.6600242,22.6003089 12.5573671,22.6988048 12.4547101,22.7973006 Z M13.7892512,22.8957964 C13.9945652,22.8957964 14.3025362,22.9942923 14.6105072,23.0927881 C14.5078502,22.4033172 14.5078502,21.9108381 14.6105072,21.4183589 C14.7131643,20.8273839 15.1237923,20.3349047 15.5344203,20.0394172 C15.5344203,19.9409213 15.4317633,19.8424255 15.4317633,19.7439297 C14.6105072,20.2364088 13.7892512,21.2213672 13.7892512,22.8957964 Z M15.1237923,23.1912839 C15.2264493,23.1912839 15.3291063,23.2897798 15.4317633,23.2897798 C15.4317633,22.7973006 15.4317633,22.2063256 15.8423913,21.5168547 C15.9450483,21.319863 16.0477053,21.2213672 16.1503623,21.0243755 C16.1503623,20.8273839 16.1503623,20.5318963 16.1503623,20.0394172 C16.0477053,20.0394172 16.0477053,20.137913 16.0477053,20.137913 C15.5344203,20.4334005 15.2264493,20.8273839 15.0211353,21.4183589 C14.9184783,21.9108381 14.9184783,22.5018131 15.1237923,23.1912839 Z M15.5344203,24.0777465 L15.4317633,24.0777465 L15.4317633,24.1762423 L15.5344203,24.0777465 Z M14.8158213,23.8807548 C14.7131643,23.8807548 14.6105072,23.8807548 14.6105072,23.782259 C14.3025362,23.6837631 14.0972222,23.6837631 13.8919082,23.5852673 C13.8919082,23.6837631 13.8919082,23.782259 13.9945652,23.8807548 C14.0972222,24.0777465 14.1998792,24.2747381 14.3025362,24.4717298 C14.5078502,24.373234 14.8158213,24.1762423 15.1237923,24.0777465 C14.8158213,24.0777465 14.8158213,23.9792506 14.8158213,23.8807548 Z M19.0247585,33.7303385 L19.0247585,33.8288343 L19.0247585,33.7303385 Z M39.3508454,18.4634838 C39.3508454,18.4634838 39.2481884,18.5619796 39.2481884,18.5619796 C39.1455314,18.6604754 39.0428744,18.8574671 38.9402174,18.955963 C38.9402174,19.0544588 38.9402174,19.0544588 38.9402174,19.1529546 C39.0428744,18.8574671 39.2481884,18.6604754 39.3508454,18.4634838 Z M38.6322464,19.4484421 C38.5295894,19.6454338 38.4269324,19.8424255 38.2216184,20.137913 C38.3242754,19.9409213 38.5295894,19.8424255 38.6322464,19.6454338 L38.6322464,19.4484421 Z M37.8109903,20.5318963 C38.0163043,20.137913 38.3242754,19.546938 38.6322464,19.1529546 C38.6322464,18.955963 38.5295894,18.7589713 38.5295894,18.7589713 C38.3242754,17.9710046 37.8109903,18.0695004 37.0923913,18.5619796 C37.5030193,19.1529546 37.7083333,19.7439297 37.8109903,20.5318963 Z M14.8158213,28.8055466 C15.0211353,28.5100591 15.4317633,28.1160758 15.9450483,27.8205883 C15.5344203,27.5251008 15.0211353,27.0326216 14.5078502,26.4416466 C13.9945652,26.9341257 13.8919082,27.5251008 13.9945652,28.0175799 C14.0972222,28.2145716 14.4051932,28.608555 14.8158213,28.8055466 Z M16.1503623,28.0175799 C15.6370773,28.3130675 15.3291063,28.7070508 15.1237923,29.0025383 C15.5344203,29.19953 15.7397343,29.2980258 15.8423913,29.3965217 L15.9450483,29.2980258 C15.9450483,29.19953 15.9450483,29.1010342 16.0477053,28.8055466 C15.9450483,28.5100591 16.0477053,28.2145716 16.1503623,28.0175799 Z M20.9752415,13.7356836 C20.9752415,13.8341794 20.9752415,13.8341794 20.9752415,13.9326753 C20.9752415,14.2281628 20.8725845,14.6221461 20.8725845,15.0161295 C21.1805556,14.720642 21.4885266,14.4251545 21.7964976,14.2281628 C21.5911836,14.1296669 21.3858696,13.9326753 21.1805556,13.8341794 C21.1805556,13.7356836 21.0778986,13.7356836 20.9752415,13.7356836 Z M20.7699275,15.902592 C20.7699275,16.1980795 20.6672705,16.3950712 20.6672705,16.6905587 C20.7699275,16.493567 20.9752415,16.3950712 21.0778986,16.1980795 L20.7699275,15.902592 Z M20.2566425,12.7507252 C20.2566425,12.4552377 20.1539855,12.1597502 20.1539855,11.9627585 C19.7433575,12.258246 19.3327295,12.4552377 19.0247585,12.7507252 C19.3327295,12.7507252 19.7433575,12.7507252 20.2566425,12.7507252 Z M34.6286232,16.0995837 C35.0392512,15.902592 35.7578502,15.4101128 36.3737923,14.8191378 C36.1684783,14.720642 35.9631643,14.720642 35.7578502,14.720642 C35.4498792,14.720642 35.2445652,14.8191378 34.9365942,14.9176336 C34.7312802,15.1146253 34.5259662,15.5086087 34.3206522,15.8040962 C34.4233092,16.0010879 34.5259662,16.0010879 34.6286232,16.0995837 Z M34.1153382,15.8040962 C34.3206522,15.5086087 34.4233092,15.311617 34.5259662,15.1146253 C34.1153382,15.2131212 33.8073671,15.4101128 33.6020531,15.5086087 C33.8073671,15.6071045 33.9100242,15.7056003 34.1153382,15.8040962 Z M37.0923913,21.4183589 C36.6817633,21.6153506 36.2711353,21.8123422 35.7578502,22.0093339 C35.5525362,22.5018131 35.3472222,22.9942923 35.0392512,23.2897798 C36.0658213,22.9942923 36.8870773,22.4033172 37.0923913,21.4183589 Z M33.3967391,22.2063256 C33.1914251,22.2063256 33.0887681,22.2063256 32.9861111,22.2063256 C33.0887681,22.3048214 33.1914251,22.4033172 33.2940821,22.6003089 C33.2940821,22.4033172 33.2940821,22.3048214 33.3967391,22.2063256 Z M32.6781401,21.9108381 C32.8834541,21.9108381 33.1914251,22.0093339 33.3967391,22.0093339 C33.4993961,21.7138464 33.4993961,21.4183589 33.6020531,21.1228714 C33.7047101,19.7439297 32.8834541,18.7589713 32.1648551,18.0695004 C32.2675121,18.5619796 32.2675121,18.955963 32.2675121,19.2514505 C32.3701691,19.7439297 32.3701691,20.2364088 32.3701691,20.728888 C32.3701691,21.1228714 32.3701691,21.4183589 32.3701691,21.7138464 C32.4728261,21.8123422 32.5754831,21.9108381 32.6781401,21.9108381 Z M34.2179952,22.0093339 C34.4233092,22.0093339 34.6286232,22.0093339 34.9365942,21.9108381 C35.1419082,21.5168547 35.2445652,21.1228714 35.2445652,20.6303922 C34.7312802,21.2213672 34.4233092,21.7138464 34.2179952,22.0093339 Z M35.8605072,21.7138464 C36.3737923,21.6153506 36.7844203,21.319863 37.0923913,21.1228714 C37.0923913,21.0243755 37.0923913,20.9258797 37.0923913,20.9258797 C37.0923913,20.2364088 36.8870773,19.6454338 36.5791063,19.0544588 C36.3737923,19.2514505 36.1684783,19.546938 35.9631643,19.7439297 C35.9631643,19.8424255 35.9631643,20.0394172 36.0658213,20.137913 C35.9631643,20.728888 35.9631643,21.319863 35.8605072,21.7138464 Z M32.0621981,20.3349047 C31.8568841,20.8273839 31.65157,21.1228714 31.446256,21.319863 C31.65157,21.4183589 31.7542271,21.4183589 31.9595411,21.5168547 C31.9595411,21.2213672 31.9595411,20.9258797 31.9595411,20.6303922 C32.0621981,20.5318963 32.0621981,20.4334005 32.0621981,20.3349047 Z M31.035628,20.3349047 C31.035628,20.4334005 31.138285,20.4334005 31.138285,20.5318963 C31.138285,20.5318963 31.138285,20.6303922 31.240942,20.6303922 C31.343599,20.4334005 31.446256,19.9409213 31.343599,19.2514505 C31.138285,18.1679963 30.522343,19.0544588 30.522343,19.0544588 C30.727657,19.3499463 30.932971,19.9409213 31.035628,20.3349047 Z M31.548913,21.8123422 C31.65157,22.5018131 31.548913,23.0927881 31.446256,23.4867715 C31.548913,23.4867715 31.7542271,23.4867715 31.8568841,23.4867715 C31.9595411,23.0927881 31.9595411,22.6003089 32.0621981,22.0093339 C31.8568841,22.0093339 31.65157,21.9108381 31.548913,21.8123422 Z M17.1769324,17.9710046 C17.3822464,17.7740129 17.5875604,17.5770212 17.8955314,17.3800296 C18.3061594,17.1830379 18.6141304,16.9860462 19.0247585,16.8875504 C18.8194444,16.8875504 18.7167874,16.9860462 18.5114734,16.9860462 C18.5114734,16.9860462 18.5114734,16.9860462 18.5114734,16.9860462 C18.1008454,17.0845421 17.6902174,17.1830379 17.2795894,17.3800296 C17.0742754,17.4785254 16.9716184,17.5770212 16.8689614,17.5770212 C16.8689614,17.7740129 17.0742754,17.8725088 17.1769324,17.9710046 Z M16.2530193,21.7138464 C15.9450483,22.3048214 15.9450483,22.7973006 15.9450483,23.1912839 C16.0477053,22.7973006 16.2530193,22.3048214 16.5609903,21.8123422 C16.7663043,21.319863 17.1769324,21.0243755 17.4849034,20.728888 C16.9716184,20.9258797 16.5609903,21.2213672 16.2530193,21.7138464 Z M13.8919082,25.4566882 C13.1733092,26.3431507 13.4812802,27.4266049 13.4812802,27.4266049 C13.5839372,27.5251008 13.5839372,27.7220924 13.6865942,27.8205883 C13.6865942,27.2296133 13.8919082,26.6386382 14.4051932,26.0476632 C14.0972222,25.9491674 13.9945652,25.6536799 13.8919082,25.4566882 Z M14.7131643,16.2965754 C14.6105072,16.1980795 14.5078502,16.0010879 14.3025362,15.8040962 C13.6865942,16.493567 13.3786232,17.1830379 13.1733092,18.0695004 C13.9945652,18.0695004 14.6105072,18.1679963 14.9184783,18.3649879 C14.9184783,18.2664921 15.0211353,18.1679963 15.1237923,18.0695004 C15.0211353,17.7740129 14.7131643,17.0845421 14.7131643,16.2965754 Z M27.3399758,11.1747918 L27.4426329,11.076296 C27.3399758,11.076296 27.1346618,10.9778002 27.0320048,10.9778002 C27.1346618,10.9778002 27.2373188,11.076296 27.3399758,11.1747918 Z M32.2675121,22.3048214 C32.2675121,22.7973006 32.1648551,23.2897798 32.1648551,23.5852673 C32.2675121,23.5852673 32.4728261,23.5852673 32.5754831,23.5852673 C32.6781401,23.3882756 32.7807971,23.2897798 32.8834541,23.0927881 C32.7807971,22.6988048 32.5754831,22.5018131 32.2675121,22.3048214 Z M32.0621981,26.2446549 C32.0621981,25.8506715 31.9595411,25.555184 31.8568841,25.2596965 C31.7542271,25.3581924 31.548913,25.4566882 31.446256,25.555184 C31.446256,25.6536799 31.446256,25.8506715 31.446256,25.9491674 C31.446256,26.0476632 31.446256,26.146159 31.446256,26.146159 C31.65157,26.2446549 31.8568841,26.2446549 32.0621981,26.2446549 Z M33.9100242,26.7371341 C33.4993961,26.7371341 33.1914251,26.7371341 32.8834541,26.7371341 C32.8834541,27.0326216 32.7807971,27.3281091 32.6781401,27.5251008 C32.8834541,27.6235966 33.0887681,27.6235966 33.2940821,27.7220924 C33.6020531,27.5251008 33.8073671,27.1311174 33.9100242,26.7371341 Z M32.7807971,25.3581924 C32.8834541,25.1612007 32.9861111,24.964209 33.0887681,24.7672173 C32.8834541,24.8657132 32.7807971,24.964209 32.6781401,24.964209 C32.6781401,25.1612007 32.6781401,25.2596965 32.7807971,25.3581924 Z M32.3701691,28.3130675 C32.2675121,28.4115633 32.2675121,28.5100591 32.2675121,28.5100591 L31.9595411,28.3130675 L31.8568841,28.3130675 L32.0621981,28.8055466 C32.1648551,28.7070508 32.3701691,28.7070508 32.5754831,28.5100591 L32.3701691,28.3130675 Z M16.4583333,29.8890008 C16.7663043,30.1844884 17.2795894,30.0859925 17.2795894,30.0859925 C17.2795894,30.0859925 17.0742754,29.8890008 16.8689614,29.6920092 C16.6636473,29.4950175 16.4583333,29.1010342 16.4583333,29.1010342 C16.4583333,29.1010342 16.2530193,29.5935133 16.4583333,29.8890008 Z M20.3592995,32.4498926 C20.1539855,32.4498926 19.9486715,32.3513968 19.7433575,32.3513968 C19.6407005,32.6468843 19.4353865,33.0408676 19.1274155,33.3363551 C19.2300725,33.434851 19.3327295,33.434851 19.5380435,33.434851 C19.7433575,33.1393635 20.0513285,32.843876 20.3592995,32.4498926 Z M12.4547101,31.6619259 C12.4547101,31.5634301 12.4547101,31.5634301 12.5573671,31.5634301 C12.6600242,31.5634301 12.6600242,31.5634301 12.6600242,31.6619259 C12.6600242,31.6619259 12.9679952,34.7152969 14.7131643,33.5333468 C13.3786232,32.7453801 12.8653382,31.5634301 12.8653382,31.5634301 C12.8653382,31.4649342 12.8653382,31.3664384 12.9679952,31.2679426 C13.0706522,31.1694467 13.1733092,31.2679426 13.2759662,31.3664384 C13.2759662,31.3664384 13.7892512,32.5483884 15.1237923,33.2378593 C15.3291063,33.0408676 15.5344203,32.843876 15.7397343,32.5483884 L15.8423913,32.4498926 C15.5344203,32.2529009 15.1237923,31.9574134 14.8158213,31.7604217 C13.9945652,31.0709509 13.4812802,30.1844884 13.1733092,29.5935133 C12.4547101,30.0859925 11.7361111,30.8739592 11.9414251,32.3513968 C12.0440821,33.1393635 12.3520531,33.6318427 12.7626812,34.025826 C13.0706522,34.3213135 13.5839372,34.616801 13.9945652,34.616801 C14.4051932,34.7152969 14.9184783,34.7152969 15.2264493,34.5183052 C15.5344203,34.4198093 15.8423913,34.2228177 15.9450483,34.025826 C15.5344203,33.9273302 15.2264493,33.8288343 14.9184783,33.7303385 C12.7626812,35.4047677 12.4547101,31.6619259 12.4547101,31.6619259 Z M16.1503623,32.0559093 L16.2530193,31.8589176 C15.5344203,31.1694467 14.6105072,30.38148 13.8919082,29.19953 L13.7892512,29.1010342 C13.6865942,29.1010342 13.6865942,29.19953 13.5839372,29.19953 C13.8919082,29.790505 14.4051932,30.5784717 15.1237923,31.2679426 C15.4317633,31.6619259 15.7397343,31.8589176 16.1503623,32.0559093 Z M16.4583333,31.6619259 L16.8689614,31.1694467 L16.1503623,31.4649342 C16.2530193,31.4649342 16.3556763,31.5634301 16.4583333,31.6619259 Z M17.7928744,29.9874967 C18.1008454,29.5935133 18.3061594,29.2980258 18.5114734,29.0025383 C18.2035024,28.8055466 17.7928744,28.608555 17.3822464,29.0025383 C17.0742754,29.2980258 17.5875604,29.790505 17.7928744,29.9874967 Z M16.4583333,32.0559093 L16.3556763,32.1544051 C16.5609903,32.2529009 16.7663043,32.3513968 16.9716184,32.4498926 C16.7663043,32.3513968 16.6636473,32.2529009 16.4583333,32.0559093 Z M20.4619565,32.6468843 C20.1539855,32.9423718 19.9486715,33.2378593 19.6407005,33.5333468 C19.9486715,33.6318427 20.1539855,33.6318427 20.3592995,33.7303385 C20.4619565,33.434851 20.4619565,33.0408676 20.4619565,32.6468843 Z M15.5344203,17.6755171 C15.6370773,17.5770212 15.7397343,17.4785254 15.8423913,17.3800296 C15.7397343,16.8875504 15.6370773,15.8040962 16.2530193,14.720642 C16.1503623,14.720642 16.0477053,14.8191378 15.9450483,14.8191378 C14.8158213,15.6071045 15.2264493,16.9860462 15.5344203,17.6755171 Z M18.3061594,16.1980795 C18.5114734,16.1980795 18.6141304,16.0995837 18.8194444,16.0995837 C18.7167874,15.8040962 18.7167874,15.311617 18.9221014,14.720642 C18.7167874,14.6221461 18.4088164,14.6221461 18.2035024,14.5236503 C17.9981884,15.4101128 18.1008454,15.902592 18.3061594,16.1980795 Z M14.8158213,18.7589713 C14.4051932,18.6604754 13.8919082,18.4634838 13.1733092,18.5619796 C13.0706522,18.8574671 13.0706522,19.1529546 13.0706522,19.546938 C13.0706522,19.8424255 13.0706522,20.137913 13.0706522,20.3349047 C13.5839372,19.4484421 14.4051932,18.955963 14.8158213,18.7589713 Z M10.298913,20.9258797 C10.298913,21.0243755 10.40157,21.2213672 10.40157,21.319863 C10.5042271,21.4183589 10.5042271,21.6153506 10.6068841,21.7138464 C10.8121981,21.9108381 11.0175121,22.0093339 11.2228261,22.1078297 C11.3254831,22.1078297 11.3254831,22.1078297 11.4281401,22.1078297 C11.4281401,22.1078297 11.5307971,22.1078297 11.5307971,22.0093339 C11.5307971,21.9108381 11.5307971,21.8123422 11.5307971,21.7138464 C11.4281401,21.4183589 11.0175121,21.2213672 10.6068841,21.0243755 C10.5042271,20.9258797 10.40157,20.9258797 10.298913,20.9258797 Z M10.093599,21.4183589 C9.99094203,21.2213672 9.99094203,21.0243755 9.88828502,20.8273839 C9.78562802,20.8273839 9.58031401,20.8273839 9.477657,20.9258797 C9.375,20.9258797 9.375,21.0243755 9.375,21.0243755 C9.375,21.4183589 9.78562802,21.5168547 10.093599,21.5168547 C10.093599,21.5168547 10.093599,21.5168547 10.093599,21.4183589 Z M22.8230676,14.1296669 C22.9257246,14.2281628 22.9257246,14.3266586 23.0283816,14.4251545 C23.5416667,14.1296669 24.3629227,13.9326753 25.2868357,13.8341794 C25.1841787,13.7356836 25.0815217,13.6371878 24.9788647,13.4401961 C24.8762077,13.4401961 24.8762077,13.4401961 24.7735507,13.4401961 C24.0549517,13.5386919 23.4390097,13.7356836 22.8230676,14.1296669 Z M22.8230676,15.5086087 C22.8230676,15.4101128 22.7204106,15.311617 22.7204106,15.2131212 C22.5150966,15.4101128 22.3097826,15.5086087 22.2071256,15.6071045 C22.4124396,15.5086087 22.6177536,15.5086087 22.8230676,15.5086087 Z M26.7240338,13.7356836 C27.0320048,13.7356836 27.3399758,13.7356836 27.5452899,13.7356836 C27.2373188,13.6371878 26.9293478,13.5386919 26.5187198,13.5386919 C26.6213768,13.5386919 26.6213768,13.6371878 26.7240338,13.7356836 Z M38.2216184,29.1010342 C38.1189614,29.2980258 38.0163043,29.3965217 37.7083333,29.3965217 C37.5030193,29.3965217 37.2977053,29.19953 37.1950483,29.0025383 C37.6056763,29.1010342 37.9136473,29.1010342 38.2216184,29.1010342 Z M12.6600242,22.0093339 C12.6600242,22.1078297 12.5573671,22.2063256 12.5573671,22.3048214 L12.6600242,22.2063256 C12.6600242,22.1078297 12.6600242,22.0093339 12.6600242,22.0093339 Z M11.1201691,26.2446549 C11.0175121,25.9491674 11.0175121,25.6536799 10.9148551,25.3581924 C10.9148551,25.0627048 10.9148551,24.7672173 10.9148551,24.5702257 C10.8121981,24.8657132 10.7095411,25.2596965 10.8121981,25.6536799 C10.9148551,25.7521757 11.0175121,26.0476632 11.1201691,26.2446549 Z M30.727657,25.1612007 C30.830314,25.0627048 30.932971,24.964209 31.035628,24.964209 C31.035628,24.964209 31.035628,24.8657132 31.035628,24.8657132 C31.138285,24.4717298 30.727657,24.373234 30.727657,24.373234 C30.727657,24.373234 30.727657,24.8657132 30.625,25.1612007 C30.625,25.1612007 30.625,25.1612007 30.727657,25.1612007 Z M18.1008454,27.0326216 C18.5114734,27.0326216 18.9221014,26.9341257 18.9221014,26.9341257 C18.9221014,26.9341257 18.8194444,27.2296133 18.6141304,27.2296133 C18.4088164,27.2296133 18.1008454,27.0326216 18.1008454,27.0326216 Z M28.0585749,29.2980258 C28.0585749,29.2980258 28.6745169,29.4950175 29.0851449,29.0025383 C29.59843,28.5100591 29.3931159,27.8205883 29.3931159,27.8205883 C29.3931159,27.8205883 29.1878019,28.3130675 28.7771739,28.7070508 C28.2638889,29.1010342 28.0585749,29.2980258 28.0585749,29.2980258 Z M27.8532609,28.3130675 C27.8532609,28.3130675 28.1612319,28.4115633 28.4692029,28.2145716 C28.7771739,28.0175799 28.5718599,27.6235966 28.5718599,27.6235966 L27.8532609,28.3130675 Z M29.3931159,29.4950175 C29.3931159,29.4950175 29.906401,29.3965217 30.009058,28.9040425 C30.214372,28.4115633 30.111715,28.2145716 30.111715,28.2145716 C30.111715,28.2145716 30.522343,28.8055466 30.214372,29.19953 C30.111715,29.4950175 29.3931159,29.4950175 29.3931159,29.4950175 Z M29.906401,21.0243755 C29.906401,21.0243755 30.009058,21.319863 30.214372,21.4183589 C30.419686,21.5168547 30.522343,21.4183589 30.522343,21.4183589 C30.522343,21.4183589 30.625,21.8123422 30.214372,21.8123422 C29.906401,21.6153506 29.906401,21.0243755 29.906401,21.0243755 Z M29.59843,19.9409213 C30.009058,20.2364088 30.317029,20.9258797 30.317029,20.9258797 C30.317029,20.9258797 29.906401,20.8273839 29.701087,20.6303922 C29.4957729,20.4334005 29.59843,19.9409213 29.59843,19.9409213 Z M29.906401,18.5619796 L28.9824879,17.4785254 C28.9824879,17.4785254 29.59843,17.3800296 29.906401,17.6755171 C30.111715,17.9710046 29.906401,18.5619796 29.906401,18.5619796 Z M28.3665459,18.4634838 C28.3665459,18.4634838 28.4692029,17.8725088 27.8532609,17.2815337 C27.2373188,16.6905587 26.7240338,17.2815337 26.7240338,17.2815337 C26.7240338,17.2815337 27.4426329,17.5770212 27.7506039,17.7740129 C27.9559179,18.0695004 28.3665459,18.4634838 28.3665459,18.4634838 Z M17.4849034,22.8957964 C17.4849034,22.6988048 17.7928744,22.4033172 17.7928744,22.4033172 C17.7928744,22.4033172 17.4849034,22.4033172 17.3822464,22.5018131 C17.3822464,22.6988048 17.4849034,22.8957964 17.4849034,22.8957964 Z M16.3556763,26.146159 C16.3556763,26.146159 16.6636473,26.3431507 16.9716184,26.3431507 C17.2795894,26.4416466 17.4849034,26.3431507 17.4849034,26.3431507 C17.4849034,26.3431507 16.7663043,26.7371341 16.5609903,26.5401424 C16.1503623,26.3431507 16.3556763,26.146159 16.3556763,26.146159 Z M17.8955314,25.555184 C17.8955314,25.555184 17.7928744,25.8506715 17.7928744,26.2446549 C17.7928744,26.6386382 18.1008454,26.8356299 18.1008454,26.8356299 C18.1008454,26.8356299 17.8955314,26.3431507 17.8955314,25.555184 Z M21.3858696,28.9040425 C21.3858696,28.9040425 21.8991546,29.2980258 22.4124396,29.3965217 C22.5150966,29.3965217 22.6177536,29.4950175 22.7204106,29.4950175 C22.9257246,29.4950175 23.0283816,29.4950175 23.0283816,29.4950175 C23.0283816,29.4950175 22.8230676,29.5935133 22.5150966,29.6920092 C22.4124396,29.6920092 22.3097826,29.6920092 22.1044686,29.5935133 C21.4885266,29.5935133 21.3858696,28.9040425 21.3858696,28.9040425 Z M25.3894928,30.8739592 C25.3894928,30.8739592 25.5948068,31.0709509 25.8001208,31.1694467 C26.0054348,31.2679426 25.6974638,31.3664384 25.4921498,31.1694467 C25.2868357,31.0709509 25.3894928,30.8739592 25.3894928,30.8739592 Z M25.8001208,30.38148 C25.8001208,30.38148 26.6213768,30.5784717 27.2373188,30.2829842 C27.8532609,29.9874967 28.0585749,29.6920092 28.0585749,29.6920092 C28.0585749,29.6920092 27.5452899,31.0709509 26.9293478,31.0709509 C26.4160628,31.0709509 25.8001208,30.38148 25.8001208,30.38148 Z" id="Shape"></path>
            </g>
        </g>
    </g>
</svg>